<?xml version="1.0" encoding="UTF-8"?>
<svg version="1.1" xmlns="http://www.w3.org/2000/svg" width="331" height="1052">
<path d="M0 0 C4.34355823 0.86871165 8.20054624 2.08249518 12.30078125 3.66796875 C13.00576248 3.93915527 13.71074371 4.2103418 14.43708801 4.48974609 C16.73259081 5.3798746 19.02335738 6.28114425 21.3125 7.1875 C22.09566589 7.49756989 22.87883179 7.80763977 23.68572998 8.12710571 C37.98941412 13.83787636 51.01407477 20.68179206 64 29 C65.57085186 29.98038981 67.1424321 30.95961383 68.71484375 31.9375 C99.24771949 51.12026473 128.84575935 75.41258602 151 104 C151.91258307 105.12595802 152.82814514 106.24950573 153.74609375 107.37109375 C160.96648928 116.22101804 167.70287764 125.36552421 174.328125 134.66650391 C176.03777427 137.0527229 177.76589617 139.42447194 179.5 141.79296875 C180.07564697 142.58147217 180.65129395 143.36997559 181.24438477 144.18237305 C182.33047083 145.66906591 183.4192649 147.15378643 184.51147461 148.63598633 C191.42135849 158.12998204 196.85728302 168.36209837 202.28833008 178.74157715 C208.35986553 190.34353713 214.55399646 201.85181279 221 213.25 C228.23459552 226.1183484 234.41810783 239.30059333 240.046875 252.94140625 C240.73816179 254.60736141 241.43089666 256.27271636 242.125 257.9375 C242.48207031 258.79561279 242.83914062 259.65372559 243.20703125 260.5378418 C245.65307788 266.26169455 248.420512 271.72376537 251.39881897 277.18824768 C276.36018229 323.08659366 289.73335403 373.51899975 301.39794922 424.12548828 C303.89381342 434.8703801 306.83921264 445.36752678 310.1875 455.875 C322.31422564 494.14564621 326.9073149 535.10008168 330 575 C330.09571289 576.1358252 330.19142578 577.27165039 330.29003906 578.44189453 C331.23892291 591.11918677 331.22143676 603.81625022 331.24023438 616.5234375 C331.249911 620.46375885 331.2810099 624.40355095 331.3125 628.34375 C331.40728804 650.44349928 329.2388514 671.50026473 324.1875 693 C323.82936321 694.5557812 323.47178904 696.11169201 323.11474609 697.66772461 C322.41021377 700.72556904 321.6973508 703.78128208 320.97705078 706.83544922 C320.12555978 710.44875513 319.30760368 714.06889284 318.49609375 717.69140625 C315.81704651 729.33696382 312.12900512 740.25710996 307.80859375 751.39306641 C304.57128933 759.93930849 302.21128031 768.55652701 300.125 777.4375 C290.25658574 818.99995355 275.50167539 869.60876656 248 903 C247.57187012 903.52529297 247.14374023 904.05058594 246.70263672 904.59179688 C239.8468151 912.97727116 232.71068563 920.71306179 224.5 927.78515625 C221.10568408 930.79230801 217.80665334 933.89707604 214.5 937 C210.03992175 941.18200358 205.56980394 945.32956743 200.9296875 949.3125 C198.53174686 951.40948453 196.21050827 953.58373146 193.875 955.75 C188.10523909 961.00389508 182.06226667 965.82992589 175.86669922 970.5703125 C174.62053341 971.52473926 173.37736536 972.48309267 172.13720703 973.4453125 C154.78202589 986.90828942 136.29366604 998.52233925 117 1009 C116.14245117 1009.46647949 115.28490234 1009.93295898 114.40136719 1010.41357422 C103.83766742 1016.08873222 93.07518734 1020.92026777 81.8515625 1025.140625 C80.92988974 1025.48876723 80.92988974 1025.48876723 79.98959732 1025.84394264 C65.11901317 1031.45083201 50.06632484 1036.5022119 34.97918701 1041.4901123 C32.11313424 1042.44000408 29.24979148 1043.3979317 26.38638115 1044.3557539 C23.60634223 1045.28474204 20.82485752 1046.20933377 18.04288101 1047.1325016 C16.72755008 1047.56944744 15.41262894 1048.007629 14.09814072 1048.4471035 C12.2880852 1049.05142185 10.47587926 1049.64928781 8.66357422 1050.24682617 C7.63851776 1050.58671066 6.6134613 1050.92659515 5.55734253 1051.27677917 C3 1052 3 1052 0 1052 C0 704.84 0 357.68 0 0 Z " fill="#FD9D0C" transform="translate(0,0)"/>
</svg>
