<?xml version="1.0" encoding="UTF-8"?>
<svg version="1.1" xmlns="http://www.w3.org/2000/svg" width="132" height="132">
<path d="M0 0 C3.57339883 1.92356873 5.69607513 4.0882254 7 8 C7.08481773 10.58630224 7.11598229 13.14478056 7.09765625 15.73046875 C7.0962413 16.48088943 7.09482635 17.23131012 7.09336853 18.00447083 C7.0877756 20.3988546 7.07522444 22.79314453 7.0625 25.1875 C7.05748408 26.81184761 7.05292134 28.43619668 7.04882812 30.06054688 C7.03780848 34.04040069 7.02054873 38.02018444 7 42 C8.56790283 41.92881958 8.56790283 41.92881958 10.16748047 41.85620117 C14.0127394 42.00047799 15.95599544 42.55889735 19.3203125 44.30078125 C20.26777344 44.78353516 21.21523437 45.26628906 22.19140625 45.76367188 C23.15949219 46.27478516 24.12757812 46.78589844 25.125 47.3125 C26.10082031 47.81201172 27.07664062 48.31152344 28.08203125 48.82617188 C40.47107644 55.20661466 40.47107644 55.20661466 43 59 C44.05385539 67.22269733 42.40204558 75.68831921 41.08349609 83.79980469 C40.74755167 85.89023483 40.43782182 87.98355056 40.12890625 90.078125 C39.91563703 91.42472948 39.7008478 92.7710943 39.484375 94.1171875 C39.20158691 95.92098877 39.20158691 95.92098877 38.91308594 97.76123047 C37.89834184 101.36058748 36.56413847 103.30956446 34 106 C31.70736342 107.14631829 30.32102703 107.16206254 27.76904297 107.22460938 C26.89408173 107.24712769 26.01912048 107.269646 25.11764526 107.29284668 C21.09935197 107.36398126 17.0812436 107.42141482 13.0625 107.45996094 C10.94801119 107.48652161 8.83365079 107.52739544 6.71972656 107.58300781 C3.66418315 107.66243472 0.6111142 107.69532215 -2.4453125 107.71875 C-3.38206818 107.75174194 -4.31882385 107.78473389 -5.28396606 107.81872559 C-11.57355487 107.79973473 -14.70804651 106.39033074 -19.16085815 101.95565796 C-19.76777496 101.31029083 -20.37469177 100.66492371 -21 100 C-22.15736787 98.87613135 -23.31681572 97.75439999 -24.47851562 96.63500977 C-25.62366443 95.4897065 -26.7661865 94.34177165 -27.90625 93.19140625 C-28.51641968 92.57982162 -29.12658936 91.968237 -29.75524902 91.33811951 C-31.67256165 89.41528198 -33.58633702 87.48896906 -35.5 85.5625 C-36.81226585 84.24520941 -38.12476395 82.92815014 -39.4375 81.61132812 C-42.62768506 78.4102139 -45.81470651 75.20598135 -49 72 C-47.14188702 68.04321477 -45.0016889 65.00084445 -41 63 C-35.12276091 63.04857222 -29.35779055 64.29582466 -23.640625 65.546875 C-21.76938965 65.95437988 -21.76938965 65.95437988 -19.86035156 66.37011719 C-18.91643555 66.57797852 -17.97251953 66.78583984 -17 67 C-16.99453156 65.91125076 -16.99453156 65.91125076 -16.98895264 64.80050659 C-16.95101178 57.94440556 -16.89409005 51.08869341 -16.81609726 44.23293877 C-16.77666697 40.70865959 -16.74445718 37.18462859 -16.72900391 33.66015625 C-16.71089674 29.60376248 -16.66092678 25.54829512 -16.609375 21.4921875 C-16.60753204 19.6028096 -16.60753204 19.6028096 -16.60565186 17.67526245 C-16.42227586 6.6945241 -16.42227586 6.6945241 -12 2 C-7.97387033 -0.68408645 -4.73183082 -0.80610406 0 0 Z " fill="#FD9D0C" transform="translate(65,14)"/>
</svg>
