<?xml version="1.0" encoding="UTF-8"?>
<svg version="1.1" xmlns="http://www.w3.org/2000/svg" width="121" height="120">
<path d="M0 0 C1.09771477 -0.00021904 1.09771477 -0.00021904 2.21760559 -0.0004425 C4.64168235 0.00025536 7.06568272 0.00804185 9.48974609 0.01586914 C11.16840574 0.01773377 12.84706593 0.01915746 14.52572632 0.02015686 C18.94805397 0.02397851 23.37034888 0.0338058 27.79266357 0.04486084 C32.30366574 0.05508253 36.81467319 0.05965611 41.32568359 0.06469727 C50.17986697 0.07542837 59.03401744 0.09302233 67.88818359 0.11352539 C67.88818359 6.71352539 67.88818359 13.31352539 67.88818359 20.11352539 C70.23943359 19.72165039 72.59068359 19.32977539 75.01318359 18.92602539 C79.20221111 18.68944301 82.50238536 19.17368376 86.02001953 21.55932617 C93.39182467 28.29308523 97.9920439 36.15276797 98.75537109 46.16430664 C98.90067033 52.51336442 98.56078002 58.80072751 97.88818359 65.11352539 C94.58818359 65.11352539 91.28818359 65.11352539 87.88818359 65.11352539 C87.79537109 66.66040039 87.79537109 66.66040039 87.70068359 68.23852539 C86.68225129 73.09566405 85.361531 74.64017798 81.88818359 78.11352539 C77.22675865 81.0256736 72.20553063 80.74544199 66.88818359 80.11352539 C62.95881747 78.14884233 60.00031535 76.00429441 57.88818359 72.11352539 C57.39318359 68.64852539 57.39318359 68.64852539 56.88818359 65.11352539 C47.31818359 65.11352539 37.74818359 65.11352539 27.88818359 65.11352539 C27.55818359 67.42352539 27.22818359 69.73352539 26.88818359 72.11352539 C24.83212521 75.88169186 21.8799433 78.53839859 17.88818359 80.11352539 C12.59364369 80.80133571 8.19787664 80.76837191 3.38818359 78.36352539 C-1.3404869 74.10772195 -2.4923909 71.55555064 -3.11181641 65.11352539 C-6.41181641 65.11352539 -9.71181641 65.11352539 -13.11181641 65.11352539 C-13.20469388 57.65500097 -13.27567071 50.19660222 -13.31906509 42.73761559 C-13.33989751 39.2736804 -13.36813379 35.81014226 -13.41357422 32.34643555 C-13.46554226 28.3599938 -13.48479774 24.37371015 -13.50244141 20.38696289 C-13.52308655 19.1492514 -13.54373169 17.91153992 -13.56500244 16.63632202 C-13.56780988 5.85021953 -13.56780988 5.85021953 -9.11181641 1.11352539 C-6.1747364 -0.35501461 -3.21837936 -0.0166701 0 0 Z M32.88818359 12.11352539 C32.88818359 16.40352539 32.88818359 20.69352539 32.88818359 25.11352539 C22.98818359 25.11352539 13.08818359 25.11352539 2.88818359 25.11352539 C2.88818359 28.41352539 2.88818359 31.71352539 2.88818359 35.11352539 C12.78818359 35.11352539 22.68818359 35.11352539 32.88818359 35.11352539 C32.88818359 39.40352539 32.88818359 43.69352539 32.88818359 48.11352539 C39.29887647 42.84251125 45.07408872 37.02224387 50.88818359 31.11352539 C49.49800947 27.97774227 47.87484664 25.85340675 45.44677734 23.44165039 C44.44807617 22.44584961 44.44807617 22.44584961 43.42919922 21.42993164 C42.38795898 20.40706055 42.38795898 20.40706055 41.32568359 19.36352539 C40.27864258 18.31745117 40.27864258 18.31745117 39.21044922 17.25024414 C36.44056492 13.90258926 36.44056492 13.90258926 32.88818359 12.11352539 Z M67.88818359 28.11352539 C67.88818359 32.07352539 67.88818359 36.03352539 67.88818359 40.11352539 C74.81818359 40.11352539 81.74818359 40.11352539 88.88818359 40.11352539 C86.90818359 37.47352539 84.92818359 34.83352539 82.88818359 32.11352539 C81.89818359 30.79352539 80.90818359 29.47352539 79.88818359 28.11352539 C76.91982496 27.62944605 76.91982496 27.62944605 73.70068359 27.86352539 C71.78255859 27.94602539 69.86443359 28.02852539 67.88818359 28.11352539 Z M7.51318359 59.23852539 C5.44860715 61.62072898 4.96330027 62.9586249 4.88818359 66.11352539 C5.73563993 68.97054246 5.73563993 68.97054246 7.88818359 71.11352539 C11.5724609 72.18531515 13.74721155 72.65398583 17.26318359 70.98852539 C19.32776004 68.6063218 19.81306692 67.26842588 19.88818359 64.11352539 C19.04072726 61.25650832 19.04072726 61.25650832 16.88818359 59.11352539 C13.20390629 58.04173563 11.02915563 57.57306495 7.51318359 59.23852539 Z M67.51318359 59.23852539 C65.44860715 61.62072898 64.96330027 62.9586249 64.88818359 66.11352539 C65.73563993 68.97054246 65.73563993 68.97054246 67.88818359 71.11352539 C71.5724609 72.18531515 73.74721155 72.65398583 77.26318359 70.98852539 C79.32776004 68.6063218 79.81306692 67.26842588 79.88818359 64.11352539 C79.04072726 61.25650832 79.04072726 61.25650832 76.88818359 59.11352539 C73.20390629 58.04173563 71.02915563 57.57306495 67.51318359 59.23852539 Z " fill="#FD9D0C" transform="translate(18.11181640625,19.886474609375)"/>
</svg>
