<svg xmlns="http://www.w3.org/2000/svg" width="256" height="256" viewBox="0 0 100 100"><rect width="100" height="100" rx="50" fill="#fe9e0d"></rect><path d="M22.81 75.17L22.81 75.17L22.81 24.71Q22.81 23.13 23.94 22.04Q25.08 20.94 26.66 20.94L26.66 20.94L73.38 20.94Q74.96 20.94 76.08 22.08Q77.19 23.21 77.19 24.79L77.19 24.79L77.19 28.60Q77.19 30.18 76.08 31.30Q74.96 32.41 73.38 32.41L73.38 32.41L38.08 32.41L38.08 46.68L66.82 46.68Q68.40 46.68 69.51 47.81Q70.63 48.95 70.63 50.49L70.63 50.49L70.63 54.34Q70.63 55.92 69.51 57.03Q68.40 58.15 66.82 58.15L66.82 58.15L38.08 58.15L38.08 75.17Q38.08 76.83 36.97 77.94Q35.86 79.06 34.28 79.06L34.28 79.06L26.66 79.06Q25.08 79.06 23.94 77.94Q22.81 76.83 22.81 75.17Z" fill="#fff"></path></svg>