<?xml version="1.0" encoding="UTF-8"?>
<svg version="1.1" xmlns="http://www.w3.org/2000/svg" width="500" height="500">
<path d="M0 0 C5.80688896 1.65911113 10.02922933 4.39588434 14.6875 8.1875 C16.95025024 10.1702703 16.95025024 10.1702703 20 11 C20.020625 10.2575 20.04125 9.515 20.0625 8.75 C21.12358335 5.63748884 21.6496248 5.28829933 24.375 3.6875 C28 2 28 2 31 2 C29.66666667 4.66666667 28.33333333 7.33333333 27 10 C27.69480469 9.50886719 28.38960937 9.01773438 29.10546875 8.51171875 C32.47539763 6.75171541 34.54310384 6.68823419 38.3125 6.8125 C39.91544922 6.85310547 39.91544922 6.85310547 41.55078125 6.89453125 C42.35902344 6.92933594 43.16726562 6.96414062 44 7 C44 7.66 44 8.32 44 9 C41.36 9.66 38.72 10.32 36 11 C36.97839844 11.27972656 37.95679688 11.55945313 38.96484375 11.84765625 C48.27428559 14.64191444 56.25412798 17.66497016 62.0625 25.9375 C62.371875 26.618125 62.68125 27.29875 63 28 C60 28 60 28 58.3125 27.0625 C52.74265326 24.50338123 47.06454053 24.64978028 41.2421875 26.140625 C35.45228184 28.3597526 30.55572729 32.28719783 28 38 C26.2031834 43.92567176 25.90634255 51.07954273 28.25 56.875 C31.79656454 63.20815097 35.18660484 66.53893378 42 69 C49.13934378 70.92213102 55.11639413 69.27737988 62 67 C57.05625105 77.33692963 47.97676104 82.86857361 37.58203125 86.94921875 C25.53792852 90.13536975 12.4126711 88.38430388 1.375 82.875 C-7.72791355 77.40998918 -14.56617875 69.41104847 -17.53979492 59.13452148 C-19.69057761 49.15876919 -19.59535745 35.72115899 -14 27 C-8.59205479 19.20709018 -1.95742912 15.62751254 7 13 C5.74875245 7.31251115 3.95897432 4.27152492 0 0 Z " fill="#FFBB57" transform="translate(77,193)"/>
<path d="M0 0 C3.89199822 -0.02514961 7.7839635 -0.04306705 11.67602539 -0.05493164 C13.63364327 -0.06229736 15.59123871 -0.07501826 17.54882812 -0.08789062 C45.88856667 -0.16000192 45.88856667 -0.16000192 54.4375 6.375 C58.20876341 10.23824545 59.08860578 13.09109645 59.3125 18.375 C59.14254298 24.39347786 57.54248086 28.49179649 53.1875 32.75 C50.21187375 34.85044206 47.31383605 36.50088369 44 38 C45.051875 38.33 46.10375 38.66 47.1875 39 C52.03190817 41.17803029 54.070112 44.10873213 56 49 C57.66337065 54.92490998 58.84477276 60.95925867 60 67 C62.64 66.67 65.28 66.34 68 66 C67.62724214 68.70249451 67.21551151 69.79935135 65.1875 71.6875 C59.82913761 74.90251743 53.12473579 74.7638243 47.1875 73.3125 C43.49815636 71.09889382 41.41563284 68.22909023 40.04272461 64.16918945 C39.83139893 63.16073975 39.62007324 62.15229004 39.40234375 61.11328125 C39.15806641 60.01048828 38.91378906 58.90769531 38.66210938 57.77148438 C38.42298828 56.63001953 38.18386719 55.48855469 37.9375 54.3125 C37.45764335 52.03540838 36.96726418 49.76050095 36.46484375 47.48828125 C36.254646 46.48321533 36.04444824 45.47814941 35.82788086 44.44262695 C35.16476454 41.66931404 35.16476454 41.66931404 32 40 C29.69 40 27.38 40 25 40 C25 49.24 25 58.48 25 68 C27.31 68.66 29.62 69.32 32 70 C32 70.66 32 71.32 32 72 C28.45811722 73.09828769 25.1790238 73.11445011 21.484375 73.09765625 C20.23398437 73.09443359 18.98359375 73.09121094 17.6953125 73.08789062 C15.74238281 73.07532227 15.74238281 73.07532227 13.75 73.0625 C11.77386719 73.05573242 11.77386719 73.05573242 9.7578125 73.04882812 C6.50516259 73.03704316 3.25260416 73.02059011 0 73 C0 71.68 0 70.36 0 69 C2.97 68.505 2.97 68.505 6 68 C6 47.21 6 26.42 6 5 C3.69 4.34 1.38 3.68 -1 3 C-0.67 2.01 -0.34 1.02 0 0 Z M26 4 C23.60887791 7.58668313 23.76618973 9.16396569 23.8046875 13.41796875 C23.81113281 14.67158203 23.81757813 15.92519531 23.82421875 17.21679688 C23.84097656 18.52712891 23.85773438 19.83746094 23.875 21.1875 C23.88503361 22.52277987 23.8941588 23.85806689 23.90234375 25.19335938 C23.92594708 28.46242015 23.95887406 31.73112028 24 35 C29.39570195 36.11871394 32.09457915 35.6840982 37 33 C41.45900082 28.24373246 41.2752713 23.23562389 41.22265625 17.01953125 C40.87919998 12.36178223 39.6212718 9.0385814 36.6796875 5.33984375 C34.50229863 3.60299635 33.19583235 3.59773477 30.4375 3.625 C29.65246094 3.61726562 28.86742187 3.60953125 28.05859375 3.6015625 C27.37925781 3.73304688 26.69992187 3.86453125 26 4 Z " fill="#FFC063" transform="translate(403,206)"/>
<path d="M0 0 C4.83395154 -0.07543378 9.66754384 -0.12919195 14.50195312 -0.16479492 C16.13873274 -0.17967183 17.77547407 -0.1999798 19.41210938 -0.22631836 C35.04996319 -0.47126017 50.67489562 -0.52559409 62.765625 10.62890625 C69.59505617 17.77328692 71.36081311 27.82364718 71.21484375 37.44140625 C70.37086849 47.49238436 67.26554159 56.26055546 59.8125 63.1875 C46.93763844 73.41493332 33.014665 73.28756173 17.375 73.125 C15.68620323 73.11494957 13.99740066 73.10582737 12.30859375 73.09765625 C8.20558406 73.07580739 4.10285718 73.04139154 0 73 C0 71.68 0 70.36 0 69 C2.97 68.01 2.97 68.01 6 67 C6 46.87 6 26.74 6 6 C3.69 5.01 1.38 4.02 -1 3 C-0.67 2.01 -0.34 1.02 0 0 Z M25 5 C24.87980522 6.91641912 24.82977951 8.83727318 24.80712891 10.75732422 C24.79106598 11.98885223 24.77500305 13.22038025 24.75845337 14.48922729 C24.74696796 15.84437372 24.73635908 17.19952781 24.7265625 18.5546875 C24.72123882 19.23404484 24.71591515 19.91340218 24.71043015 20.6133461 C24.68368462 24.20885338 24.664314 27.80432577 24.64990234 31.39990234 C24.63324681 35.11835139 24.58846765 38.83591535 24.5375309 42.55402946 C24.50391241 45.40903772 24.49233104 48.26383451 24.48667526 51.11902237 C24.47994801 52.48982638 24.46468738 53.86061577 24.44078445 55.23122787 C24.40925441 57.14853867 24.41208883 59.06632177 24.41650391 60.98388672 C24.40841705 62.07563202 24.4003302 63.16737732 24.39199829 64.29220581 C24.74754878 67.20419201 24.74754878 67.20419201 27.3687439 68.87405396 C32.05256969 70.87831919 36.29294926 69.50902509 41 68 C46.37568679 65.2460621 48.9026411 60.42051534 51 55 C52.77002823 48.90725468 53.35673087 43.01186357 53.3125 36.6875 C53.30831055 35.8622583 53.30412109 35.0370166 53.29980469 34.18676758 C53.13315469 25.11232042 52.07367777 16.14550326 46 9 C41.20722093 4.77778986 38.79955081 3.86103282 32.4375 3.875 C31.26058594 3.87242187 30.08367187 3.86984375 28.87109375 3.8671875 C26.10327299 3.67216812 26.10327299 3.67216812 25 5 Z " fill="#FFC164" transform="translate(224,206)"/>
<path d="M0 0 C6.50959987 4.73425445 10.28239165 13.30947456 12.00390625 20.90625 C13.34393707 34.14802779 12.35653495 46.46601564 3.70703125 57.125 C-4.17427624 65.36783535 -12.85476784 68.95136156 -24.18359375 69.21875 C-30.82050886 69.15827697 -36.02514486 67.72820081 -41.99609375 64.90625 C-43.09244141 64.41511719 -43.09244141 64.41511719 -44.2109375 63.9140625 C-51.79835799 59.92374923 -56.28191363 51.82872172 -58.99609375 43.90625 C-61.61216162 31.36253995 -60.30692139 20.16483245 -53.80859375 9.15625 C-41.41470083 -9.18878148 -18.38159643 -10.07210763 0 0 Z M-35.68359375 3.96875 C-43.24779539 15.4731467 -42.93539603 31.63146192 -40.72265625 44.671875 C-38.73587174 53.51627057 -35.93753643 59.2318439 -28.55859375 64.71875 C-25.40321394 66.18099918 -23.44215516 66.33700768 -19.99609375 65.90625 C-14.44162027 63.82332245 -11.62875208 58.96730868 -8.99609375 53.90625 C-3.62758159 40.98576365 -3.8612393 21.86356358 -8.99609375 8.90625 C-11.5329802 3.80115751 -15.50121697 -1.15438172 -20.99609375 -3.09375 C-27.58038225 -3.95257024 -31.66920533 -1.03120684 -35.68359375 3.96875 Z " fill="#FFC063" transform="translate(204.99609375,211.09375)"/>
<path d="M0 0 C17.49 0 34.98 0 53 0 C53.83856598 3.3542639 54.08073332 5.22794099 53.87890625 8.546875 C53.83056641 9.39121094 53.78222656 10.23554688 53.73242188 11.10546875 C53.64831055 12.41451172 53.64831055 12.41451172 53.5625 13.75 C53.51029297 14.63816406 53.45808594 15.52632812 53.40429688 16.44140625 C53.27498267 18.62799196 53.14003358 20.81407894 53 23 C52.01 23 51.02 23 50 23 C49.7525 22.01 49.505 21.02 49.25 20 C47.74695996 14.82870139 46.14139619 9.66175366 41.78515625 6.28125 C38.40298326 4.72535555 35.95806783 4.66610706 32.25 4.75 C31.10015625 4.76546875 29.9503125 4.7809375 28.765625 4.796875 C26.09174086 4.69045501 26.09174086 4.69045501 25 6 C24.8415735 8.0708472 24.74875578 10.14678029 24.68359375 12.22265625 C24.64169922 13.48271484 24.59980469 14.74277344 24.55664062 16.04101562 C24.51682404 17.38150736 24.47711186 18.7220022 24.4375 20.0625 C24.39431958 21.40691523 24.35070544 22.7513166 24.30664062 24.09570312 C24.20014642 27.3970234 24.0981354 30.69842236 24 34 C29.12725192 33.61752479 29.12725192 33.61752479 33.25 30.875 C35.21282954 27.65035147 36.62264824 24.51224699 38 21 C38.99 21.33 39.98 21.66 41 22 C41 31.57 41 41.14 41 51 C40.01 51 39.02 51 38 51 C37.65388672 50.07767578 37.65388672 50.07767578 37.30078125 49.13671875 C35.26203335 43.99173985 35.26203335 43.99173985 31.5625 40 C29.03713969 39.01449354 26.65738128 38.49687263 24 38 C24.11798252 42.11193736 24.24221059 46.22363288 24.37231445 50.33520508 C24.41571434 51.73489199 24.45738564 53.13463359 24.49731445 54.53442383 C24.55489445 56.54261495 24.61914 58.55061149 24.68359375 60.55859375 C24.72025146 61.76829834 24.75690918 62.97800293 24.79467773 64.22436523 C24.68938266 66.90705456 24.68938266 66.90705456 26 68 C32.65301678 68.5985413 38.20214917 68.4313811 44 65 C49.01785176 60.6790721 49.6929174 54.20864236 51 48 C52.98 47.505 52.98 47.505 55 47 C55.19583915 51.14548415 55.38027842 55.2913967 55.5625 59.4375 C55.64661133 61.21350586 55.64661133 61.21350586 55.73242188 63.02539062 C55.78076172 64.15009766 55.82910156 65.27480469 55.87890625 66.43359375 C55.9260376 67.47572021 55.97316895 68.51784668 56.02172852 69.59155273 C56 72 56 72 55 73 C53.28134591 73.0935919 51.55884256 73.11744611 49.83764648 73.11352539 C48.73658066 73.11344986 47.63551483 73.11337433 46.50108337 73.11329651 C45.3031868 73.10813522 44.10529022 73.10297394 42.87109375 73.09765625 C41.65172623 73.0962413 40.4323587 73.09482635 39.17604065 73.09336853 C35.2631693 73.08774967 31.35035419 73.07519396 27.4375 73.0625 C24.79231853 73.05748743 22.14713617 73.0529241 19.50195312 73.04882812 C13.00128274 73.03777411 6.50064539 73.02101764 0 73 C-0.33 71.68 -0.66 70.36 -1 69 C1.97 68.01 1.97 68.01 5 67 C5 46.87 5 26.74 5 6 C3.02 5.34 1.04 4.68 -1 4 C-0.67 2.68 -0.34 1.36 0 0 Z " fill="#FFC164" transform="translate(340,206)"/>
<path d="M0 0 C0 7.59 0 15.18 0 23 C-1.32 23 -2.64 23 -4 23 C-4.17015625 22.27554688 -4.3403125 21.55109375 -4.515625 20.8046875 C-5.93833969 15.12896401 -7.19157659 10.50086403 -11 6 C-16.19256959 3.03103721 -16.19256959 3.03103721 -28 4 C-28.33 13.9 -28.66 23.8 -29 34 C-20.40433414 32.10036017 -20.40433414 32.10036017 -18.02734375 28.30078125 C-17.66769531 27.31464844 -17.30804688 26.32851562 -16.9375 25.3125 C-16.36322266 23.82169922 -16.36322266 23.82169922 -15.77734375 22.30078125 C-15.39255859 21.16189453 -15.39255859 21.16189453 -15 20 C-14.01 20.33 -13.02 20.66 -12 21 C-12 30.57 -12 40.14 -12 50 C-12.99 50 -13.98 50 -15 50 C-15.47179688 48.95199219 -15.47179688 48.95199219 -15.953125 47.8828125 C-16.38109375 46.97273438 -16.8090625 46.06265625 -17.25 45.125 C-17.66765625 44.22007812 -18.0853125 43.31515625 -18.515625 42.3828125 C-20.17599043 39.71748905 -21.03703997 38.94079388 -24 38 C-25.65 38 -27.3 38 -29 38 C-28.505 52.355 -28.505 52.355 -28 67 C-25.03 67.33 -22.06 67.66 -19 68 C-19.495 69.98 -19.495 69.98 -20 72 C-30.89 72 -41.78 72 -53 72 C-53.33 70.68 -53.66 69.36 -54 68 C-53.195625 67.87625 -52.39125 67.7525 -51.5625 67.625 C-50.2940625 67.315625 -50.2940625 67.315625 -49 67 C-47.6754998 64.35099961 -47.87287982 62.35500542 -47.87060547 59.38867188 C-47.86587723 57.626745 -47.86587723 57.626745 -47.86105347 55.82922363 C-47.8630777 54.55526733 -47.86510193 53.28131104 -47.8671875 51.96875 C-47.86623077 50.66675659 -47.86527405 49.36476318 -47.86428833 48.02331543 C-47.86281306 45.26601986 -47.86496042 42.50875666 -47.86962891 39.75146484 C-47.87532611 36.21380791 -47.87204619 32.67622684 -47.86605644 29.13857269 C-47.86157806 25.76945901 -47.86471182 22.40036584 -47.8671875 19.03125 C-47.86516327 17.7572937 -47.86313904 16.4833374 -47.86105347 15.17077637 C-47.86420563 13.99615845 -47.86735779 12.82154053 -47.87060547 11.61132812 C-47.87140106 10.5736731 -47.87219666 9.53601807 -47.87301636 8.46691895 C-47.83504136 5.99604819 -47.83504136 5.99604819 -49 4 C-51.52733235 3.34444881 -51.52733235 3.34444881 -54 3 C-54 2.01 -54 1.02 -54 0 C-46.95263488 -0.16831707 -39.90511458 -0.32819048 -32.85742188 -0.48217773 C-30.45959123 -0.53556744 -28.06180291 -0.59089442 -25.6640625 -0.64819336 C-22.21884283 -0.73018845 -18.77353135 -0.80522965 -15.328125 -0.87890625 C-13.71855927 -0.91945885 -13.71855927 -0.91945885 -12.07647705 -0.96083069 C-11.07574158 -0.98092697 -10.0750061 -1.00102325 -9.04394531 -1.02172852 C-8.16458313 -1.04171402 -7.28522095 -1.06169952 -6.37921143 -1.08229065 C-4 -1 -4 -1 0 0 Z " fill="#FFBD5B" transform="translate(57,207)"/>
<path d="M0 0 C10.23 0 20.46 0 31 0 C31 1.32 31 2.64 31 4 C29.35 4.33 27.7 4.66 26 5 C24.93217514 8.20347459 24.87941694 10.48187823 24.88647461 13.84838867 C24.88658791 15.64991646 24.88658791 15.64991646 24.88670349 17.48783875 C24.89186478 18.78478165 24.89702606 20.08172455 24.90234375 21.41796875 C24.90420923 22.75889534 24.90563252 24.09982261 24.90663147 25.44075012 C24.91044644 28.96709073 24.92026801 32.49339004 24.93133545 36.01971436 C24.9415715 39.61925701 24.94613379 43.21880635 24.95117188 46.81835938 C24.9618912 53.87892313 24.97895538 60.93945887 25 68 C27.31 68.66 29.62 69.32 32 70 C31.505 71.485 31.505 71.485 31 73 C20.77 73 10.54 73 0 73 C0 71.68 0 70.36 0 69 C2.97 68.505 2.97 68.505 6 68 C6.02318164 60.376446 6.0409448 52.75289566 6.05181217 45.12931442 C6.05702825 41.58928939 6.06410276 38.04928849 6.07543945 34.50927734 C6.08839423 30.43847422 6.09323876 26.36769641 6.09765625 22.296875 C6.10281754 21.02696716 6.10797882 19.75705933 6.11329651 18.44866943 C6.11340981 16.67728607 6.11340981 16.67728607 6.11352539 14.87011719 C6.115746 13.83087097 6.11796661 12.79162476 6.12025452 11.72088623 C6.01172259 9.26523599 5.9122298 7.28119491 5 5 C2.00384054 3.6954344 2.00384054 3.6954344 -1 3 C-0.67 2.01 -0.34 1.02 0 0 Z " fill="#FFBD5C" transform="translate(302,206)"/>
<path d="M0 0 C5.80688896 1.65911113 10.02922933 4.39588434 14.6875 8.1875 C16.95025024 10.1702703 16.95025024 10.1702703 20 11 C20.020625 10.2575 20.04125 9.515 20.0625 8.75 C21.12358335 5.63748884 21.6496248 5.28829933 24.375 3.6875 C28 2 28 2 31 2 C29.66666667 4.66666667 28.33333333 7.33333333 27 10 C27.69480469 9.50886719 28.38960937 9.01773438 29.10546875 8.51171875 C32.47539763 6.75171541 34.54310384 6.68823419 38.3125 6.8125 C39.91544922 6.85310547 39.91544922 6.85310547 41.55078125 6.89453125 C42.35902344 6.92933594 43.16726562 6.96414062 44 7 C44 7.66 44 8.32 44 9 C41.36 9.66 38.72 10.32 36 11 C36.99 11.33 37.98 11.66 39 12 C39 12.99 39 13.98 39 15 C36.69 15.33 34.38 15.66 32 16 C32 18.97 32 21.94 32 25 C31.67 24.34 31.34 23.68 31 23 C28.88672575 22.09274566 28.88672575 22.09274566 26.4375 21.375 C25.19806641 20.98441406 25.19806641 20.98441406 23.93359375 20.5859375 C23.29550781 20.39257812 22.65742187 20.19921875 22 20 C22.66 20.99 23.32 21.98 24 23 C23.67 23.99 23.34 24.98 23 26 C22.67 25.01 22.34 24.02 22 23 C17.66762422 20.37431771 13.75497549 21.17460803 9 22 C7.66718092 22.19112123 6.33387454 22.37888974 5 22.5625 C3.515 22.7790625 3.515 22.7790625 2 23 C4.96283313 20.61327331 7.94270509 18.2646629 11 16 C10.1028125 15.2265625 10.1028125 15.2265625 9.1875 14.4375 C6.5689529 11.51969038 5.5158321 8.60010124 4 5 C1.94212485 2.15399323 1.94212485 2.15399323 0 0 Z " fill="#FF4F4B" transform="translate(77,193)"/>
<path d="M0 0 C0.99 0 1.98 0 3 0 C3.19583915 4.14548415 3.38027842 8.2913967 3.5625 12.4375 C3.64661133 14.21350586 3.64661133 14.21350586 3.73242188 16.02539062 C3.78076172 17.15009766 3.82910156 18.27480469 3.87890625 19.43359375 C3.9260376 20.47572021 3.97316895 21.51784668 4.02172852 22.59155273 C4 25 4 25 3 26 C1.28134591 26.0935919 -0.44115744 26.11744611 -2.16235352 26.11352539 C-3.26341934 26.11344986 -4.36448517 26.11337433 -5.49891663 26.11329651 C-6.6968132 26.10813522 -7.89470978 26.10297394 -9.12890625 26.09765625 C-10.34827377 26.0962413 -11.5676413 26.09482635 -12.82395935 26.09336853 C-16.7368307 26.08774967 -20.64964581 26.07519396 -24.5625 26.0625 C-27.20768147 26.05748743 -29.85286383 26.0529241 -32.49804688 26.04882812 C-38.99871726 26.03777411 -45.49935461 26.02101764 -52 26 C-52.33 24.68 -52.66 23.36 -53 22 C-50.69 21.34 -48.38 20.68 -46 20 C-46.33 20.99 -46.66 21.98 -47 23 C-40.07 23 -33.14 23 -26 23 C-26 22.67 -26 22.34 -26 22 C-24.98679687 21.91363281 -23.97359375 21.82726562 -22.9296875 21.73828125 C-14.64171128 21.20245431 -14.64171128 21.20245431 -7.25 17.9375 C-4.35153158 14.15338845 -3.20783666 10.55938342 -2 6 C-1.33333333 4 -0.66666667 2 0 0 Z " fill="#FFC672" transform="translate(392,253)"/>
<path d="M0 0 C8.35111694 1.43919476 14.64884546 4.17810834 21 10 C22.8125 12.75 22.8125 12.75 24 15 C21 15 21 15 19.3125 14.0625 C12.84855973 11.0925815 6.56365888 11.89672809 0 14 C-3.41846384 15.4979333 -3.41846384 15.4979333 -6 17 C-8.39306591 7.19270308 -8.39306591 7.19270308 -8 3 C-7 2 -7 2 -3.4375 1.9375 C-2.303125 1.958125 -1.16875 1.97875 0 2 C0 1.34 0 0.68 0 0 Z " fill="#FFC26C" transform="translate(116,206)"/>
<path d="M0 0 C17.49 0 34.98 0 53 0 C53.83856598 3.3542639 54.08073332 5.22794099 53.87890625 8.546875 C53.83056641 9.39121094 53.78222656 10.23554688 53.73242188 11.10546875 C53.64831055 12.41451172 53.64831055 12.41451172 53.5625 13.75 C53.51029297 14.63816406 53.45808594 15.52632812 53.40429688 16.44140625 C53.27498267 18.62799196 53.14003358 20.81407894 53 23 C52.01 23 51.02 23 50 23 C49.7525 22.01 49.505 21.02 49.25 20 C47.7520014 14.84604677 46.15774156 9.65071041 41.7890625 6.30859375 C38.47346537 4.75295644 35.83535899 4.4967353 32.1875 4.3125 C31.02605469 4.24675781 29.86460937 4.18101562 28.66796875 4.11328125 C27.78753906 4.07589844 26.90710938 4.03851563 26 4 C26 3.67 26 3.34 26 3 C18.74 3 11.48 3 4 3 C4 3.33 4 3.66 4 4 C2.35 4 0.7 4 -1 4 C-0.67 2.68 -0.34 1.36 0 0 Z " fill="#FFC46D" transform="translate(340,206)"/>
<path d="M0 0 C0 7.59 0 15.18 0 23 C-1.32 23 -2.64 23 -4 23 C-4.17015625 22.27554688 -4.3403125 21.55109375 -4.515625 20.8046875 C-6.60265591 11.64647639 -6.60265591 11.64647639 -12.70703125 4.88671875 C-15.73685323 3.71504994 -18.513263 3.56920422 -21.75 3.375 C-22.92046875 3.30023438 -24.0909375 3.22546875 -25.296875 3.1484375 C-26.63492187 3.07496094 -26.63492187 3.07496094 -28 3 C-28 2.67 -28 2.34 -28 2 C-34.93 2 -41.86 2 -49 2 C-49 2.33 -49 2.66 -49 3 C-50.65 3 -52.3 3 -54 3 C-54 2.01 -54 1.02 -54 0 C-46.95263488 -0.16831707 -39.90511458 -0.32819048 -32.85742188 -0.48217773 C-30.45959123 -0.53556744 -28.06180291 -0.59089442 -25.6640625 -0.64819336 C-22.21884283 -0.73018845 -18.77353135 -0.80522965 -15.328125 -0.87890625 C-13.71855927 -0.91945885 -13.71855927 -0.91945885 -12.07647705 -0.96083069 C-11.07574158 -0.98092697 -10.0750061 -1.00102325 -9.04394531 -1.02172852 C-8.16458313 -1.04171402 -7.28522095 -1.06169952 -6.37921143 -1.08229065 C-4 -1 -4 -1 0 0 Z " fill="#FFCB7D" transform="translate(57,207)"/>
<path d="M0 0 C0.33 0 0.66 0 1 0 C1 9.9 1 19.8 1 30 C9.59566586 28.10036017 9.59566586 28.10036017 11.97265625 24.30078125 C12.33230469 23.31464844 12.69195312 22.32851562 13.0625 21.3125 C13.44535156 20.31863281 13.82820313 19.32476562 14.22265625 18.30078125 C14.60744141 17.16189453 14.60744141 17.16189453 15 16 C15.99 16.33 16.98 16.66 18 17 C18 26.57 18 36.14 18 46 C17.01 46 16.02 46 15 46 C14.68546875 45.30132812 14.3709375 44.60265625 14.046875 43.8828125 C13.61890625 42.97273438 13.1909375 42.06265625 12.75 41.125 C12.33234375 40.22007812 11.9146875 39.31515625 11.484375 38.3828125 C9.80876609 35.69301924 9.00118097 34.92589626 6 34 C4.02 34 2.04 34 0 34 C0 22.78 0 11.56 0 0 Z " fill="#FFD08A" transform="translate(27,211)"/>
<path d="M0 0 C0 0.99 0 1.98 0 3 C0.55266037 3.01030746 1.10532074 3.02061493 1.67472839 3.03123474 C7.43373909 3.13952699 13.1926005 3.25410603 18.95141602 3.37231445 C21.0998217 3.41559052 23.24826015 3.45727073 25.39672852 3.49731445 C28.48724232 3.5551946 31.5775923 3.61883792 34.66796875 3.68359375 C35.62648239 3.70030624 36.58499603 3.71701874 37.57255554 3.73423767 C38.92338982 3.7641555 38.92338982 3.7641555 40.30151367 3.79467773 C41.48398933 3.81799416 41.48398933 3.81799416 42.69035339 3.84178162 C45.19294422 4.01321731 47.55274358 4.45963861 50 5 C50 5.33 50 5.66 50 6 C31.85 6 13.7 6 -5 6 C-5.33 4.68 -5.66 3.36 -6 2 C-4.02 1.34 -2.04 0.68 0 0 Z " fill="#FFE6C2" transform="translate(345,273)"/>
<path d="M0 0 C17.49 0 34.98 0 53 0 C53.83856598 3.3542639 54.08073332 5.22794099 53.87890625 8.546875 C53.83056641 9.39121094 53.78222656 10.23554688 53.73242188 11.10546875 C53.64831055 12.41451172 53.64831055 12.41451172 53.5625 13.75 C53.51029297 14.63816406 53.45808594 15.52632812 53.40429688 16.44140625 C53.27498267 18.62799196 53.14003358 20.81407894 53 23 C52.01 23 51.02 23 50 23 C50.66 22.67 51.32 22.34 52 22 C52 15.4 52 8.8 52 2 C36.16 2.33 20.32 2.66 4 3 C4 3.33 4 3.66 4 4 C2.35 4 0.7 4 -1 4 C-0.67 2.68 -0.34 1.36 0 0 Z " fill="#FFE1B3" transform="translate(340,206)"/>
<path d="M0 0 C0.33 0.99 0.66 1.98 1 3 C0.67 3.33 0.34 3.66 0 4 C13.365 4.495 13.365 4.495 27 5 C27.495 5.99 27.495 5.99 28 7 C17.11 7 6.22 7 -5 7 C-5.33 5.68 -5.66 4.36 -6 3 C-5.195625 2.87625 -4.39125 2.7525 -3.5625 2.625 C-2.716875 2.41875 -1.87125 2.2125 -1 2 C-0.67 1.34 -0.34 0.68 0 0 Z " fill="#FFE4BD" transform="translate(9,272)"/>
<path d="M0 0 C-0.33 0.33 -0.66 0.66 -1 1 C7.25 1.33 15.5 1.66 24 2 C22 4 22 4 19.20263672 4.22705078 C18.04006348 4.21657715 16.87749023 4.20610352 15.6796875 4.1953125 C13.79443359 4.18564453 13.79443359 4.18564453 11.87109375 4.17578125 C10.55238281 4.15902344 9.23367188 4.14226562 7.875 4.125 C6.53516279 4.11496983 5.19531848 4.10584404 3.85546875 4.09765625 C0.57013427 4.07402075 -2.71484465 4.04107234 -6 4 C-6 2.68 -6 1.36 -6 0 C-2.25 -1.125 -2.25 -1.125 0 0 Z " fill="#FFE3BA" transform="translate(409,275)"/>
<path d="M0 0 C-0.99 0.495 -0.99 0.495 -2 1 C5.92 1.33 13.84 1.66 22 2 C22 2.66 22 3.32 22 4 C12.76 4 3.52 4 -6 4 C-6 2.68 -6 1.36 -6 0 C-3 -1 -3 -1 0 0 Z " fill="#FFE4BD" transform="translate(308,275)"/>
<path d="M0 0 C3.89199822 -0.02514961 7.7839635 -0.04306705 11.67602539 -0.05493164 C13.63364327 -0.06229736 15.59123871 -0.07501826 17.54882812 -0.08789062 C25.74950314 -0.10875748 33.83492363 0.23303794 42 1 C42 1.33 42 1.66 42 2 C29.79 2.33 17.58 2.66 5 3 C5.33 3.66 5.66 4.32 6 5 C3.69 4.34 1.38 3.68 -1 3 C-0.67 2.01 -0.34 1.02 0 0 Z " fill="#FFD79B" transform="translate(403,206)"/>
<path d="M0 0 C0 0.99 0 1.98 0 3 C1.26457031 3.04898437 2.52914062 3.09796875 3.83203125 3.1484375 C5.49220947 3.2234738 7.15236464 3.29902127 8.8125 3.375 C10.06256836 3.42140625 10.06256836 3.42140625 11.33789062 3.46875 C12.14033203 3.50742187 12.94277344 3.54609375 13.76953125 3.5859375 C14.87711792 3.63306885 14.87711792 3.63306885 16.00708008 3.68115234 C18 4 18 4 21 6 C12.09 6 3.18 6 -6 6 C-6 4.68 -6 3.36 -6 2 C-4.02 1.34 -2.04 0.68 0 0 Z " fill="#FFDEAD" transform="translate(230,273)"/>
<path d="M0 0 C0 3.90838866 -1.50567876 5.11594107 -4 8 C-2.68 8.66 -1.36 9.32 0 10 C-4.24984618 10.8024634 -8.3009943 11.16218381 -12.625 11.1875 C-14.28402344 11.20876953 -14.28402344 11.20876953 -15.9765625 11.23046875 C-18.9000427 11.00761948 -20.53458529 10.52134128 -23 9 C-21.88625 8.855625 -20.7725 8.71125 -19.625 8.5625 C-16.17857953 8.21627965 -16.17857953 8.21627965 -14 7 C-13.05125 7.020625 -12.1025 7.04125 -11.125 7.0625 C-7.91175112 6.99823502 -6.59324493 6.81527145 -4 5 C-1.77183014 2.46557594 -1.77183014 2.46557594 0 0 Z " fill="#FFD391" transform="translate(193,269)"/>
<path d="M0 0 C9.57 0 19.14 0 29 0 C28.67 0.66 28.34 1.32 28 2 C20.74 2 13.48 2 6 2 C6.33 3.32 6.66 4.64 7 6 C4.36 5.01 1.72 4.02 -1 3 C-0.67 2.01 -0.34 1.02 0 0 Z " fill="#FFDBA6" transform="translate(224,206)"/>
<path d="M0 0 C10.23 0 20.46 0 31 0 C31 0.99 31 1.98 31 3 C22.42 3 13.84 3 5 3 C5 3.33 5 3.66 5 4 C3.35 4 1.7 4 0 4 C0 2.68 0 1.36 0 0 Z " fill="#FFDAA2" transform="translate(302,206)"/>
<path d="M0 0 C-0.55078125 1.9453125 -0.55078125 1.9453125 -2 4 C-5.23046875 4.6796875 -5.23046875 4.6796875 -9.1875 4.875 C-10.48042969 4.95492188 -11.77335937 5.03484375 -13.10546875 5.1171875 C-17.20422932 4.99385468 -20.14406956 4.29031135 -24 3 C-23.67 2.34 -23.34 1.68 -23 1 C-22.05125 1.350625 -21.1025 1.70125 -20.125 2.0625 C-12.31953999 4.30398648 -7.05892637 0 0 0 Z " fill="#FFE7C4" transform="translate(139,260)"/>
<path d="M0 0 C-0.66 0.66 -1.32 1.32 -2 2 C-0.68 2.66 0.64 3.32 2 4 C-1.3 4.66 -4.6 5.32 -8 6 C-8 5.34 -8 4.68 -8 4 C-8.99 3.34 -9.98 2.68 -11 2 C-9.54494642 1.47007308 -8.08581873 0.9513211 -6.625 0.4375 C-5.81289063 0.14746094 -5.00078125 -0.14257812 -4.1640625 -0.44140625 C-2 -1 -2 -1 0 0 Z " fill="#FFDDAB" transform="translate(268,273)"/>
<path d="M0 0 C1.47919922 0.19142578 1.47919922 0.19142578 2.98828125 0.38671875 C4.47908203 0.56654297 4.47908203 0.56654297 6 0.75 C6.75925781 0.85699219 7.51851563 0.96398437 8.30078125 1.07421875 C6.30078125 3.07421875 6.30078125 3.07421875 3.48046875 3.26953125 C2.38992188 3.24632812 1.299375 3.223125 0.17578125 3.19921875 C-0.91992188 3.18117188 -2.015625 3.163125 -3.14453125 3.14453125 C-3.98757812 3.12132812 -4.830625 3.098125 -5.69921875 3.07421875 C-3.85219692 0.62202936 -3.13798948 0.08628336 0 0 Z " fill="#FFC267" transform="translate(253.69921875,274.92578125)"/>
<path d="M0 0 C0 3.90838866 -1.50567876 5.11594107 -4 8 C-2.68 8.66 -1.36 9.32 0 10 C-1.98 10.33 -3.96 10.66 -6 11 C-6 10.01 -6 9.02 -6 8 C-6.66 7.67 -7.32 7.34 -8 7 C-7.13375 6.6596875 -7.13375 6.6596875 -6.25 6.3125 C-3.4336339 4.66961977 -1.91922886 2.60466773 0 0 Z " fill="#FFE2B7" transform="translate(193,269)"/>
<path d="M0 0 C-0.33 1.32 -0.66 2.64 -1 4 C-5 4 -5 4 -6.75 2.5 C-7.1625 2.005 -7.575 1.51 -8 1 C-5.23735711 0.40267181 -2.83967231 0 0 0 Z " fill="#FFDAA3" transform="translate(471,272)"/>
<path d="M0 0 C0.66 0.33 1.32 0.66 2 1 C0.71451591 2.33929505 -0.57858155 3.67128643 -1.875 5 C-2.59429687 5.7425 -3.31359375 6.485 -4.0546875 7.25 C-6 9 -6 9 -8 9 C-6.4169423 4.7257442 -3.49431596 2.73468206 0 0 Z " fill="#FFD596" transform="translate(73,210)"/>
<path d="M0 0 C0 1.66666667 0 3.33333333 0 5 C-1.65 5.33 -3.3 5.66 -5 6 C-5.33 4.68 -5.66 3.36 -6 2 C-4.02 1.34 -2.04 0.68 0 0 Z " fill="#FFD494" transform="translate(345,273)"/>
<path d="M0 0 C0.33 0.99 0.66 1.98 1 3 C0.01 4.485 0.01 4.485 -1 6 C-3.625 6.1875 -3.625 6.1875 -6 6 C-6 5.01 -6 4.02 -6 3 C-5.195625 2.87625 -4.39125 2.7525 -3.5625 2.625 C-2.716875 2.41875 -1.87125 2.2125 -1 2 C-0.67 1.34 -0.34 0.68 0 0 Z " fill="#FFD18B" transform="translate(9,272)"/>
<path d="M0 0 C2.31 0 4.62 0 7 0 C6.34 1.32 5.68 2.64 5 4 C3.35 4 1.7 4 0 4 C0 2.68 0 1.36 0 0 Z " fill="#FFE7C4" transform="translate(302,206)"/>
<path d="M0 0 C1.98 0 3.96 0 6 0 C5.01 0.66 4.02 1.32 3 2 C3.99 2.99 4.98 3.98 6 5 C3.69 4.34 1.38 3.68 -1 3 C-0.67 2.01 -0.34 1.02 0 0 Z " fill="#FFEBCD" transform="translate(403,206)"/>
<path d="M0 0 C5.75 1.75 5.75 1.75 8 4 C7.01 4.66 6.02 5.32 5 6 C3.35 4.02 1.7 2.04 0 0 Z " fill="#FF9191" transform="translate(77,193)"/>
<path d="M0 0 C0 3 0 3 -1.53125 4.60546875 C-2.1809375 5.12753906 -2.830625 5.64960938 -3.5 6.1875 C-4.1496875 6.71730469 -4.799375 7.24710938 -5.46875 7.79296875 C-5.9740625 8.19128906 -6.479375 8.58960938 -7 9 C-5.64978174 4.58110387 -3.73884332 2.65654657 0 0 Z " fill="#FFD9A2" transform="translate(159,212)"/>
</svg>
