<?xml version="1.0" encoding="UTF-8"?>
<svg version="1.1" xmlns="http://www.w3.org/2000/svg" width="860" height="1071">
<path d="M0 0 C270.6 0 541.2 0 820 0 C820 340.23 820 680.46 820 1031 C809.11 1035.95 798.22 1040.9 787 1046 C779.69875 1049.465 779.69875 1049.465 772.25 1053 C734.23095774 1070.67570989 695.19192846 1077.33239322 654.984375 1062.9296875 C647.92595036 1060.2741217 641.46898761 1056.85157204 635 1053 C634.15211914 1052.50612793 633.30423828 1052.01225586 632.43066406 1051.50341797 C605.8836124 1036.01532133 581.97787482 1017.52334645 560.546875 995.484375 C558.48134532 993.46953317 556.38693815 991.58440014 554.203125 989.703125 C549.21032382 985.37322964 544.62487185 980.67613888 540 975.9609375 C536.88341682 972.80783186 533.75658309 969.74434447 530.37890625 966.87109375 C524.57173158 961.86657131 519.22644027 956.375195 513.81811523 950.94848633 C511.94170525 949.06671726 510.06001031 947.19035262 508.17773438 945.31445312 C502.7893368 939.92855456 497.47931031 934.55128761 492.54223633 928.74291992 C490.2840448 926.19088109 487.82154864 923.87419147 485.35668945 921.52392578 C476.9478739 913.46629767 470.14584989 904.86902914 463.57666016 895.28222656 C460.94725218 891.47614019 458.21903961 887.74229034 455.5 884 C454.41619132 882.50034342 453.33285787 881.00034328 452.25 879.5 C451.71375 878.7575 451.1775 878.015 450.625 877.25 C448.1875 873.875 448.1875 873.875 445.75 870.5 C445.21375 869.75806396 444.6775 869.01612793 444.125 868.25170898 C443.03950297 866.74757149 441.95617602 865.24186558 440.875 863.73461914 C438.21512077 860.032128 435.52622093 856.36235508 432.75 852.74609375 C424.23905509 841.5413587 417.88671645 829.67417233 411.58642578 817.11767578 C408.17903612 810.42140524 404.52183873 803.86000256 400.89453125 797.28125 C398.97591525 793.80147634 397.10152317 790.30329372 395.26171875 786.78125 C389.18450954 775.24312124 382.2152865 765.1100135 374 755 C372.87775485 753.59206283 371.75666204 752.18320637 370.63671875 750.7734375 C365.10827068 743.85156187 359.45160935 737.11056269 353.4140625 730.625 C352.14680971 729.24701638 350.88426666 727.86345085 349.67382812 726.43530273 C343.89712572 719.63449862 337.56435839 713.37828556 331.25878906 707.07348633 C329.26336586 705.07588048 327.27608944 703.07040647 325.2890625 701.06445312 C318.159654 693.90388394 310.93067801 687.27029429 303 681 C300.5151607 678.88391133 298.07174724 676.7224062 295.625 674.5625 C289.5176019 669.22687329 283.24364424 664.20213763 276.76025391 659.33056641 C274.84466357 657.88258204 272.94299282 656.41756467 271.04296875 654.94921875 C242.3052515 632.75869732 212.1218426 612.52493848 180.9140625 593.97265625 C162.6031758 583.08614168 145.14671496 571.11153845 127.70214844 558.89257812 C125.24340575 557.17048079 122.78206085 555.45217087 120.3203125 553.734375 C105.249905 543.19205342 90.65623572 532.34098351 77 520 C76.3503125 519.41347656 75.700625 518.82695313 75.03125 518.22265625 C61.30857108 505.75967637 48.50844624 492.54651509 37 478 C36.04860681 476.83842314 35.09536235 475.678361 34.140625 474.51953125 C27.17939857 466.02634478 20.85804645 457.2875058 15 448 C14.62810547 447.4131543 14.25621094 446.82630859 13.87304688 446.22167969 C2.05903731 427.43802955 -7.28162733 407.79256903 -15 387 C-15.29745117 386.20029785 -15.59490234 385.4005957 -15.90136719 384.57666016 C-17.78175491 379.43564836 -19.44206377 374.24707074 -21 369 C-21.26876953 368.10909668 -21.53753906 367.21819336 -21.81445312 366.30029297 C-34.52766179 323.33167485 -40.05512503 275.77468379 -40.203125 231.0390625 C-40.20595238 230.35482586 -40.20877975 229.67058922 -40.21169281 228.96561813 C-40.22654477 225.32896315 -40.23585649 221.69234625 -40.24023438 218.05566406 C-40.24457052 215.13398417 -40.25829151 212.21260768 -40.28125 209.29101562 C-40.48883851 182.27971175 -38.8934329 155.58154637 -34.625 128.875 C-34.44195312 127.64265625 -34.25890625 126.4103125 -34.0703125 125.140625 C-30.64511351 103.01203678 -24.78516433 81.66521405 -18.31530762 60.26824951 C-17.48190882 57.50610693 -16.6556713 54.74184858 -15.82986736 51.97742748 C-10.64550336 34.62286581 -5.32678292 17.31204449 0 0 Z " fill="#FD9D0D" transform="translate(40,0)"/>
</svg>
