<?xml version="1.0" encoding="UTF-8"?>
<svg version="1.1" xmlns="http://www.w3.org/2000/svg" width="264" height="90">
<path d="M0 0 C3.3956697 -0.08745946 6.79104773 -0.14054444 10.1875 -0.1875 C11.14720703 -0.21263672 12.10691406 -0.23777344 13.09570312 -0.26367188 C21.91791764 -0.35525196 21.91791764 -0.35525196 26 3 C27 4 27 4 27.375 7.3125 C27 11 27 11 24.5 13.4375 C23.675 13.953125 22.85 14.46875 22 15 C22.639375 15.680625 23.27875 16.36125 23.9375 17.0625 C26.3258493 20.46408839 26.67877153 22.90433701 27 27 C27.99 27 28.98 27 30 27 C30 27.66 30 28.32 30 29 C26.51131349 31.32579101 25.10281481 31.41865457 21 31 C18.14555178 29.40471025 17.16043773 28.43767413 16.0234375 25.3359375 C15.80945313 24.35882813 15.59546875 23.38171875 15.375 22.375 C14.97231239 20.57001203 14.52557873 18.77310628 14 17 C13.34 16.67 12.68 16.34 12 16 C12 19.96 12 23.92 12 28 C12.99 28 13.98 28 15 28 C15 28.66 15 29.32 15 30 C10.05 30 5.1 30 0 30 C0 29.34 0 28.68 0 28 C0.66 28 1.32 28 2 28 C1.86162204 23.70805854 1.71304061 19.41653071 1.5625 15.125 C1.52318359 13.90167969 1.48386719 12.67835937 1.44335938 11.41796875 C1.40146484 10.25136719 1.35957031 9.08476563 1.31640625 7.8828125 C1.27974854 6.80402832 1.24309082 5.72524414 1.20532227 4.61376953 C1.16623357 2.01930464 1.16623357 2.01930464 0 0 Z M13 1 C11.68737429 2.08552366 11.68737429 2.08552366 11.90234375 4.72265625 C11.91394531 5.82480469 11.92554688 6.92695312 11.9375 8.0625 C11.94652344 9.16722656 11.95554688 10.27195312 11.96484375 11.41015625 C11.97644531 12.26480469 11.98804688 13.11945312 12 14 C14.75641416 13.50243908 14.75641416 13.50243908 17 12 C17.56561487 6.6602997 17.56561487 6.6602997 15.5625 2 C14.16880523 0.91015772 14.16880523 0.91015772 13 1 Z " fill="#FF9575" transform="translate(206,32)"/>
<path d="M0 0 C4.52895875 4.88650812 5.29905375 7.96741064 5.21484375 14.4609375 C4.81134816 19.22952172 3.04045896 22.01430203 -0.375 25.25 C-5.3195137 28.54634246 -9.01752015 29.51573102 -15 29 C-19.61558971 27.56757561 -23.09476697 25.80721417 -26.0546875 21.8671875 C-28.24331556 17.54419488 -28.61522561 12.63596663 -27.51953125 7.94140625 C-25.70364162 3.27627543 -23.1184164 0.21052366 -18.8125 -2.25 C-12.04903275 -4.05359127 -6.14531278 -3.49439354 0 0 Z M-14.6875 -0.0625 C-17.8953802 4.97845459 -18.52102658 11.16450233 -18 17 C-17.01755314 21.21377597 -16.21633717 24.20938084 -12.5 26.625 C-9.75628937 27.32285229 -9.75628937 27.32285229 -7 25 C-4.6067239 17.82017171 -3.8921189 10.80348531 -6.1875 3.5 C-7.61875004 -0.12776467 -7.61875004 -0.12776467 -10.5 -1.1875 C-12.95558219 -1.17885673 -12.95558219 -1.17885673 -14.6875 -0.0625 Z " fill="#FF8A67" transform="translate(87,34)"/>
<path d="M0 0 C3.23489128 3.83079231 4.80326132 6.98316356 5 12 C4.3597432 17.55545898 3.29641392 22.15584018 -1 26 C-5.8462041 28.60787018 -10.49539549 29.68807556 -16 29 C-20.58229968 27.34528067 -24.63654845 25.44884997 -27 21 C-29.02414421 15.84763292 -28.43676434 10.37925581 -26.8125 5.25 C-24.65412432 1.37980912 -22.44225084 -1.24310408 -18.109375 -2.5859375 C-11.58942752 -3.86577904 -5.80762325 -3.41624897 0 0 Z M-14 -1 C-17.82396515 3.10722183 -18.15636406 6.9324378 -18.1875 12.375 C-18.20167969 13.49648438 -18.21585938 14.61796875 -18.23046875 15.7734375 C-17.93936701 19.84886186 -17.11759858 22.75344774 -14.375 25.8125 C-13.92125 26.204375 -13.4675 26.59625 -13 27 C-9.34683329 25.75023244 -8.21934164 25.32901247 -6 22 C-4.52280513 14.60291894 -4.53354085 7.81075234 -8 1 C-8.66 0.34 -9.32 -0.32 -10 -1 C-11.32 -1 -12.64 -1 -14 -1 Z " fill="#FF8965" transform="translate(122,34)"/>
<path d="M0 0 C3.54150893 -0.08761663 7.08273633 -0.14059739 10.625 -0.1875 C11.62402344 -0.21263672 12.62304688 -0.23777344 13.65234375 -0.26367188 C19.19838958 -0.31876505 23.23717916 -0.19844717 28 3 C31.82889679 7.22498956 32.30028576 11.21489703 32.2109375 16.71875 C31.89859548 20.09667113 30.93554379 22.22572057 29 25 C22.50193969 30.22670069 16.6533846 30.14423362 8.6875 30.0625 C7.85154297 30.05798828 7.01558594 30.05347656 6.15429688 30.04882812 C4.10283351 30.03710548 2.05140727 30.01917203 0 30 C0 29.34 0 28.68 0 28 C0.99 28 1.98 28 3 28 C3 19.42 3 10.84 3 2 C2.01 1.67 1.02 1.34 0 1 C0 0.67 0 0.34 0 0 Z M13 1 C11.70223083 3.59553834 11.87049965 5.50705527 11.8671875 8.41015625 C11.86589844 9.48201172 11.86460937 10.55386719 11.86328125 11.65820312 C11.86714844 12.78162109 11.87101563 13.90503906 11.875 15.0625 C11.87113281 16.18978516 11.86726562 17.31707031 11.86328125 18.47851562 C11.86457031 19.54908203 11.86585938 20.61964844 11.8671875 21.72265625 C11.86831543 22.71015869 11.86944336 23.69766113 11.87060547 24.71508789 C11.74361555 26.96561431 11.74361555 26.96561431 13 28 C15.86264617 28.30133118 17.4047729 28.44642032 19.75 26.6875 C22.40196086 23.10735284 22.19506253 19.48635687 22.25 15.1875 C22.27578125 13.98480469 22.3015625 12.78210938 22.328125 11.54296875 C21.96778251 7.65212782 21.11446475 5.27226912 19 2 C15.91038542 1.02525184 15.91038542 1.02525184 13 1 Z " fill="#FF8E6C" transform="translate(128,32)"/>
<path d="M0 0 C8.25 0 16.5 0 25 0 C25 3.3 25 6.6 25 10 C24.01 10 23.02 10 22 10 C21.608125 8.865625 21.21625 7.73125 20.8125 6.5625 C20.214375 5.386875 19.61625 4.21125 19 3 C16.525 2.505 16.525 2.505 14 2 C13.67 5.63 13.34 9.26 13 13 C13.99 13 14.98 13 16 13 C16.66 11.68 17.32 10.36 18 9 C18.66 9 19.32 9 20 9 C20 12.96 20 16.92 20 21 C17 20 17 20 13 16 C13 19.96 13 23.92 13 28 C15.7498683 27.57694334 17.58875473 27.29081652 20 26 C21.77424322 23.4945845 22.92627305 20.86771794 24 18 C24.33 18 24.66 18 25 18 C25 21.96 25 25.92 25 30 C16.75 30 8.5 30 0 30 C0 29.34 0 28.68 0 28 C0.99 28 1.98 28 3 28 C2.89053657 23.70778769 2.75981105 19.4164851 2.625 15.125 C2.5940625 13.90167969 2.563125 12.67835937 2.53125 11.41796875 C2.49257812 10.25136719 2.45390625 9.08476563 2.4140625 7.8828125 C2.3826416 6.80402832 2.3512207 5.72524414 2.31884766 4.61376953 C2.25323678 1.84238346 2.25323678 1.84238346 0 0 Z " fill="#FFBFAC" transform="translate(178,32)"/>
<path d="M0 0 C1.15242188 0.10183594 2.30484375 0.20367188 3.4921875 0.30859375 C4.36101563 0.39238281 5.22984375 0.47617187 6.125 0.5625 C6.125 3.8625 6.125 7.1625 6.125 10.5625 C5.465 10.5625 4.805 10.5625 4.125 10.5625 C3.24609375 8.77213542 2.3671875 6.98177083 1.48828125 5.19140625 C-0.07328979 2.98022076 -0.07328979 2.98022076 -4.875 2.5625 C-4.875 6.1925 -4.875 9.8225 -4.875 13.5625 C-3.946875 12.5725 -3.946875 12.5725 -3 11.5625 C-0.875 9.5625 -0.875 9.5625 1.125 9.5625 C1.455 13.5225 1.785 17.4825 2.125 21.5625 C1.135 21.5625 0.145 21.5625 -0.875 21.5625 C-1.16375 20.923125 -1.4525 20.28375 -1.75 19.625 C-2.70323451 17.41043921 -2.70323451 17.41043921 -4.875 16.5625 C-4.875 20.5225 -4.875 24.4825 -4.875 28.5625 C-3.555 28.5625 -2.235 28.5625 -0.875 28.5625 C-0.875 29.2225 -0.875 29.8825 -0.875 30.5625 C-6.485 30.5625 -12.095 30.5625 -17.875 30.5625 C-17.875 29.9025 -17.875 29.2425 -17.875 28.5625 C-17.215 28.5625 -16.555 28.5625 -15.875 28.5625 C-15.88660156 27.52351563 -15.89820313 26.48453125 -15.91015625 25.4140625 C-16.0502108 7.72899275 -16.0502108 7.72899275 -14.875 2.5625 C-10.87390702 -1.43859298 -5.28892175 -0.4857173 0 0 Z " fill="#FF845E" transform="translate(51.875,31.4375)"/>
<path d="M0 0 C5.28 0 10.56 0 16 0 C15.67 0.66 15.34 1.32 15 2 C14.34 2 13.68 2 13 2 C13 10.58 13 19.16 13 28 C13.99 28 14.98 28 16 28 C16 28.66 16 29.32 16 30 C10.72 30 5.44 30 0 30 C0.33 29.34 0.66 28.68 1 28 C1.66 28 2.32 28 3 28 C2.89053657 23.70778769 2.75981105 19.4164851 2.625 15.125 C2.5940625 13.90167969 2.563125 12.67835937 2.53125 11.41796875 C2.49257812 10.25136719 2.45390625 9.08476563 2.4140625 7.8828125 C2.3826416 6.80402832 2.3512207 5.72524414 2.31884766 4.61376953 C2.25323678 1.84238346 2.25323678 1.84238346 0 0 Z " fill="#FF8661" transform="translate(161,32)"/>
<path d="M0 0 C2.97 0 5.94 0 9 0 C9 9.24 9 18.48 9 28 C6.03 28 3.06 28 0 28 C0 18.76 0 9.52 0 0 Z " fill="#FF754C" transform="translate(131,33)"/>
<path d="M0 0 C2.64 0 5.28 0 8 0 C8.33 8.58 8.66 17.16 9 26 C9.99 26.33 10.98 26.66 12 27 C12 27.66 12 28.32 12 29 C7.05 29 2.1 29 -3 29 C-3 28.34 -3 27.68 -3 27 C-2.01 27 -1.02 27 0 27 C0 18.09 0 9.18 0 0 Z " fill="#FF744A" transform="translate(209,33)"/>
<path d="M0 0 C2.64 0 5.28 0 8 0 C8 4.29 8 8.58 8 13 C8.99 13.33 9.98 13.66 11 14 C10.01 14 9.02 14 8 14 C8.33 18.62 8.66 23.24 9 28 C6.03 28 3.06 28 0 28 C0 18.76 0 9.52 0 0 Z " fill="#FF6F43" transform="translate(182,33)"/>
<path d="M0 0 C1.15242188 0.10183594 2.30484375 0.20367188 3.4921875 0.30859375 C4.36101563 0.39238281 5.22984375 0.47617187 6.125 0.5625 C6.125 3.8625 6.125 7.1625 6.125 10.5625 C5.465 10.5625 4.805 10.5625 4.125 10.5625 C3.24609375 8.77213542 2.3671875 6.98177083 1.48828125 5.19140625 C-0.07328979 2.98022076 -0.07328979 2.98022076 -4.875 2.5625 C-4.875 6.1925 -4.875 9.8225 -4.875 13.5625 C-4.215 13.8925 -3.555 14.2225 -2.875 14.5625 C-3.865 14.5625 -4.855 14.5625 -5.875 14.5625 C-5.875 10.2725 -5.875 5.9825 -5.875 1.5625 C-8.185 1.5625 -10.495 1.5625 -12.875 1.5625 C-12.875 1.2325 -12.875 0.9025 -12.875 0.5625 C-8.41295824 -0.3529645 -4.52954615 -0.41597873 0 0 Z " fill="#FFBEAA" transform="translate(51.875,31.4375)"/>
<path d="M0 0 C0.33 0 0.66 0 1 0 C1 3.63 1 7.26 1 11 C1.99 11 2.98 11 4 11 C4.66 9.68 5.32 8.36 6 7 C6.66 7 7.32 7 8 7 C8 10.96 8 14.92 8 19 C5 18 5 18 1 14 C1 17.96 1 21.92 1 26 C0.67 26 0.34 26 0 26 C0 17.42 0 8.84 0 0 Z " fill="#FFBAA5" transform="translate(190,34)"/>
<path d="M0 0 C8.25 0 16.5 0 25 0 C25 3.3 25 6.6 25 10 C24.01 10 23.02 10 22 10 C21.649375 8.865625 21.29875 7.73125 20.9375 6.5625 C20.15195049 4.61683146 20.15195049 4.61683146 19 3 C16.359685 2.21352319 14.69652173 2.05149607 12 2 C9.85350517 1.82023106 7.70768416 1.63228677 5.5625 1.4375 C3.70849429 1.28963451 1.85437862 1.14311296 0 1 C0 0.67 0 0.34 0 0 Z " fill="#FF9A7B" transform="translate(178,32)"/>
<path d="M0 0 C0.33 0 0.66 0 1 0 C1 3.96 1 7.92 1 12 C-0.98 12 -2.96 12 -5 12 C-5.33 11.01 -5.66 10.02 -6 9 C-5.566875 8.62875 -5.13375 8.2575 -4.6875 7.875 C-2.53847015 5.48718905 -1.35242016 2.8980432 0 0 Z " fill="#FF9372" transform="translate(202,50)"/>
<path d="M0 0 C0.66 0 1.32 0 2 0 C2.33 3.96 2.66 7.92 3 12 C2.01 12 1.02 12 0 12 C-0.66 10.35 -1.32 8.7 -2 7 C-1.34 7 -0.68 7 0 7 C0 6.01 0 5.02 0 4 C-0.66 3.67 -1.32 3.34 -2 3 C-1.34 2.01 -0.68 1.02 0 0 Z " fill="#FFB199" transform="translate(51,41)"/>
<path d="M0 0 C1.65 0 3.3 0 5 0 C5 2.64 5 5.28 5 8 C2.27573689 5.64722731 1.1858237 3.37503669 0 0 Z " fill="#FF8A67" transform="translate(52,33)"/>
</svg>
