<?xml version="1.0" encoding="UTF-8"?>
<svg version="1.1" xmlns="http://www.w3.org/2000/svg" width="437" height="176">
<path d="M0 0 C1.20619995 0.03951782 1.20619995 0.03951782 2.43676758 0.07983398 C8.43419902 0.39575167 12.73035361 1.73300853 17.375 5.75 C20.51941481 9.47671385 20.45227539 13.42509178 20.41796875 18.09765625 C19.85844654 22.27255274 18.03299555 25.75440167 15.0625 28.75 C14.0725 28.75 13.0825 28.75 12.0625 28.75 C12.0625 29.41 12.0625 30.07 12.0625 30.75 C11.0725 30.75 10.0825 30.75 9.0625 30.75 C9.0625 31.41 9.0625 32.07 9.0625 32.75 C9.805 32.770625 10.5475 32.79125 11.3125 32.8125 C14.75423019 33.98581711 15.61772074 35.68313952 17.21875 38.859375 C19.57859417 44.14717396 20.47149033 49.03690649 21.0625 54.75 C22.3825 54.75 23.7025 54.75 25.0625 54.75 C25.0625 56.07 25.0625 57.39 25.0625 58.75 C20.02902223 61.77008666 16.78569081 62.29506579 11.0625 61.75 C8.2886044 60.54395844 6.66639006 59.66357728 4.99609375 57.13671875 C3.68292391 53.77961928 3.37293829 50.37000697 3 46.8125 C2.5127939 42.4195921 2.01811457 38.07140748 1.0625 33.75 C-0.5875 33.42 -2.2375 33.09 -3.9375 32.75 C-3.9375 40.67 -3.9375 48.59 -3.9375 56.75 C-2.9475 56.75 -1.9575 56.75 -0.9375 56.75 C-0.6075 58.07 -0.2775 59.39 0.0625 60.75 C-10.8275 61.245 -10.8275 61.245 -21.9375 61.75 C-22.2675 60.1 -22.5975 58.45 -22.9375 56.75 C-21.9475 56.75 -20.9575 56.75 -19.9375 56.75 C-19.13003694 51.08933913 -18.789627 45.6160069 -18.8046875 39.90234375 C-18.80373077 39.08681534 -18.80277405 38.27128693 -18.80178833 37.43104553 C-18.80111233 35.71924766 -18.80292581 34.00744714 -18.80712891 32.2956543 C-18.81249241 29.69118446 -18.80716053 27.08688649 -18.80078125 24.48242188 C-18.801442 22.80989546 -18.8027231 21.13736914 -18.8046875 19.46484375 C-18.80266327 18.69486557 -18.80063904 17.92488739 -18.79855347 17.13157654 C-18.8181275 12.57092132 -19.18876126 8.25023954 -19.9375 3.75 C-20.9275 3.42 -21.9175 3.09 -22.9375 2.75 C-22.9375 2.09 -22.9375 1.43 -22.9375 0.75 C-15.24342588 -0.1478722 -7.72930673 -0.33462471 0 0 Z M-1.9375 2.75 C-4.19365026 4.57891377 -4.19365026 4.57891377 -4.16455078 7.27197266 C-4.15407715 8.3088623 -4.14360352 9.34575195 -4.1328125 10.4140625 C-4.12636719 11.53554687 -4.11992187 12.65703125 -4.11328125 13.8125 C-4.09652344 14.988125 -4.07976562 16.16375 -4.0625 17.375 C-4.05347656 18.55835938 -4.04445313 19.74171875 -4.03515625 20.9609375 C-4.01152812 23.89082523 -3.97858514 26.8203134 -3.9375 29.75 C-0.44940809 28.97969878 -0.44940809 28.97969878 3.0625 27.75 C3.97242305 25.02023085 4.19094593 23.39911026 4.1953125 20.58984375 C4.19660156 19.79642578 4.19789063 19.00300781 4.19921875 18.18554688 C4.19535156 17.36119141 4.19148438 16.53683594 4.1875 15.6875 C4.19136719 14.85927734 4.19523437 14.03105469 4.19921875 13.17773438 C4.19792969 12.38560547 4.19664062 11.59347656 4.1953125 10.77734375 C4.19418457 10.05281006 4.19305664 9.32827637 4.19189453 8.58178711 C4.17311361 6.65199545 4.17311361 6.65199545 3.0625 4.75 C2.4025 4.75 1.7425 4.75 1.0625 4.75 C0.7325 4.09 0.4025 3.43 0.0625 2.75 C-0.5975 2.75 -1.2575 2.75 -1.9375 2.75 Z " fill="#FF845F" transform="translate(353.9375,62.25)"/>
<path d="M0 0 C4.55315922 -0.09958121 9.10567152 -0.17179985 13.65966797 -0.21972656 C15.20567887 -0.23972503 16.75161527 -0.26693331 18.29736328 -0.30175781 C34.1179935 -0.64901503 34.1179935 -0.64901503 41 4 C41 4.66 41 5.32 41 6 C41.86625 6.0309375 41.86625 6.0309375 42.75 6.0625 C46.34437419 7.56015591 47.54845431 10.58308713 49 14 C52.64115344 24.88254847 51.16560667 35.20302011 48 46 C47.34 46 46.68 46 46 46 C45.979375 46.721875 45.95875 47.44375 45.9375 48.1875 C44.58569931 52.24290207 41.74251123 54.07971585 38 56 C37.01 56 36.02 56 35 56 C35 56.66 35 57.32 35 58 C33.865625 58.144375 32.73125 58.28875 31.5625 58.4375 C28.19222799 58.61171478 28.19222799 58.61171478 27 60 C22.86636399 60.38470203 18.71042254 60.47027771 14.5625 60.625 C12.80583008 60.70234375 12.80583008 60.70234375 11.01367188 60.78125 C9.89669922 60.82507813 8.77972656 60.86890625 7.62890625 60.9140625 C6.59838135 60.9548291 5.56785645 60.9955957 4.50610352 61.03759766 C2 61 2 61 0 60 C0.375 58.0625 0.375 58.0625 1 56 C1.99 55.505 1.99 55.505 3 55 C3 37.51 3 20.02 3 2 C2.01 2 1.02 2 0 2 C0 1.34 0 0.68 0 0 Z M20 2 C19.11652577 8.11629162 18.81192985 14.0895576 18.76171875 20.265625 C18.753647 21.2214447 18.74557526 22.1772644 18.73725891 23.16204834 C18.72350853 25.16888662 18.71274649 27.1757474 18.70483398 29.18261719 C18.69323713 31.23477023 18.67266619 33.28689135 18.64331055 35.33886719 C18.60080601 38.31466002 18.58449785 41.2895671 18.57421875 44.265625 C18.55671066 45.18232971 18.53920258 46.09903442 18.52116394 47.04351807 C18.49953946 52.18114568 18.49953946 52.18114568 20.90161133 56.60839844 C22.85814781 58.18422825 22.85814781 58.18422825 25 58 C25 57.34 25 56.68 25 56 C25.763125 55.938125 26.52625 55.87625 27.3125 55.8125 C30.16433057 55.25177163 30.16433057 55.25177163 31.5625 52.77734375 C38.54930954 39.27837205 37.30910802 22.47884207 32.875 8.4375 C32.58625 7.633125 32.2975 6.82875 32 6 C31.34 6 30.68 6 30 6 C30 5.34 30 4.68 30 4 C29.01 4 28.02 4 27 4 C27 3.34 27 2.68 27 2 C24.69 2 22.38 2 20 2 Z " fill="#FF855F" transform="translate(206,63)"/>
<path d="M0 0 C2.44571115 2.0694479 4.45147467 4.18390541 6 7 C6 7.99 6 8.98 6 10 C6.66 10 7.32 10 8 10 C10.94318349 22.1841467 11.22181303 31.70937991 8 44 C7.34 44 6.68 44 6 44 C5.814375 44.86625 5.814375 44.86625 5.625 45.75 C4.99351176 48.02335767 4.11141809 49.9253529 3 52 C2.34 52 1.68 52 1 52 C1 52.66 1 53.32 1 54 C-2.08809695 55.76462683 -3.23312136 56 -7 56 C-7 56.66 -7 57.32 -7 58 C-16.83121936 59.63853656 -24.05225092 59.33863992 -32.3828125 53.47265625 C-32.91648437 52.98667969 -33.45015625 52.50070313 -34 52 C-34 51.34 -34 50.68 -34 50 C-34.66 50 -35.32 50 -36 50 C-36.81917642 48.27398621 -37.63006016 46.5440353 -38.4375 44.8125 C-38.88996094 43.84957031 -39.34242187 42.88664062 -39.80859375 41.89453125 C-43.82996078 32.12458708 -42.60051491 21.68709965 -39 12 C-38.34 12 -37.68 12 -37 12 C-36.67 10.02 -36.34 8.04 -36 6 C-35.34 6 -34.68 6 -34 6 C-33.74992187 5.39542969 -33.49984375 4.79085937 -33.2421875 4.16796875 C-31.81214229 1.67213513 -30.57480307 0.77775957 -28.125 -0.6875 C-27.44695312 -1.10386719 -26.76890625 -1.52023438 -26.0703125 -1.94921875 C-17.6707526 -6.2123916 -8.00743159 -4.25085875 0 0 Z M-17 -2 C-17 -1.34 -17 -0.68 -17 0 C-17.99 0 -18.98 0 -20 0 C-28.39942349 11.77778939 -27.09703898 30.25071834 -25 44 C-24.37886839 46.01460665 -23.72401561 48.02003893 -23 50 C-22.34 50 -21.68 50 -21 50 C-20.87625 50.61875 -20.7525 51.2375 -20.625 51.875 C-20.12802644 54.19120832 -20.12802644 54.19120832 -18 56 C-14.26703674 56.38286803 -13.22373677 56.14915785 -10 54 C-9.26656572 50.93443402 -9.26656572 50.93443402 -9 48 C-8.34 48 -7.68 48 -7 48 C-5.24578159 41.20588425 -4.69196482 35.00291198 -4.75 28 C-4.74226563 27.06671875 -4.73453125 26.1334375 -4.7265625 25.171875 C-4.74337198 19.15408092 -5.49531978 13.82765036 -7 8 C-7.66 8 -8.32 8 -9 8 C-9.33 6.02 -9.66 4.04 -10 2 C-10.66 2 -11.32 2 -12 2 C-12 1.34 -12 0.68 -12 0 C-14.475 -0.99 -14.475 -0.99 -17 -2 Z " fill="#FF815B" transform="translate(137,65)"/>
<path d="M0 0 C5.79384737 3.87623771 9.81854216 8.32123964 12 15 C12.58384408 19.30490579 12.60465068 23.5359596 12.5625 27.875 C12.59827148 29.55529297 12.59827148 29.55529297 12.63476562 31.26953125 C12.62176903 38.69492121 11.54842977 44.93163594 7 51 C6.01 51.33 5.02 51.66 4 52 C3.67 52.99 3.34 53.98 3 55 C2.34 55 1.68 55 1 55 C1 55.66 1 56.32 1 57 C-5.75369607 60.06640609 -13.71186078 61.00132011 -20.9609375 59.30859375 C-27.40639201 56.84073955 -32.17418554 54.13822665 -35.1875 47.75 C-40.60761788 34.29845239 -39.79154877 22.11079671 -34.6875 8.5 C-32.48252102 5.23336447 -30.19659398 3.31242969 -27 1 C-26.34 1 -25.68 1 -25 1 C-25 0.34 -25 -0.32 -25 -1 C-16.1351384 -3.5328176 -8.45309487 -4.16016188 0 0 Z M-17 1 C-24.42077498 11.4914405 -25.36998952 26.1617953 -23.2734375 38.50390625 C-22.96143573 40.12922158 -22.64106338 41.75295156 -22.3125 43.375 C-22.16417725 44.14884033 -22.01585449 44.92268066 -21.86303711 45.7199707 C-20.72833457 50.80811657 -19.21062875 53.64066478 -15 57 C-12.5 57.91666667 -12.5 57.91666667 -10 57 C-2.3768652 49.28318613 -1.89578626 38.30615751 -1.625 27.875 C-1.83962076 19.7194112 -2.36821054 9.98850597 -7.25 3.125 C-10.71067234 0.4508441 -12.72871899 0.49749635 -17 1 Z " fill="#FF845E" transform="translate(190,64)"/>
<path d="M0 0 C-0.33 6.6 -0.66 13.2 -1 20 C-1.99 19.67 -2.98 19.34 -4 19 C-4.495 13.555 -4.495 13.555 -5 8 C-5.66 8 -6.32 8 -7 8 C-7 7.34 -7 6.68 -7 6 C-7.66 6 -8.32 6 -9 6 C-9 5.34 -9 4.68 -9 4 C-12.99032841 3.39735687 -12.99032841 3.39735687 -17 3 C-18.68300669 4.68300669 -18.22809077 6.82008727 -18.31640625 9.12890625 C-18.35830078 10.16337891 -18.40019531 11.19785156 -18.44335938 12.26367188 C-18.48267578 13.35228516 -18.52199219 14.44089844 -18.5625 15.5625 C-18.60568359 16.65498047 -18.64886719 17.74746094 -18.69335938 18.87304688 C-18.79982068 21.58189564 -18.90183516 24.29083992 -19 27 C-13.94877233 24.72078751 -12.08739495 23.21848737 -10 18 C-9.01 18 -8.02 18 -7 18 C-7 25.92 -7 33.84 -7 42 C-7.99 42 -8.98 42 -10 42 C-11.485 37.545 -11.485 37.545 -13 33 C-14.65 32.67 -16.3 32.34 -18 32 C-18 39.59 -18 47.18 -18 55 C-15.03 55.33 -12.06 55.66 -9 56 C-9 55.34 -9 54.68 -9 54 C-8.34 54 -7.68 54 -7 54 C-7 53.34 -7 52.68 -7 52 C-6.34 52 -5.68 52 -5 52 C-4.896875 51.195625 -4.79375 50.39125 -4.6875 49.5625 C-3.84899627 45.21752614 -2.47178341 41.16542473 -1 37 C-0.34 37 0.32 37 1 37 C1 44.59 1 52.18 1 60 C-11.87 60 -24.74 60 -38 60 C-38 58.68 -38 57.36 -38 56 C-36.68 56 -35.36 56 -34 56 C-34.33 38.84 -34.66 21.68 -35 4 C-36.32 3.34 -37.64 2.68 -39 2 C-39 1.34 -39 0.68 -39 0 C-9.03225806 -1.80645161 -9.03225806 -1.80645161 0 0 Z " fill="#FF6F43" transform="translate(325,63)"/>
<path d="M0 0 C1.06154297 -0.00386719 2.12308594 -0.00773437 3.21679688 -0.01171875 C4.22419922 -0.01042969 5.23160156 -0.00914063 6.26953125 -0.0078125 C7.18968018 -0.00668457 8.1098291 -0.00555664 9.05786133 -0.00439453 C11.1875 0.125 11.1875 0.125 12.1875 1.125 C12.27419432 2.6137186 12.29453494 4.106445 12.28515625 5.59765625 C12.28193359 6.49677734 12.27871094 7.39589844 12.27539062 8.32226562 C12.26282227 9.74055664 12.26282227 9.74055664 12.25 11.1875 C12.24548828 12.13689453 12.24097656 13.08628906 12.23632812 14.06445312 C12.2245011 16.41803065 12.20802025 18.77148477 12.1875 21.125 C10.8675 20.795 9.5475 20.465 8.1875 20.125 C7.99414062 19.37734375 7.80078125 18.6296875 7.6015625 17.859375 C7.21097656 16.38210937 7.21097656 16.38210937 6.8125 14.875 C6.55726562 13.90046875 6.30203125 12.9259375 6.0390625 11.921875 C4.95806672 8.35718424 4.95806672 8.35718424 3.1875 5.125 C1.00208448 4.4256486 1.00208448 4.4256486 -1.4375 4.375 C-2.66339844 4.28992188 -2.66339844 4.28992188 -3.9140625 4.203125 C-4.54054688 4.17734375 -5.16703125 4.1515625 -5.8125 4.125 C-5.80464478 5.10895752 -5.80464478 5.10895752 -5.79663086 6.11279297 C-5.77588728 9.07518563 -5.76284824 12.03756303 -5.75 15 C-5.74162109 16.03253906 -5.73324219 17.06507812 -5.72460938 18.12890625 C-5.71977539 19.60810547 -5.71977539 19.60810547 -5.71484375 21.1171875 C-5.70698853 22.48399658 -5.70698853 22.48399658 -5.69897461 23.87841797 C-5.8125 26.125 -5.8125 26.125 -6.8125 28.125 C-5.1625 27.795 -3.5125 27.465 -1.8125 27.125 C-1.4825 25.805 -1.1525 24.485 -0.8125 23.125 C-0.1525 23.125 0.5075 23.125 1.1875 23.125 C1.5175 21.805 1.8475 20.485 2.1875 19.125 C2.8475 19.125 3.5075 19.125 4.1875 19.125 C4.1875 27.045 4.1875 34.965 4.1875 43.125 C3.8575 42.465 3.5275 41.805 3.1875 41.125 C2.5275 41.125 1.8675 41.125 1.1875 41.125 C1.1875 39.805 1.1875 38.485 1.1875 37.125 C0.5275 37.125 -0.1325 37.125 -0.8125 37.125 C-1.1425 35.805 -1.4725 34.485 -1.8125 33.125 C-3.4625 33.125 -5.1125 33.125 -6.8125 33.125 C-6.56693359 34.58099609 -6.56693359 34.58099609 -6.31640625 36.06640625 C-5.69621159 40.40776888 -5.70123583 44.68497771 -5.75 49.0625 C-5.75451172 49.84173828 -5.75902344 50.62097656 -5.76367188 51.42382812 C-5.77533092 53.32425268 -5.79326123 55.22463706 -5.8125 57.125 C-4.1625 57.125 -2.5125 57.125 -0.8125 57.125 C-0.1525 58.445 0.5075 59.765 1.1875 61.125 C-4.49848934 62.41727031 -9.92053482 62.02742274 -15.6875 61.6875 C-16.66203125 61.63529297 -17.6365625 61.58308594 -18.640625 61.52929688 C-21.03163402 61.40036992 -23.42214426 61.26544056 -25.8125 61.125 C-25.4825 59.805 -25.1525 58.485 -24.8125 57.125 C-24.1525 57.125 -23.4925 57.125 -22.8125 57.125 C-22.81472061 56.56203217 -22.81694122 55.99906433 -22.81922913 55.41903687 C-22.84139554 49.54645422 -22.85645397 43.67388352 -22.86743164 37.80126953 C-22.8724526 35.61116045 -22.87927066 33.42105471 -22.88793945 31.23095703 C-22.90010304 28.07844212 -22.90575077 24.92597164 -22.91015625 21.7734375 C-22.91531754 20.79821136 -22.92047882 19.82298523 -22.92579651 18.81820679 C-22.92618069 14.13619181 -22.78676071 9.72998316 -21.8125 5.125 C-21.1525 5.125 -20.4925 5.125 -19.8125 5.125 C-19.8125 4.465 -19.8125 3.805 -19.8125 3.125 C-19.1525 3.125 -18.4925 3.125 -17.8125 3.125 C-17.8125 2.465 -17.8125 1.805 -17.8125 1.125 C-11.8970974 -0.16228969 -6.02034121 -0.02233893 0 0 Z " fill="#FF6F43" transform="translate(80.8125,61.875)"/>
<path d="M0 0 C7.92 0 15.84 0 24 0 C24 0.66 24 1.32 24 2 C22.02 2.99 22.02 2.99 20 4 C19.67 21.16 19.34 38.32 19 56 C20.32 56 21.64 56 23 56 C23.33 57.32 23.66 58.64 24 60 C16.08 60.33 8.16 60.66 0 61 C-0.33 60.34 -0.66 59.68 -1 59 C-0.67 58.01 -0.34 57.02 0 56 C0.99 56 1.98 56 3 56 C3.07594813 48.79181655 3.12855678 41.58373595 3.16479492 34.37524414 C3.17989881 31.92207992 3.20038321 29.46894276 3.22631836 27.01586914 C3.26263057 23.49358445 3.27971036 19.97165619 3.29296875 16.44921875 C3.30845261 15.34913986 3.32393646 14.24906097 3.33988953 13.11564636 C3.34011612 12.09481461 3.34034271 11.07398285 3.34057617 10.0222168 C3.35056892 8.67319527 3.35056892 8.67319527 3.36076355 7.29692078 C2.92758793 4.53896455 2.04095643 3.8096274 0 2 C0 1.34 0 0.68 0 0 Z " fill="#FF6F43" transform="translate(260,63)"/>
<path d="M0 0 C4.95 0 9.9 0 15 0 C15.78528217 5.54103521 16.14824443 10.8961273 16.1328125 16.48828125 C16.13424759 17.66404976 16.13424759 17.66404976 16.13571167 18.86357117 C16.13638774 20.51150595 16.13457376 22.15944348 16.13037109 23.80737305 C16.12503651 26.29547281 16.13032452 28.78339029 16.13671875 31.27148438 C16.13983497 39.57964772 15.93928418 47.73280826 15 56 C10.05 56 5.1 56 0 56 C0 37.52 0 19.04 0 0 Z " fill="#FF7B53" transform="translate(210,65)"/>
<path d="M0 0 C4.29 0 8.58 0 13 0 C13 17.82 13 35.64 13 54 C14.32 54 15.64 54 17 54 C17.33 55.32 17.66 56.64 18 58 C7.11 58.495 7.11 58.495 -4 59 C-4.33 57.35 -4.66 55.7 -5 54 C-4.01 54 -3.02 54 -2 54 C-0.59015883 45.4748667 -0.93588094 36.89835065 -1.02050781 28.28857422 C-1.1055175 18.78762259 -0.79294401 9.47815889 0 0 Z " fill="#FF764C" transform="translate(336,65)"/>
<path d="M0 0 C1.06154297 -0.00386719 2.12308594 -0.00773437 3.21679688 -0.01171875 C4.22419922 -0.01042969 5.23160156 -0.00914063 6.26953125 -0.0078125 C7.18968018 -0.00668457 8.1098291 -0.00555664 9.05786133 -0.00439453 C11.1875 0.125 11.1875 0.125 12.1875 1.125 C12.27419432 2.6137186 12.29453494 4.106445 12.28515625 5.59765625 C12.28193359 6.49677734 12.27871094 7.39589844 12.27539062 8.32226562 C12.26701172 9.26779297 12.25863281 10.21332031 12.25 11.1875 C12.24548828 12.13689453 12.24097656 13.08628906 12.23632812 14.06445312 C12.2245011 16.41803065 12.20802025 18.77148477 12.1875 21.125 C10.8675 20.795 9.5475 20.465 8.1875 20.125 C7.99414062 19.37734375 7.80078125 18.6296875 7.6015625 17.859375 C7.21097656 16.38210937 7.21097656 16.38210937 6.8125 14.875 C6.55726562 13.90046875 6.30203125 12.9259375 6.0390625 11.921875 C4.95806672 8.35718424 4.95806672 8.35718424 3.1875 5.125 C1.00208448 4.4256486 1.00208448 4.4256486 -1.4375 4.375 C-2.66339844 4.28992188 -2.66339844 4.28992188 -3.9140625 4.203125 C-4.54054688 4.17734375 -5.16703125 4.1515625 -5.8125 4.125 C-5.80726318 4.78097168 -5.80202637 5.43694336 -5.79663086 6.11279297 C-5.77588728 9.07518563 -5.76284824 12.03756303 -5.75 15 C-5.74162109 16.03253906 -5.73324219 17.06507812 -5.72460938 18.12890625 C-5.72138672 19.11503906 -5.71816406 20.10117188 -5.71484375 21.1171875 C-5.70960693 22.02839355 -5.70437012 22.93959961 -5.69897461 23.87841797 C-5.8125 26.125 -5.8125 26.125 -6.8125 28.125 C-5.1625 27.795 -3.5125 27.465 -1.8125 27.125 C-1.4825 25.805 -1.1525 24.485 -0.8125 23.125 C-0.1525 23.125 0.5075 23.125 1.1875 23.125 C1.5175 21.805 1.8475 20.485 2.1875 19.125 C2.8475 19.125 3.5075 19.125 4.1875 19.125 C4.1875 27.045 4.1875 34.965 4.1875 43.125 C3.8575 42.465 3.5275 41.805 3.1875 41.125 C2.5275 41.125 1.8675 41.125 1.1875 41.125 C1.1875 39.805 1.1875 38.485 1.1875 37.125 C0.5275 37.125 -0.1325 37.125 -0.8125 37.125 C-1.1425 35.805 -1.4725 34.485 -1.8125 33.125 C-3.4625 33.125 -5.1125 33.125 -6.8125 33.125 C-6.64878906 34.09566406 -6.48507813 35.06632812 -6.31640625 36.06640625 C-5.69621159 40.40776888 -5.70123583 44.68497771 -5.75 49.0625 C-5.75451172 49.84173828 -5.75902344 50.62097656 -5.76367188 51.42382812 C-5.77533092 53.32425268 -5.79326123 55.22463706 -5.8125 57.125 C-6.1425 56.465 -6.4725 55.805 -6.8125 55.125 C-7.4725 55.125 -8.1325 55.125 -8.8125 55.125 C-8.8125 47.205 -8.8125 39.285 -8.8125 31.125 C-7.8225 31.125 -6.8325 31.125 -5.8125 31.125 C-5.8125 30.465 -5.8125 29.805 -5.8125 29.125 C-6.8025 29.125 -7.7925 29.125 -8.8125 29.125 C-8.8125 21.205 -8.8125 13.285 -8.8125 5.125 C-8.1525 5.125 -7.4925 5.125 -6.8125 5.125 C-6.8125 4.465 -6.8125 3.805 -6.8125 3.125 C-10.4425 3.125 -14.0725 3.125 -17.8125 3.125 C-17.8125 2.465 -17.8125 1.805 -17.8125 1.125 C-11.8970974 -0.16228969 -6.02034121 -0.02233893 0 0 Z " fill="#FFBBA6" transform="translate(80.8125,61.875)"/>
<path d="M0 0 C-0.33 6.6 -0.66 13.2 -1 20 C-1.99 19.67 -2.98 19.34 -4 19 C-4.495 13.555 -4.495 13.555 -5 8 C-5.66 8 -6.32 8 -7 8 C-7 7.34 -7 6.68 -7 6 C-7.66 6 -8.32 6 -9 6 C-9 5.34 -9 4.68 -9 4 C-12.99032841 3.39735687 -12.99032841 3.39735687 -17 3 C-18.68300669 4.68300669 -18.22809077 6.82008727 -18.31640625 9.12890625 C-18.35830078 10.16337891 -18.40019531 11.19785156 -18.44335938 12.26367188 C-18.48267578 13.35228516 -18.52199219 14.44089844 -18.5625 15.5625 C-18.60568359 16.65498047 -18.64886719 17.74746094 -18.69335938 18.87304688 C-18.79982068 21.58189564 -18.90183516 24.29083992 -19 27 C-13.94877233 24.72078751 -12.08739495 23.21848737 -10 18 C-9.01 18 -8.02 18 -7 18 C-7 25.92 -7 33.84 -7 42 C-7.99 42 -8.98 42 -10 42 C-11.485 37.545 -11.485 37.545 -13 33 C-14.65 32.67 -16.3 32.34 -18 32 C-18 39.92 -18 47.84 -18 56 C-18.66 56 -19.32 56 -20 56 C-20 38.18 -20 20.36 -20 2 C-24.29 2 -28.58 2 -33 2 C-33 19.82 -33 37.64 -33 56 C-33.33 56 -33.66 56 -34 56 C-34.33 38.84 -34.66 21.68 -35 4 C-36.32 3.34 -37.64 2.68 -39 2 C-39 1.34 -39 0.68 -39 0 C-9.03225806 -1.80645161 -9.03225806 -1.80645161 0 0 Z " fill="#FFC2B0" transform="translate(325,63)"/>
<path d="M0 0 C0.66 0 1.32 0 2 0 C2 7.59 2 15.18 2 23 C-10.87 23 -23.74 23 -37 23 C-37 21.68 -37 20.36 -37 19 C-35.68 19 -34.36 19 -33 19 C-33 19.66 -33 20.32 -33 21 C-27.72 21 -22.44 21 -17 21 C-17 20.34 -17 19.68 -17 19 C-14.03 19 -11.06 19 -8 19 C-8 18.34 -8 17.68 -8 17 C-7.34 17 -6.68 17 -6 17 C-6 16.34 -6 15.68 -6 15 C-5.34 15 -4.68 15 -4 15 C-3.896875 14.195625 -3.79375 13.39125 -3.6875 12.5625 C-2.84899627 8.21752614 -1.47178341 4.16542473 0 0 Z " fill="#FF8A67" transform="translate(324,100)"/>
<path d="M0 0 C0.99 0.33 1.98 0.66 3 1 C2.67 1.33 2.34 1.66 2 2 C1.84259395 3.70563778 1.74906608 5.41727244 1.68359375 7.12890625 C1.64169922 8.16337891 1.59980469 9.19785156 1.55664062 10.26367188 C1.51732422 11.35228516 1.47800781 12.44089844 1.4375 13.5625 C1.39431641 14.65498047 1.35113281 15.74746094 1.30664062 16.87304688 C1.20017932 19.58189564 1.09816484 22.29083992 1 25 C6.05122767 22.72078751 7.91260505 21.21848737 10 16 C10.99 16 11.98 16 13 16 C13 23.92 13 31.84 13 40 C12.01 40 11.02 40 10 40 C9.01 37.03 8.02 34.06 7 31 C5.35 30.67 3.7 30.34 2 30 C2 37.92 2 45.84 2 54 C1.34 54 0.68 54 0 54 C0 36.18 0 18.36 0 0 Z " fill="#FFB59E" transform="translate(305,65)"/>
<path d="M0 0 C0.66 0 1.32 0 2 0 C2 7.92 2 15.84 2 24 C1.67 23.34 1.34 22.68 1 22 C0.34 22 -0.32 22 -1 22 C-1 20.68 -1 19.36 -1 18 C-1.66 18 -2.32 18 -3 18 C-3.33 16.68 -3.66 15.36 -4 14 C-5.65 14 -7.3 14 -9 14 C-8.83628906 14.97066406 -8.67257813 15.94132812 -8.50390625 16.94140625 C-7.88371159 21.28276888 -7.88873583 25.55997771 -7.9375 29.9375 C-7.94201172 30.71673828 -7.94652344 31.49597656 -7.95117188 32.29882812 C-7.96283092 34.19925268 -7.98076123 36.09963706 -8 38 C-8.33 37.34 -8.66 36.68 -9 36 C-9.66 36 -10.32 36 -11 36 C-11 28.08 -11 20.16 -11 12 C-10.01 12 -9.02 12 -8 12 C-8 11.34 -8 10.68 -8 10 C-6.68 10 -5.36 10 -4 10 C-3.67 8.02 -3.34 6.04 -3 4 C-2.34 4 -1.68 4 -1 4 C-0.67 2.68 -0.34 1.36 0 0 Z " fill="#FF845F" transform="translate(83,81)"/>
<path d="M0 0 C1.25647339 0.05208618 1.25647339 0.05208618 2.53833008 0.10522461 C8.56733421 0.44233421 8.56733421 0.44233421 10.8125 2.6875 C8.1725 2.6875 5.5325 2.6875 2.8125 2.6875 C2.8125 3.3475 2.8125 4.0075 2.8125 4.6875 C2.008125 4.501875 1.20375 4.31625 0.375 4.125 C-0.8934375 3.9084375 -0.8934375 3.9084375 -2.1875 3.6875 C-3.93256615 5.43256615 -3.42032784 7.87789143 -3.50390625 10.25390625 C-3.54580078 11.37861328 -3.58769531 12.50332031 -3.63085938 13.66210938 C-3.67017578 14.84611328 -3.70949219 16.03011719 -3.75 17.25 C-3.79318359 18.43787109 -3.83636719 19.62574219 -3.88085938 20.84960938 C-3.98733546 23.79544784 -4.08934841 26.7413743 -4.1875 29.6875 C-2.5375 29.3575 -0.8875 29.0275 0.8125 28.6875 C0.8125 30.0075 0.8125 31.3275 0.8125 32.6875 C1.4725 32.6875 2.1325 32.6875 2.8125 32.6875 C2.8125 34.6675 2.8125 36.6475 2.8125 38.6875 C2.1525 38.0275 1.4925 37.3675 0.8125 36.6875 C0.8125 35.6975 0.8125 34.7075 0.8125 33.6875 C-0.8375 33.3575 -2.4875 33.0275 -4.1875 32.6875 C-4.1875 40.6075 -4.1875 48.5275 -4.1875 56.6875 C-4.5175 56.6875 -4.8475 56.6875 -5.1875 56.6875 C-5.1875 38.8675 -5.1875 21.0475 -5.1875 2.6875 C-9.4775 2.6875 -13.7675 2.6875 -18.1875 2.6875 C-18.1875 5.3275 -18.1875 7.9675 -18.1875 10.6875 C-18.5175 10.6875 -18.8475 10.6875 -19.1875 10.6875 C-19.5175 8.3775 -19.8475 6.0675 -20.1875 3.6875 C-21.1775 3.3575 -22.1675 3.0275 -23.1875 2.6875 C-23.1875 2.0275 -23.1875 1.3675 -23.1875 0.6875 C-15.39568045 -0.22177876 -7.82504553 -0.37311574 0 0 Z " fill="#FFDED4" transform="translate(354.1875,62.3125)"/>
<path d="M0 0 C7.92 0 15.84 0 24 0 C24 0.66 24 1.32 24 2 C22.02 2.99 22.02 2.99 20 4 C19.67 21.16 19.34 38.32 19 56 C18.67 56 18.34 56 18 56 C18 38.18 18 20.36 18 2 C13.71 2 9.42 2 5 2 C5 19.82 5 37.64 5 56 C4.34 56 3.68 56 3 56 C3.00666183 55.36772995 3.01332367 54.7354599 3.02018738 54.08403015 C3.08646147 47.51448645 3.13176761 40.94503741 3.16479492 34.37524414 C3.17989881 31.92207992 3.20038321 29.46894276 3.22631836 27.01586914 C3.26263057 23.49358445 3.27971036 19.97165619 3.29296875 16.44921875 C3.30845261 15.34913986 3.32393646 14.24906097 3.33988953 13.11564636 C3.34011612 12.09481461 3.34034271 11.07398285 3.34057617 10.0222168 C3.34723801 9.12286911 3.35389984 8.22352142 3.36076355 7.29692078 C2.92758793 4.53896455 2.04095643 3.8096274 0 2 C0 1.34 0 0.68 0 0 Z " fill="#FFD1C3" transform="translate(260,63)"/>
<path d="M0 0 C0.66 0 1.32 0 2 0 C2 1.32 2 2.64 2 4 C1.34 4 0.68 4 0 4 C0 19.84 0 35.68 0 52 C-0.66 52 -1.32 52 -2 52 C-2.89902876 49.30291372 -3.12626726 47.75664642 -3.12939453 44.9909668 C-3.13254669 44.18970871 -3.13569885 43.38845062 -3.13894653 42.56291199 C-3.1369223 41.70039322 -3.13489807 40.83787445 -3.1328125 39.94921875 C-3.13376923 39.05765579 -3.13472595 38.16609283 -3.13571167 37.24751282 C-3.13639225 35.36040171 -3.13454646 33.47328825 -3.13037109 31.58618164 C-3.12504001 28.70909299 -3.13031044 25.83216179 -3.13671875 22.95507812 C-3.13605758 21.11979132 -3.1347756 19.28450462 -3.1328125 17.44921875 C-3.13483673 16.59277267 -3.13686096 15.7363266 -3.13894653 14.85392761 C-3.12184587 10.45575068 -2.88371065 6.3303577 -2 2 C-1.34 2 -0.68 2 0 2 C0 1.34 0 0.68 0 0 Z " fill="#FFB199" transform="translate(61,65)"/>
<path d="M0 0 C0.66 0 1.32 0 2 0 C3.14508298 4.10696133 3.14390558 8.07244287 3.1328125 12.30859375 C3.13376923 13.11232925 3.13472595 13.91606476 3.13571167 14.74415588 C3.13639104 16.44117308 3.1345537 18.1381929 3.13037109 19.83520508 C3.12502642 22.42470173 3.13032069 25.0140244 3.13671875 27.60351562 C3.13605779 29.25520871 3.13477625 30.9069017 3.1328125 32.55859375 C3.13483673 33.32956894 3.13686096 34.10054413 3.13894653 34.8948822 C3.12236846 38.72089455 2.9271593 42.28077458 2 46 C1.34 46 0.68 46 0 46 C0 30.82 0 15.64 0 0 Z " fill="#FFA285" transform="translate(223,69)"/>
<path d="M0 0 C2.64 0.33 5.28 0.66 8 1 C7.67 7.6 7.34 14.2 7 21 C6.01 20.67 5.02 20.34 4 20 C3.67 16.37 3.34 12.74 3 9 C2.34 9 1.68 9 1 9 C1 8.34 1 7.68 1 7 C0.34 7 -0.32 7 -1 7 C-1.04254356 5.00045254 -1.04080783 2.99958364 -1 1 C-0.67 0.67 -0.34 0.34 0 0 Z " fill="#FF997A" transform="translate(317,62)"/>
<path d="M0 0 C1.125 3.75 1.125 3.75 0 6 C0.99 6 1.98 6 3 6 C3 6.66 3 7.32 3 8 C1.2984375 8.2165625 1.2984375 8.2165625 -0.4375 8.4375 C-3.80777201 8.61171478 -3.80777201 8.61171478 -5 10 C-9.13363601 10.38470203 -13.28957746 10.47027771 -17.4375 10.625 C-18.60861328 10.6765625 -19.77972656 10.728125 -20.98632812 10.78125 C-22.10330078 10.82507813 -23.22027344 10.86890625 -24.37109375 10.9140625 C-25.9168811 10.9752124 -25.9168811 10.9752124 -27.49389648 11.03759766 C-30 11 -30 11 -32 10 C-31.6875 8.0625 -31.6875 8.0625 -31 6 C-30.01 5.67 -29.02 5.34 -28 5 C-28 5.99 -28 6.98 -28 8 C-23.05 8 -18.1 8 -13 8 C-12.67 6.68 -12.34 5.36 -12 4 C-11.319375 4.7115625 -11.319375 4.7115625 -10.625 5.4375 C-9.06741796 7.09027808 -9.06741796 7.09027808 -7 8 C-7 7.34 -7 6.68 -7 6 C-6.030625 5.566875 -5.06125 5.13375 -4.0625 4.6875 C-0.72268235 3.2985139 -0.72268235 3.2985139 0 0 Z " fill="#FFD1C4" transform="translate(238,113)"/>
<path d="M0 0 C1.32 0 2.64 0 4 0 C4 0.66 4 1.32 4 2 C9.28 2 14.56 2 20 2 C20 1.34 20 0.68 20 0 C22.64 0 25.28 0 28 0 C28 0.66 28 1.32 28 2 C31.63 2 35.26 2 39 2 C39 2.66 39 3.32 39 4 C26.13 4 13.26 4 0 4 C0 2.68 0 1.36 0 0 Z " fill="#FFCCBD" transform="translate(287,119)"/>
<path d="M0 0 C4.66307014 -0.04937279 9.32598873 -0.08570627 13.98925781 -0.10986328 C15.57619883 -0.11993188 17.16312125 -0.13358767 18.75 -0.15087891 C21.02869247 -0.17509001 23.30714006 -0.18647422 25.5859375 -0.1953125 C26.29744965 -0.20563507 27.00896179 -0.21595764 27.74203491 -0.22659302 C29.49631665 -0.22699422 31.24996709 -0.12202209 33 0 C33.66 0.66 34.32 1.32 35 2 C33.35 2 31.7 2 30 2 C30 2.66 30 3.32 30 4 C29.01 4 28.02 4 27 4 C27 3.34 27 2.68 27 2 C24.69 2 22.38 2 20 2 C19.67 3.32 19.34 4.64 19 6 C19 4.68 19 3.36 19 2 C14.05 2 9.1 2 4 2 C3.67 2.66 3.34 3.32 3 4 C3 3.34 3 2.68 3 2 C2.01 2 1.02 2 0 2 C0 1.34 0 0.68 0 0 Z " fill="#FFA083" transform="translate(206,63)"/>
<path d="M0 0 C0.33 1.32 0.66 2.64 1 4 C6.28 4 11.56 4 17 4 C17 3.34 17 2.68 17 2 C18.65 2 20.3 2 22 2 C22.66 3.32 23.32 4.64 24 6 C18.31401066 7.29227031 12.89196518 6.90242274 7.125 6.5625 C6.15046875 6.51029297 5.1759375 6.45808594 4.171875 6.40429688 C1.78086598 6.27536992 -0.60964426 6.14044056 -3 6 C-2.67 4.68 -2.34 3.36 -2 2 C-1.34 2 -0.68 2 0 2 C0 1.34 0 0.68 0 0 Z " fill="#FFD5C8" transform="translate(58,117)"/>
<path d="M0 0 C2.64 0 5.28 0 8 0 C8 5.28 8 10.56 8 16 C7.34 16 6.68 16 6 16 C6 14.02 6 12.04 6 10 C5.01 10 4.02 10 3 10 C1.5783681 6.6828589 0.60990891 3.55780196 0 0 Z " fill="#FF815B" transform="translate(84,65)"/>
<path d="M0 0 C0.99 0 1.98 0 3 0 C3 0.66 3 1.32 3 2 C8.28 2 13.56 2 19 2 C19 1.34 19 0.68 19 0 C20.32 0 21.64 0 23 0 C23.33 1.32 23.66 2.64 24 4 C16.08 4.33 8.16 4.66 0 5 C-0.33 4.34 -0.66 3.68 -1 3 C-0.67 2.01 -0.34 1.02 0 0 Z " fill="#FFCEBF" transform="translate(260,119)"/>
<path d="M0 0 C2.31 0 4.62 0 7 0 C7 0.66 7 1.32 7 2 C5.35 2 3.7 2 2 2 C2.24556641 3.45599609 2.24556641 3.45599609 2.49609375 4.94140625 C3.11628841 9.28276888 3.11126417 13.55997771 3.0625 17.9375 C3.05798828 18.71673828 3.05347656 19.49597656 3.04882812 20.29882812 C3.03716908 22.19925268 3.01923877 24.09963706 3 26 C2.67 25.34 2.34 24.68 2 24 C1.34 24 0.68 24 0 24 C0 16.08 0 8.16 0 0 Z " fill="#FFA58A" transform="translate(72,93)"/>
<path d="M0 0 C0.66 0 1.32 0 2 0 C2.19635974 3.45789054 2.38058252 6.91632197 2.5625 10.375 C2.61857422 11.35984375 2.67464844 12.3446875 2.73242188 13.359375 C2.78076172 14.30039063 2.82910156 15.24140625 2.87890625 16.2109375 C2.9260376 17.08024902 2.97316895 17.94956055 3.02172852 18.84521484 C3 21 3 21 2 23 C3.65 22.67 5.3 22.34 7 22 C7 22.66 7 23.32 7 24 C4.69 24 2.38 24 0 24 C0 16.08 0 8.16 0 0 Z " fill="#FFA88E" transform="translate(72,67)"/>
<path d="M0 0 C0.99 0 1.98 0 3 0 C3 0.66 3 1.32 3 2 C8.28 2 13.56 2 19 2 C19 1.34 19 0.68 19 0 C19.99 0 20.98 0 22 0 C22.33 1.32 22.66 2.64 23 4 C12.11 4.495 12.11 4.495 1 5 C0.67 3.35 0.34 1.7 0 0 Z " fill="#FFCEBF" transform="translate(331,119)"/>
<path d="M0 0 C0.33 0 0.66 0 1 0 C1 9.9 1 19.8 1 30 C0.67 30 0.34 30 0 30 C0 28.02 0 26.04 0 24 C-0.66 24 -1.32 24 -2 24 C-2 19.38 -2 14.76 -2 10 C-1.34 10 -0.68 10 0 10 C0 6.7 0 3.4 0 0 Z " fill="#FFD2C4" transform="translate(111,77)"/>
<path d="M0 0 C5.94 0 11.88 0 18 0 C18 0.66 18 1.32 18 2 C13.71 2 9.42 2 5 2 C5 4.64 5 7.28 5 10 C4.67 10 4.34 10 4 10 C3.67 7.69 3.34 5.38 3 3 C2.01 2.67 1.02 2.34 0 2 C0 1.34 0 0.68 0 0 Z " fill="#FFA68B" transform="translate(331,63)"/>
<path d="M0 0 C3.1257396 0.10962816 6.25024781 0.24031241 9.375 0.375 C10.26445312 0.4059375 11.15390625 0.436875 12.0703125 0.46875 C12.92109375 0.50742187 13.771875 0.54609375 14.6484375 0.5859375 C15.43395996 0.6173584 16.21948242 0.6487793 17.02880859 0.68115234 C19 1 19 1 21 3 C18.36 3 15.72 3 13 3 C13 3.66 13 4.32 13 5 C12.236875 4.814375 11.47375 4.62875 10.6875 4.4375 C7.91032625 3.77180827 7.91032625 3.77180827 5 5 C5 3.68 5 2.36 5 1 C3.35 1 1.7 1 0 1 C0 0.67 0 0.34 0 0 Z " fill="#FFBFAC" transform="translate(344,62)"/>
<path d="M0 0 C0.33 1.32 0.66 2.64 1 4 C0.34 4 -0.32 4 -1 4 C-1 4.66 -1 5.32 -1 6 C0.65 6 2.3 6 4 6 C1.50494038 8.49505962 0.32671112 8.35948376 -3.125 8.625 C-4.03507813 8.69976562 -4.94515625 8.77453125 -5.8828125 8.8515625 C-6.93082031 8.92503906 -6.93082031 8.92503906 -8 9 C-8.33 8.01 -8.66 7.02 -9 6 C-7.35 6 -5.7 6 -4 6 C-3.67 5.01 -3.34 4.02 -3 3 C-2.34 3 -1.68 3 -1 3 C-0.67 2.01 -0.34 1.02 0 0 Z " fill="#FFAE96" transform="translate(184,115)"/>
<path d="M0 0 C0.66 0 1.32 0 2 0 C2 7.92 2 15.84 2 24 C1.67 23.34 1.34 22.68 1 22 C0.34 22 -0.32 22 -1 22 C-1 20.68 -1 19.36 -1 18 C-0.34 18 0.32 18 1 18 C1 13.38 1 8.76 1 4 C0.34 4 -0.32 4 -1 4 C-0.67 2.68 -0.34 1.36 0 0 Z " fill="#FFAB91" transform="translate(83,81)"/>
<path d="M0 0 C0.66 0 1.32 0 2 0 C2 5.61 2 11.22 2 17 C1.34 17 0.68 17 0 17 C-0.19386492 14.35448944 -0.38038267 11.70882217 -0.5625 9.0625 C-0.61857422 8.30775391 -0.67464844 7.55300781 -0.73242188 6.77539062 C-0.86176157 4.85254042 -0.93516912 2.92610452 -1 1 C-0.67 0.67 -0.34 0.34 0 0 Z " fill="#FFB7A2" transform="translate(324,100)"/>
<path d="M0 0 C0.66 0 1.32 0 2 0 C2 7.92 2 15.84 2 24 C1.01 24 0.02 24 -1 24 C-0.67 16.08 -0.34 8.16 0 0 Z " fill="#FFF2EF" transform="translate(316,81)"/>
<path d="M0 0 C0.66 0.66 1.32 1.32 2 2 C1.01 2 0.02 2 -1 2 C-1 2.66 -1 3.32 -1 4 C-3.31 4 -5.62 4 -8 4 C-8 3.34 -8 2.68 -8 2 C-8.99 1.67 -9.98 1.34 -11 1 C-7.07703567 -0.30765478 -4.13997567 -0.1971417 0 0 Z " fill="#FFE5DE" transform="translate(181,61)"/>
<path d="M0 0 C1.20462891 -0.02126953 1.20462891 -0.02126953 2.43359375 -0.04296875 C4.5625 0.1875 4.5625 0.1875 6.5625 2.1875 C5.5725 2.1875 4.5825 2.1875 3.5625 2.1875 C3.5625 2.8475 3.5625 3.5075 3.5625 4.1875 C2.985 4.001875 2.4075 3.81625 1.8125 3.625 C-0.64442525 3.14726454 -2.08147534 3.43020636 -4.4375 4.1875 C-4.7675 3.1975 -5.0975 2.2075 -5.4375 1.1875 C-3.84855928 -0.40144072 -2.18948576 0.01751589 0 0 Z " fill="#FFE0D6" transform="translate(121.4375,60.8125)"/>
<path d="M0 0 C1.65 0 3.3 0 5 0 C5.66 1.32 6.32 2.64 7 4 C1.25 5.125 1.25 5.125 -1 4 C-0.67 2.68 -0.34 1.36 0 0 Z " fill="#FFC8B7" transform="translate(75,119)"/>
<path d="M0 0 C1.79133978 -0.05391993 3.58313899 -0.09275571 5.375 -0.125 C6.37273437 -0.14820313 7.37046875 -0.17140625 8.3984375 -0.1953125 C11 0 11 0 13 2 C11.35 2 9.7 2 8 2 C8 2.66 8 3.32 8 4 C7.01 4 6.02 4 5 4 C5 3.34 5 2.68 5 2 C3.35 2 1.7 2 0 2 C0 1.34 0 0.68 0 0 Z " fill="#FFC1AE" transform="translate(228,63)"/>
<path d="M0 0 C1.32 0 2.64 0 4 0 C4 0.66 4 1.32 4 2 C5.98 2 7.96 2 10 2 C9.67 2.66 9.34 3.32 9 4 C6.03 4 3.06 4 0 4 C0 2.68 0 1.36 0 0 Z " fill="#FFBEAB" transform="translate(287,119)"/>
<path d="M0 0 C2.6875 0.3125 2.6875 0.3125 5 1 C4.25 6.75 4.25 6.75 2 9 C2 7.02 2 5.04 2 3 C0.35 3 -1.3 3 -3 3 C-1.8125 1.4375 -1.8125 1.4375 0 0 Z " fill="#FFAA8F" transform="translate(112,62)"/>
<path d="M0 0 C0 0.66 0 1.32 0 2 C0.99 2 1.98 2 3 2 C3 2.66 3 3.32 3 4 C-4.75 5.125 -4.75 5.125 -7 4 C-7 3.34 -7 2.68 -7 2 C-2.25 0 -2.25 0 0 0 Z " fill="#FFAE95" transform="translate(127,119)"/>
<path d="M0 0 C1.125 3.75 1.125 3.75 0 6 C0.99 6 1.98 6 3 6 C3 6.66 3 7.32 3 8 C0.69 8 -1.62 8 -4 8 C-4 7.01 -4 6.02 -4 5 C-3.01 4.34 -2.02 3.68 -1 3 C-0.67 2.01 -0.34 1.02 0 0 Z " fill="#FFB29B" transform="translate(238,113)"/>
<path d="M0 0 C5.75 -0.125 5.75 -0.125 8 1 C7.67 2.32 7.34 3.64 7 5 C6.34 5 5.68 5 5 5 C5 3.68 5 2.36 5 1 C3.35 1 1.7 1 0 1 C0 0.67 0 0.34 0 0 Z " fill="#FFC8B8" transform="translate(344,62)"/>
<path d="M0 0 C1.98 0 3.96 0 6 0 C6 1.32 6 2.64 6 4 C4.02 3.34 2.04 2.68 0 2 C0 1.34 0 0.68 0 0 Z " fill="#FFA68B" transform="translate(286,63)"/>
<path d="M0 0 C0 0.66 0 1.32 0 2 C0.99 2 1.98 2 3 2 C3 2.66 3 3.32 3 4 C1.35 4 -0.3 4 -2 4 C-2 3.34 -2 2.68 -2 2 C-2.99 1.67 -3.98 1.34 -5 1 C-2 0 -2 0 0 0 Z " fill="#FFF0EB" transform="translate(175,61)"/>
</svg>
