<?xml version="1.0" encoding="UTF-8"?>
<svg version="1.1" xmlns="http://www.w3.org/2000/svg" width="500" height="500">
<path d="M0 0 C5.83939274 1.66839793 10.07525576 4.42520926 14.75 8.25 C16.78804431 10.20464687 16.78804431 10.20464687 19 10 C19.556875 9.05125 20.11375 8.1025 20.6875 7.125 C23.50206309 3.32153636 25.44939075 2.87511716 30 2 C29.34 4.31 28.68 6.62 28 9 C28.81210938 8.50886719 28.81210938 8.50886719 29.640625 8.0078125 C32.50719067 6.78335233 34.6452987 6.80107854 37.75 6.875 C38.73484375 6.89304688 39.7196875 6.91109375 40.734375 6.9296875 C41.85585937 6.96449219 41.85585937 6.96449219 43 7 C43.495 7.99 43.495 7.99 44 9 C41.36 9.66 38.72 10.32 36 11 C37.05058594 11.3403125 38.10117188 11.680625 39.18359375 12.03125 C47.7228879 14.92987217 55.08966731 17.80014018 61 25 C61.495 26.485 61.495 26.485 62 28 C59.61435923 27.42415568 57.33317216 26.77772405 55 26 C47.55983507 25.33823184 40.77341139 24.82896458 34.61328125 29.51171875 C29.02037708 34.67127441 26.04153452 39.57301981 25.625 47.3125 C25.78745929 53.73505743 28.30438133 58.75579881 32.125 63.8125 C38.90020046 68.96754383 45.0331324 70.57501203 53.45703125 69.5546875 C56.12865288 68.97193747 58.49557317 68.08809927 61 67 C58.99647433 74.34626078 52.41650976 79.21675929 46.11328125 82.9375 C34.2097601 88.92226479 20.67918189 89.69978934 7.921875 86.10546875 C-2.22380077 82.26693099 -10.02859785 75.56316764 -15.12109375 65.99609375 C-19.95767692 55.01167596 -20.4022705 43.43541033 -17.25 31.90234375 C-14.40954592 25.30716443 -8.8837577 20.01110381 -3 16 C0.6640658 14.54964062 3.01556809 14 7 14 C5.29053123 8.87159369 4.08686113 5.66408239 0 2 C0 1.34 0 0.68 0 0 Z " fill="#FEA31B" transform="translate(94,193)"/>
<path d="M0 0 C46.22987524 -0.32744273 46.22987524 -0.32744273 53.0625 5.87109375 C56.68864082 9.8554622 58.77321795 12.68682306 59.3125 18.1875 C58.82388773 24.14856971 56.662315 28.83637922 52.125 32.8125 C49.17202562 34.87958206 46.28036033 36.51602747 43 38 C44.051875 38.350625 45.10375 38.70125 46.1875 39.0625 C50.56414516 41.02140166 53.03274511 43.65168834 55 48 C56.96262467 54.03355005 59 60.64396378 59 67 C61.64 66.67 64.28 66.34 67 66 C67 69 67 69 65.25 71.125 C59.91693396 74.20176887 53.44366817 74.82942008 47.4375 73.3828125 C43.20768909 70.98320823 40.69510979 68.21081022 39.24804688 63.60839844 C38.65253835 60.87208721 38.17809443 58.14232468 37.75 55.375 C37.43281868 53.5077229 37.11512974 51.64053195 36.796875 49.7734375 C36.66635742 48.95278809 36.53583984 48.13213867 36.40136719 47.28662109 C36.03018694 45.17197739 35.52071742 43.08286968 35 41 C31.04 40.34 27.08 39.68 23 39 C23.0721875 39.87140625 23.144375 40.7428125 23.21875 41.640625 C23.76530127 48.6546996 24.07778939 55.54054563 23.83984375 62.57421875 C23.81483662 65.26249206 23.81483662 65.26249206 26 68 C28.56282742 68.72965366 28.56282742 68.72965366 31 69 C31 69.99 31 70.98 31 72 C25.8064778 72.85989986 20.82213661 73.15340488 15.5625 73.125 C14.85029297 73.12886719 14.13808594 73.13273437 13.40429688 73.13671875 C8.52317515 73.12785204 3.8327382 72.68649945 -1 72 C-1 71.01 -1 70.02 -1 69 C0.4540625 68.5978125 0.4540625 68.5978125 1.9375 68.1875 C3.4534375 67.5996875 3.4534375 67.5996875 5 67 C6.05946564 63.82160309 6.12064296 61.58154652 6.11352539 58.2434082 C6.11344986 57.06241043 6.11337433 55.88141266 6.11329651 54.66462708 C6.10813522 53.38955795 6.10297394 52.11448883 6.09765625 50.80078125 C6.0962413 49.49545944 6.09482635 48.19013763 6.09336853 46.84526062 C6.0895538 43.37810344 6.07973244 39.91098826 6.06866455 36.44384766 C6.05842798 32.90462818 6.0538661 29.3654019 6.04882812 25.82617188 C6.03810923 18.88409735 6.02104534 11.94205069 6 5 C3.69 4.67 1.38 4.34 -1 4 C-0.67 2.68 -0.34 1.36 0 0 Z M25 4 C22.8712845 7.47438851 22.75451241 10.22695288 22.76953125 14.26171875 C22.77146484 15.46248047 22.77339844 16.66324219 22.77539062 17.90039062 C22.78763672 19.15013672 22.79988281 20.39988281 22.8125 21.6875 C22.81314453 22.94884766 22.81378906 24.21019531 22.81445312 25.50976562 C22.29270745 31.12752003 22.29270745 31.12752003 24 36 C29.21027298 35.95693989 33.86980015 35.37925442 38 32 C41.33492205 26.58679319 41.60592257 19.46385735 40.53125 13.3203125 C39.55566252 10.08602793 38.46884044 7.59506672 36.375 4.9375 C32.64842216 3.46648243 28.95488102 3.77183379 25 4 Z " fill="#FEA929" transform="translate(420,206)"/>
<path d="M0 0 C5.94115491 0.06929688 11.88163401 0.15746422 17.82226562 0.26245117 C19.83944139 0.29552227 21.85670574 0.32360852 23.87402344 0.34643555 C26.78879227 0.38031145 29.70276225 0.432641 32.6171875 0.48828125 C33.50614716 0.49467117 34.39510681 0.5010611 35.31100464 0.50764465 C45.29923681 0.73750182 54.39575455 3.32629319 62 10 C70.57747927 19.75297964 70.65210528 30.4990031 70 43 C69.05191273 51.29242526 65.18718698 58.55490226 58.75 63.8125 C51.61314579 68.94769894 44.31844613 71.97945472 35.52734375 72.31640625 C34.46193359 72.35830078 33.39652344 72.40019531 32.29882812 72.44335938 C31.18958984 72.48267578 30.08035156 72.52199219 28.9375 72.5625 C27.31424805 72.62727539 27.31424805 72.62727539 25.65820312 72.69335938 C5.69598419 73.44778037 5.69598419 73.44778037 -1 72 C-1 71.01 -1 70.02 -1 69 C-0.030625 68.71125 0.93875 68.4225 1.9375 68.125 C5.10664203 67.35785318 5.10664203 67.35785318 6 65 C6.09608064 63.16216054 6.12795892 61.32081744 6.12939453 59.48046875 C6.13254669 58.32587158 6.13569885 57.17127441 6.13894653 55.98168945 C6.1369223 54.72960693 6.13489807 53.47752441 6.1328125 52.1875 C6.13376923 50.90770264 6.13472595 49.62790527 6.13571167 48.30932617 C6.13718689 45.59910884 6.13503973 42.88892445 6.13037109 40.17871094 C6.12467389 36.70158771 6.12795384 33.22454166 6.13394356 29.74742126 C6.1384221 26.43577462 6.13528816 23.12414884 6.1328125 19.8125 C6.13483673 18.56041748 6.13686096 17.30833496 6.13894653 16.01831055 C6.13579437 14.86371338 6.13264221 13.70911621 6.12939453 12.51953125 C6.12859894 11.49964111 6.12780334 10.47975098 6.12698364 9.42895508 C6.16183415 6.99041197 6.16183415 6.99041197 5 5 C1.97065509 4.34227572 1.97065509 4.34227572 -1 4 C-0.67 2.68 -0.34 1.36 0 0 Z M26 4 C23.73028724 7.40456914 23.74749579 8.60556669 23.74121094 12.60131836 C23.73490662 13.74938461 23.72860229 14.89745087 23.72210693 16.08030701 C23.7261554 17.32095413 23.73020386 18.56160126 23.734375 19.83984375 C23.73246155 21.11348282 23.7305481 22.38712189 23.72857666 23.69935608 C23.72721443 26.39533015 23.72991149 29.09094272 23.73925781 31.78686523 C23.75064085 35.23806052 23.74409834 38.68894433 23.73211288 42.14012814 C23.72313535 45.43587774 23.72942734 48.73159007 23.734375 52.02734375 C23.73032654 53.26596664 23.72627808 54.50458954 23.72210693 55.78074646 C23.72841125 56.93196487 23.73471558 58.08318329 23.74121094 59.26928711 C23.74280212 60.28171982 23.74439331 61.29415253 23.74603271 62.33726501 C24.00809533 65.08487598 24.45810463 66.72116031 26 69 C31.57939656 70.85979885 36.78276765 69.55967248 41.92578125 67.06640625 C48.04194964 63.28145408 50.04391735 57.95545052 51.68359375 51.171875 C54.28712051 37.4539823 54.1218891 22.40191033 47 10 C43.87571778 6.65312261 40.67113156 4.11434058 36.03125 3.796875 C34.8659375 3.78140625 33.700625 3.7659375 32.5 3.75 C31.3346875 3.72421875 30.169375 3.6984375 28.96875 3.671875 C27.9890625 3.78015625 27.009375 3.8884375 26 4 Z " fill="#FEA41D" transform="translate(241,206)"/>
<path d="M0 0 C0.69996094 0.49113281 1.39992187 0.98226562 2.12109375 1.48828125 C2.12109375 2.14828125 2.12109375 2.80828125 2.12109375 3.48828125 C2.72824219 3.74738281 3.33539063 4.00648438 3.9609375 4.2734375 C9.09693414 7.16185514 11.26111166 13.27965978 12.93359375 18.67578125 C15.99078042 31.18245399 14.24957993 43.24595893 8.12109375 54.48828125 C3.67765601 61.33508783 -3.17913885 65.92169212 -10.87890625 68.48828125 C-14.56094616 68.7979599 -18.24788862 68.81227222 -21.94140625 68.86328125 C-23.4409082 68.91935547 -23.4409082 68.91935547 -24.97070312 68.9765625 C-33.6930783 69.07857858 -39.39417147 66.34220339 -46.62890625 61.73828125 C-54.82916419 53.53802331 -57.89404363 43.95890235 -58.25390625 32.48828125 C-57.86456712 20.0780965 -54.12207118 10.44429148 -45.31640625 1.67578125 C-32.41728646 -8.8892121 -13.99363347 -7.34808162 0 0 Z M-33.50390625 3.36328125 C-41.28174038 15.59637959 -41.82433246 31.59590182 -39.53320312 45.6015625 C-37.62266762 53.9012842 -33.85553375 60.53120382 -26.87890625 65.48828125 C-23.61842996 67.11851939 -21.5008959 66.95563475 -17.87890625 66.48828125 C-10.96341567 62.26429445 -7.11070394 56.47918567 -5.19921875 48.734375 C-3.84677596 41.62941868 -3.58199092 34.70045037 -3.87890625 27.48828125 C-3.90855469 26.54855469 -3.93820313 25.60882813 -3.96875 24.640625 C-4.49576537 15.50140719 -7.03138899 7.59791023 -13.37109375 0.828125 C-16.16613488 -1.65555144 -18.68024693 -2.35804448 -22.31640625 -2.82421875 C-27.30154317 -2.21627522 -30.14167789 -0.31915933 -33.50390625 3.36328125 Z " fill="#FEA825" transform="translate(219.87890625,210.51171875)"/>
<path d="M0 0 C7.52969652 -0.02526648 15.0593822 -0.04283141 22.58911133 -0.05493164 C25.15291757 -0.0599737 27.71672091 -0.06680714 30.28051758 -0.07543945 C33.95655021 -0.08751064 37.63254498 -0.09322942 41.30859375 -0.09765625 C42.46274277 -0.10281754 43.61689178 -0.10797882 44.80601501 -0.11329651 C46.3975515 -0.11340981 46.3975515 -0.11340981 48.02124023 -0.11352539 C48.96055893 -0.115746 49.89987762 -0.11796661 50.86766052 -0.12025452 C53 0 53 0 54 1 C54.08700342 2.63472882 54.10701063 4.27314055 54.09765625 5.91015625 C54.09443359 6.89951172 54.09121094 7.88886719 54.08789062 8.90820312 C54.07532227 10.46958008 54.07532227 10.46958008 54.0625 12.0625 C54.05798828 13.10728516 54.05347656 14.15207031 54.04882812 15.22851562 C54.03699913 17.8190666 54.02051689 20.40950559 54 23 C52.68 23 51.36 23 50 23 C49.72285156 22.09636719 49.44570313 21.19273437 49.16015625 20.26171875 C48.61681641 18.49248047 48.61681641 18.49248047 48.0625 16.6875 C47.70285156 15.51574219 47.34320313 14.34398437 46.97265625 13.13671875 C45.96411126 8.69918177 45.96411126 8.69918177 42.890625 5.82421875 C39.40479546 4.83028627 36.37142607 4.77083087 32.75 4.8125 C31.50734375 4.81894531 30.2646875 4.82539063 28.984375 4.83203125 C26.11693877 4.66097641 26.11693877 4.66097641 25 6 C24.84141158 8.14386657 24.74870702 10.29266838 24.68359375 12.44140625 C24.64169922 13.74658203 24.59980469 15.05175781 24.55664062 16.39648438 C24.51682392 17.7851533 24.47711175 19.17382522 24.4375 20.5625 C24.39432011 21.95509183 24.350706 23.34767028 24.30664062 24.74023438 C24.20014124 28.16004801 24.09813077 31.57993763 24 35 C30.37241497 33.47437365 30.37241497 33.47437365 35.19140625 29.30078125 C35.64386719 28.31464844 36.09632813 27.32851562 36.5625 26.3125 C37.27599609 24.82169922 37.27599609 24.82169922 38.00390625 23.30078125 C38.33261719 22.54152344 38.66132813 21.78226563 39 21 C39.66 21 40.32 21 41 21 C41 30.9 41 40.8 41 51 C38 50 38 50 36.9375 48.00390625 C36.628125 47.19824219 36.31875 46.39257812 36 45.5625 C34.63712301 42.02469848 34.28913671 41.19275781 31 39 C27.535 38.505 27.535 38.505 24 38 C24.495 52.355 24.495 52.355 25 67 C30.03154867 69.51577433 37.3240389 68.53870178 42.5 66.875 C49.11231093 61.9157668 50.68152054 54.62138461 53 47 C53.99 47.33 54.98 47.66 56 48 C56 55.92 56 63.84 56 72 C44.21437415 73.14519853 32.51785494 73.11421207 20.6875 73.0625 C18.67513133 73.05747354 16.66276143 73.05291266 14.65039062 73.04882812 C9.76689646 73.03791664 4.88346201 73.02071559 0 73 C0 71.68 0 70.36 0 69 C2.97 68.505 2.97 68.505 6 68 C6 47.54 6 27.08 6 6 C3.69 5.01 1.38 4.02 -1 3 C-0.67 2.01 -0.34 1.02 0 0 Z " fill="#FEA724" transform="translate(356,206)"/>
<path d="M0 0 C17.49 0 34.98 0 53 0 C53.85205807 3.4082323 54.07451001 5.37515984 53.87890625 8.765625 C53.83056641 9.65507812 53.78222656 10.54453125 53.73242188 11.4609375 C53.67634766 12.38132813 53.62027344 13.30171875 53.5625 14.25 C53.51029297 15.18585938 53.45808594 16.12171875 53.40429688 17.0859375 C53.27493175 19.39098887 53.13997966 21.69557289 53 24 C52.01 24 51.02 24 50 24 C49.82984375 23.34773438 49.6596875 22.69546875 49.484375 22.0234375 C47.5738464 15.13333969 45.46248061 8.826759 39 5 C35.75815588 4.60054109 35.75815588 4.60054109 32.3125 4.75 C31.15363281 4.76546875 29.99476562 4.7809375 28.80078125 4.796875 C26.09585734 4.68610723 26.09585734 4.68610723 25 6 C24.84141158 8.14386657 24.74870702 10.29266838 24.68359375 12.44140625 C24.64169922 13.74658203 24.59980469 15.05175781 24.55664062 16.39648438 C24.51682392 17.7851533 24.47711175 19.17382522 24.4375 20.5625 C24.39432011 21.95509183 24.350706 23.34767028 24.30664062 24.74023438 C24.20014124 28.16004801 24.09813077 31.57993763 24 35 C25.27101563 34.71640625 26.54203125 34.4328125 27.8515625 34.140625 C28.92398193 33.90134277 28.92398193 33.90134277 30.01806641 33.65722656 C33.17905407 32.60901533 34.34178921 30.80620288 36 28 C37.25556887 24.82078213 37.25556887 24.82078213 38 22 C38.99 22 39.98 22 41 22 C41.495 36.355 41.495 36.355 42 51 C40.68 50.67 39.36 50.34 38 50 C37.12890625 48.00390625 37.12890625 48.00390625 36.5625 45.5625 C35.57866752 41.86292282 35.57866752 41.86292282 32.6875 39.5 C29.79734846 38.96229739 26.900226 38.48003741 24 38 C24.08067935 42.43825599 24.19354135 46.87511798 24.3125 51.3125 C24.33505859 52.57513672 24.35761719 53.83777344 24.38085938 55.13867188 C24.4340332 56.95141602 24.4340332 56.95141602 24.48828125 58.80078125 C24.51446533 59.91622314 24.54064941 61.03166504 24.56762695 62.1809082 C24.77921321 64.98153578 24.77921321 64.98153578 26.30151367 66.81323242 C28.9590138 68.6700828 31.88373994 69.23563432 35 70 C35 70.66 35 71.32 35 72 C10.8493798 74.08387478 10.8493798 74.08387478 0 72 C0 71.01 0 70.02 0 69 C2.97 68.505 2.97 68.505 6 68 C6 47.54 6 27.08 6 6 C3.69 5.01 1.38 4.02 -1 3 C-0.67 2.01 -0.34 1.02 0 0 Z " fill="#FEA41C" transform="translate(20,206)"/>
<path d="M0 0 C9.9 0 19.8 0 30 0 C30.33 1.32 30.66 2.64 31 4 C28.69 4.33 26.38 4.66 24 5 C23.95367443 12.7711927 23.91812971 20.54235309 23.89637566 28.31364918 C23.88593518 31.92212105 23.87177127 35.53049849 23.84912109 39.13891602 C23.82740196 42.62076942 23.81543336 46.10253195 23.81024551 49.58444786 C23.80474773 51.56038283 23.78913332 53.53628122 23.77340698 55.51216125 C23.77325592 56.71317978 23.77310486 57.9141983 23.77294922 59.15161133 C23.76628738 60.74045891 23.76628738 60.74045891 23.75949097 62.36140442 C23.80959892 65.23102002 23.80959892 65.23102002 26 68 C28.56282742 68.72965366 28.56282742 68.72965366 31 69 C31 69.99 31 70.98 31 72 C25.81300423 73.05925683 20.82933797 73.14970761 15.5625 73.125 C14.33176758 73.13080078 14.33176758 73.13080078 13.07617188 73.13671875 C8.2787237 73.12906121 3.73055612 72.80222082 -1 72 C-1 71.01 -1 70.02 -1 69 C0.4540625 68.5978125 0.4540625 68.5978125 1.9375 68.1875 C3.4534375 67.5996875 3.4534375 67.5996875 5 67 C6.05946564 63.82160309 6.12064296 61.58154652 6.11352539 58.2434082 C6.11344986 57.06241043 6.11337433 55.88141266 6.11329651 54.66462708 C6.10813522 53.38955795 6.10297394 52.11448883 6.09765625 50.80078125 C6.0962413 49.49545944 6.09482635 48.19013763 6.09336853 46.84526062 C6.0895538 43.37810344 6.07973244 39.91098826 6.06866455 36.44384766 C6.05842798 32.90462818 6.0538661 29.3654019 6.04882812 25.82617188 C6.03810923 18.88409735 6.02104534 11.94205069 6 5 C3.69 4.67 1.38 4.34 -1 4 C-0.67 2.68 -0.34 1.36 0 0 Z " fill="#FEA114" transform="translate(319,206)"/>
<path d="M0 0 C9.9 0 19.8 0 30 0 C30 0.33 30 0.66 30 1 C26.7 1 23.4 1 20 1 C19.09183202 4.86207074 18.88356155 8.43148656 18.90234375 12.39453125 C18.90717773 14.19760742 18.90717773 14.19760742 18.91210938 16.03710938 C18.92048828 17.28298828 18.92886719 18.52886719 18.9375 19.8125 C18.94201172 21.07771484 18.94652344 22.34292969 18.95117188 23.64648438 C18.96293749 26.7643711 18.97937728 29.88216133 19 33 C20.98 33.33 22.96 33.66 25 34 C24.67 34.66 24.34 35.32 24 36 C21.69 36 19.38 36 17 36 C17.08085238 40.25078055 17.19370072 44.500124 17.3125 48.75 C17.33505859 49.9565625 17.35761719 51.163125 17.38085938 52.40625 C17.4340332 54.14648438 17.4340332 54.14648438 17.48828125 55.921875 C17.51446533 56.99018555 17.54064941 58.05849609 17.56762695 59.15917969 C18.04950092 62.32523588 18.77216121 63.72993833 21 66 C23.59855733 66.8042208 23.59855733 66.8042208 26 67 C26 67.99 26 68.98 26 70 C20.8064778 70.85989986 15.82213661 71.15340488 10.5625 71.125 C9.85029297 71.12886719 9.13808594 71.13273437 8.40429688 71.13671875 C3.52317515 71.12785204 -1.1672618 70.68649945 -6 70 C-6 69.01 -6 68.02 -6 67 C-4.5459375 66.5978125 -4.5459375 66.5978125 -3.0625 66.1875 C-1.5465625 65.5996875 -1.5465625 65.5996875 0 65 C1.01425547 61.95723358 1.12672654 59.90510453 1.12939453 56.72167969 C1.13412277 55.1041983 1.13412277 55.1041983 1.13894653 53.45404053 C1.1369223 52.2884259 1.13489807 51.12281128 1.1328125 49.921875 C1.13376923 48.72193909 1.13472595 47.52200317 1.13571167 46.28570557 C1.13639282 43.7436925 1.13454306 41.2016777 1.13037109 38.65966797 C1.12504064 34.77958225 1.13030865 30.89961327 1.13671875 27.01953125 C1.13605759 24.54947891 1.13477565 22.07942665 1.1328125 19.609375 C1.13483673 18.4518573 1.13686096 17.2943396 1.13894653 16.10174561 C1.13579437 15.01081604 1.13264221 13.91988647 1.12939453 12.79589844 C1.12859894 11.84342224 1.12780334 10.89094604 1.12698364 9.90960693 C0.98203107 6.58827353 0.47015459 3.29108212 0 0 Z " fill="#FEA013" transform="translate(425,208)"/>
<path d="M0 0 C5.94115491 0.06929688 11.88163401 0.15746422 17.82226562 0.26245117 C19.83944139 0.29552227 21.85670574 0.32360852 23.87402344 0.34643555 C26.78879227 0.38031145 29.70276225 0.432641 32.6171875 0.48828125 C33.50614716 0.49467117 34.39510681 0.5010611 35.31100464 0.50764465 C45.29923681 0.73750182 54.39575455 3.32629319 62 10 C70.57747927 19.75297964 70.65210528 30.4990031 70 43 C69.05191273 51.29242526 65.18718698 58.55490226 58.75 63.8125 C51.51124897 69.02101702 44.19935215 72.16903991 35.25 72.0625 C34.26515625 72.05347656 33.2803125 72.04445313 32.265625 72.03515625 C31.51796875 72.02355469 30.7703125 72.01195312 30 72 C30 71.34 30 70.68 30 70 C30.65226562 69.82984375 31.30453125 69.6596875 31.9765625 69.484375 C40.76290162 67.21754804 40.76290162 67.21754804 47.1796875 61.1640625 C54.06379157 47.24510756 53.27577892 30.53412918 49 16 C46.6720588 10.73381949 44.22076988 7.61038494 39 5 C36.795636 4.77049681 34.58607827 4.58924067 32.375 4.4375 C31.18648438 4.35371094 29.99796875 4.26992187 28.7734375 4.18359375 C27.40058594 4.09271484 27.40058594 4.09271484 26 4 C26 3.67 26 3.34 26 3 C19.4 2.67 12.8 2.34 6 2 C6.33 3.65 6.66 5.3 7 7 C6.34 6.34 5.68 5.68 5 5 C3.01178687 4.60235737 1.01055661 4.26224651 -1 4 C-0.67 2.68 -0.34 1.36 0 0 Z " fill="#FEA827" transform="translate(241,206)"/>
<path d="M0 0 C5.83939274 1.66839793 10.07525576 4.42520926 14.75 8.25 C16.78804431 10.20464687 16.78804431 10.20464687 19 10 C19.556875 9.05125 20.11375 8.1025 20.6875 7.125 C23.50206309 3.32153636 25.44939075 2.87511716 30 2 C29.34 4.31 28.68 6.62 28 9 C28.54140625 8.67257813 29.0828125 8.34515625 29.640625 8.0078125 C32.50719067 6.78335233 34.6452987 6.80107854 37.75 6.875 C38.73484375 6.89304688 39.7196875 6.91109375 40.734375 6.9296875 C41.85585937 6.96449219 41.85585937 6.96449219 43 7 C43.495 7.99 43.495 7.99 44 9 C41.36 9.66 38.72 10.32 36 11 C36.99 11.33 37.98 11.66 39 12 C39 12.66 39 13.32 39 14 C36.03 14.99 33.06 15.98 30 17 C30.33 19.31 30.66 21.62 31 24 C28.03 23.01 25.06 22.02 22 21 C22.33 22.32 22.66 23.64 23 25 C22.05125 24.29875 21.1025 23.5975 20.125 22.875 C15.90305601 20.43432244 12.95033278 21.16815841 8.37890625 22.34765625 C7.59386719 22.56292969 6.80882813 22.77820313 6 23 C4.00189338 23.34450114 2.00277585 23.68377223 0 24 C2.19138979 21.64270057 4.43931973 19.97942902 7.1875 18.3125 C8.26064453 17.65701172 8.26064453 17.65701172 9.35546875 16.98828125 C10.16951172 16.49908203 10.16951172 16.49908203 11 16 C10.505 15.566875 10.01 15.13375 9.5 14.6875 C8 13 8 13 8 10 C7.34 10 6.68 10 6 10 C3.67980703 6.80973467 1.65356922 3.58273331 0 0 Z " fill="#FE4441" transform="translate(94,193)"/>
<path d="M0 0 C0.99 0.33 1.98 0.66 3 1 C3 8.92 3 16.84 3 25 C-7.47414323 25.97025251 -17.80323351 26.11968008 -28.3125 26.0625 C-29.93945173 26.05747003 -31.56640499 26.0529098 -33.19335938 26.04882812 C-37.12894475 26.03795245 -41.06445493 26.02077226 -45 26 C-41.27933528 23.51955685 -38.13459526 23.55618827 -33.8125 23.375 C-33.06291016 23.33632813 -32.31332031 23.29765625 -31.54101562 23.2578125 C-29.69440801 23.16371784 -27.8472381 23.08077681 -26 23 C-26 22.67 -26 22.34 -26 22 C-25.20335937 21.96261719 -24.40671875 21.92523438 -23.5859375 21.88671875 C-15.32286634 21.50086504 -15.32286634 21.50086504 -8 18 C-3.51157003 12.8515068 -1.96052209 6.44469494 0 0 Z " fill="#FEB547" transform="translate(409,253)"/>
<path d="M0 0 C0.33 0 0.66 0 1 0 C1 9.57 1 19.14 1 29 C8.53125387 27.81296951 8.53125387 27.81296951 11.375 24.75 C13.0656843 21.88884196 14.10827326 19.19535416 15 16 C15.99 16 16.98 16 18 16 C18.495 30.355 18.495 30.355 19 45 C17.68 44.67 16.36 44.34 15 44 C14.12890625 42.00390625 14.12890625 42.00390625 13.5625 39.5625 C12.57866752 35.86292282 12.57866752 35.86292282 9.6875 33.5 C6.79839362 32.96249184 3.89869787 32.48311631 1 32 C1 40.91 1 49.82 1 59 C0.67 59 0.34 59 0 59 C0 39.53 0 20.06 0 0 Z " fill="#FEBC57" transform="translate(43,212)"/>
<path d="M0 0 C17.49 0 34.98 0 53 0 C53.85205807 3.4082323 54.07451001 5.37515984 53.87890625 8.765625 C53.83056641 9.65507812 53.78222656 10.54453125 53.73242188 11.4609375 C53.67634766 12.38132813 53.62027344 13.30171875 53.5625 14.25 C53.51029297 15.18585938 53.45808594 16.12171875 53.40429688 17.0859375 C53.27493175 19.39098887 53.13997966 21.69557289 53 24 C52.01 24 51.02 24 50 24 C49.82984375 23.34773438 49.6596875 22.69546875 49.484375 22.0234375 C47.76796258 15.83339698 46.1004069 10.32530518 40.75 6.3125 C39.88375 5.6628125 39.88375 5.6628125 39 5 C39 4.01 39 3.02 39 2 C28.11 2 17.22 2 6 2 C6.33 3.32 6.66 4.64 7 6 C4.36 5.01 1.72 4.02 -1 3 C-0.67 2.01 -0.34 1.02 0 0 Z " fill="#FEAB2D" transform="translate(20,206)"/>
<path d="M0 0 C6.6752034 -0.02526945 13.35039457 -0.04283268 20.02563477 -0.05493164 C22.29842591 -0.05997325 24.5712138 -0.06680637 26.84399414 -0.07543945 C30.10303551 -0.08751261 33.36203417 -0.09322987 36.62109375 -0.09765625 C37.64400009 -0.10281754 38.66690643 -0.10797882 39.72080994 -0.11329651 C40.66170975 -0.11337204 41.60260956 -0.11344757 42.57202148 -0.11352539 C43.40475082 -0.115746 44.23748016 -0.11796661 45.09544373 -0.12025452 C47 0 47 0 48 1 C48.08700342 2.63472882 48.10701063 4.27314055 48.09765625 5.91015625 C48.09443359 6.89951172 48.09121094 7.88886719 48.08789062 8.90820312 C48.07532227 10.46958008 48.07532227 10.46958008 48.0625 12.0625 C48.05798828 13.10728516 48.05347656 14.15207031 48.04882812 15.22851562 C48.03699913 17.8190666 48.02051689 20.40950559 48 23 C46.68 23 45.36 23 44 23 C43.72285156 22.09636719 43.44570313 21.19273437 43.16015625 20.26171875 C42.61681641 18.49248047 42.61681641 18.49248047 42.0625 16.6875 C41.70285156 15.51574219 41.34320313 14.34398437 40.97265625 13.13671875 C40.33627721 11.08446023 39.67946621 9.03839863 39 7 C36.49552484 5.78130071 36.49552484 5.78130071 34 5 C34 4.01 34 3.02 34 2 C22.45 2 10.9 2 -1 2 C-0.67 1.34 -0.34 0.68 0 0 Z " fill="#FEB74D" transform="translate(362,206)"/>
<path d="M0 0 C17.49 0 34.98 0 53 0 C53.495 1.98 53.495 1.98 54 4 C53.505 3.01 53.505 3.01 53 2 C37.49 2 21.98 2 6 2 C6.33 3.32 6.66 4.64 7 6 C4.36 5.01 1.72 4.02 -1 3 C-0.67 2.01 -0.34 1.02 0 0 Z " fill="#FEC978" transform="translate(20,206)"/>
<path d="M0 0 C0.625 1.875 0.625 1.875 1 4 C0.34 4.66 -0.32 5.32 -1 6 C6.92 6.33 14.84 6.66 23 7 C19.40004756 8.79997622 18.40722078 9.25132549 14.69921875 9.23046875 C13.88646484 9.22853516 13.07371094 9.22660156 12.23632812 9.22460938 C10.9746582 9.20624023 10.9746582 9.20624023 9.6875 9.1875 C8.85798828 9.18685547 8.02847656 9.18621094 7.17382812 9.18554688 C2.35207212 9.15129604 -2.24538902 8.80205988 -7 8 C-7 7.01 -7 6.02 -7 5 C-5.5459375 4.5978125 -5.5459375 4.5978125 -4.0625 4.1875 C-3.051875 3.795625 -2.04125 3.40375 -1 3 C-0.67 2.01 -0.34 1.02 0 0 Z " fill="#FED699" transform="translate(325,270)"/>
<path d="M0 0 C0.625 1.875 0.625 1.875 1 4 C0.34 4.66 -0.32 5.32 -1 6 C6.59 6.33 14.18 6.66 22 7 C17.63254865 9.18372567 14.47806095 9.26561579 9.75 9.1875 C8.66138672 9.1865332 8.66138672 9.1865332 7.55078125 9.18554688 C2.62783202 9.14605798 -2.1260555 8.68918898 -7 8 C-7 7.01 -7 6.02 -7 5 C-5.5459375 4.5978125 -5.5459375 4.5978125 -4.0625 4.1875 C-3.051875 3.795625 -2.04125 3.40375 -1 3 C-0.67 2.01 -0.34 1.02 0 0 Z " fill="#FED290" transform="translate(426,270)"/>
<path d="M0 0 C14.19 0.33 28.38 0.66 43 1 C43 1.33 43 1.66 43 2 C30.79 2 18.58 2 6 2 C6.33 3.65 6.66 5.3 7 7 C6.34 6.34 5.68 5.68 5 5 C3.01178687 4.60235737 1.01055661 4.26224651 -1 4 C-0.67 2.68 -0.34 1.36 0 0 Z " fill="#FEC266" transform="translate(241,206)"/>
<path d="M0 0 C29.13902594 -0.20638953 29.13902594 -0.20638953 42 1 C42 1.33 42 1.66 42 2 C29.79 2 17.58 2 5 2 C5.33 2.99 5.66 3.98 6 5 C3.69 4.67 1.38 4.34 -1 4 C-0.67 2.68 -0.34 1.36 0 0 Z " fill="#FEC979" transform="translate(420,206)"/>
<path d="M0 0 C8.91 0 17.82 0 27 0 C26.67 0.66 26.34 1.32 26 2 C19.07 2 12.14 2 5 2 C5.33 2.99 5.66 3.98 6 5 C3.69 4.67 1.38 4.34 -1 4 C-0.67 2.68 -0.34 1.36 0 0 Z " fill="#FFCB7E" transform="translate(319,206)"/>
<path d="M0 0 C3.96 0 7.92 0 12 0 C11.01 0.33 10.02 0.66 9 1 C9 1.66 9 2.32 9 3 C10.32 3.33 11.64 3.66 13 4 C10.21155162 5.39422419 7.96567945 4.69586669 4.97265625 4.25390625 C2.83557926 3.93617013 2.83557926 3.93617013 0 4 C0 2.68 0 1.36 0 0 Z " fill="#FEC774" transform="translate(192,205)"/>
<path d="M0 0 C3.63 0 7.26 0 11 0 C11.33 0.66 11.66 1.32 12 2 C9.33333333 2.66666667 6.66666667 3.33333333 4 4 C3.25234375 4.18691406 2.5046875 4.37382812 1.734375 4.56640625 C1.16203125 4.70949219 0.5896875 4.85257813 0 5 C0 3.33333333 0 1.66666667 0 0 Z " fill="#FF8F8F" transform="translate(126,200)"/>
<path d="M0 0 C0.99 0.33 1.98 0.66 3 1 C0.375 7.625 0.375 7.625 -3 11 C-2.01 7.37 -1.02 3.74 0 0 Z " fill="#FEC165" transform="translate(409,253)"/>
<path d="M0 0 C-0.66 1.65 -1.32 3.3 -2 5 C-2.66 4.34 -3.32 3.68 -4 3 C-6.97 5.475 -6.97 5.475 -10 8 C-9.00344362 4.31274141 -8.3417689 3.20648538 -5 1.1875 C-2 0 -2 0 0 0 Z " fill="#FF8B8B" transform="translate(124,195)"/>
<path d="M0 0 C0.6875 1.75 0.6875 1.75 1 4 C-0.125 6.25 -0.125 6.25 -2 8 C-4.6875 8.25 -4.6875 8.25 -7 8 C-7 7.01 -7 6.02 -7 5 C-5.5459375 4.5978125 -5.5459375 4.5978125 -4.0625 4.1875 C-3.051875 3.795625 -2.04125 3.40375 -1 3 C-0.67 2.01 -0.34 1.02 0 0 Z " fill="#FEC369" transform="translate(325,270)"/>
<path d="M0 0 C1.65 0.33 3.3 0.66 5 1 C5.33 2.32 5.66 3.64 6 5 C3.69 4.67 1.38 4.34 -1 4 C-0.67 2.68 -0.34 1.36 0 0 Z " fill="#FEC46B" transform="translate(420,206)"/>
<path d="M0 0 C1.65 0.33 3.3 0.66 5 1 C5.33 2.32 5.66 3.64 6 5 C3.69 4.67 1.38 4.34 -1 4 C-0.67 2.68 -0.34 1.36 0 0 Z " fill="#FEC46C" transform="translate(319,206)"/>
<path d="M0 0 C0.6875 1.8125 0.6875 1.8125 1 4 C-0.64504011 6.46756016 -1.80299352 6.94960299 -4.6875 7.6875 C-5.8321875 7.8421875 -5.8321875 7.8421875 -7 8 C-7 7.01 -7 6.02 -7 5 C-5.5459375 4.5978125 -5.5459375 4.5978125 -4.0625 4.1875 C-3.051875 3.795625 -2.04125 3.40375 -1 3 C-0.67 2.01 -0.34 1.02 0 0 Z " fill="#FEC671" transform="translate(426,270)"/>
<path d="M0 0 C5.75 1.75 5.75 1.75 8 4 C7.01 4 6.02 4 5 4 C4.67 4.66 4.34 5.32 4 6 C2.62437146 4.71034824 1.29233607 3.37310707 0 2 C0 1.34 0 0.68 0 0 Z " fill="#FFA9A9" transform="translate(94,193)"/>
<path d="M0 0 C2 1 2 1 3 3 C0.03 3.66 -2.94 4.32 -6 5 C-3 2 -3 2 0 0 Z " fill="#FE4E27" transform="translate(100,212)"/>
</svg>
