<?xml version="1.0" encoding="UTF-8"?>
<svg version="1.1" xmlns="http://www.w3.org/2000/svg" width="2101" height="949">
<path d="M0 0 C1.32 0 2.64 0 4 0 C4 0.66 4 1.32 4 2 C4.99 2.1546875 4.99 2.1546875 6 2.3125 C9.83841009 3.19213564 13.33096691 4.56969896 17 6 C17 6.66 17 7.32 17 8 C17.62648438 8.20496094 18.25296875 8.40992188 18.8984375 8.62109375 C19.71570313 8.89050781 20.53296875 9.15992188 21.375 9.4375 C22.18710937 9.70433594 22.99921875 9.97117188 23.8359375 10.24609375 C26 11 26 11 28 12 C28 12.66 28 13.32 28 14 C28.515625 14.0825 29.03125 14.165 29.5625 14.25 C33.04455732 15.32140225 35.87200885 17.13523605 39 19 C39 19.66 39 20.32 39 21 C39.8353125 21.1546875 39.8353125 21.1546875 40.6875 21.3125 C43.4769101 22.14178408 45.6139064 23.34299056 48 25 C48 25.66 48 26.32 48 27 C48.804375 27.12375 48.804375 27.12375 49.625 27.25 C54.7389418 28.86492899 58.29079527 32.29079527 62 36 C62.639375 36.309375 63.27875 36.61875 63.9375 36.9375 C67.81309759 38.93401997 70.52214133 42.49824839 73.5 45.625 C75.8911595 47.89660152 78.17636892 49.33478167 81 51 C82.35308313 52.31328657 83.68870078 53.64499081 85 55 C85.99 55.66 86.98 56.32 88 57 C88 57.66 88 58.32 88 59 C88.69480469 59.13277344 89.38960937 59.26554687 90.10546875 59.40234375 C93.19870986 60.04102916 96.25040398 60.78856364 99.3125 61.5625 C100.38113281 61.83191406 101.44976563 62.10132813 102.55078125 62.37890625 C103.35902344 62.58386719 104.16726563 62.78882813 105 63 C105 63.66 105 64.32 105 65 C107.64 65 110.28 65 113 65 C113.99 59.39 114.98 53.78 116 48 C116.66 48 117.32 48 118 48 C118.268125 46.865625 118.53625 45.73125 118.8125 44.5625 C119.4003125 42.7990625 119.4003125 42.7990625 120 41 C120.99 40.67 121.98 40.34 123 40 C123.61067144 38.14255793 123.61067144 38.14255793 124 36 C125.35565898 32.55294752 126.78835473 31.22633918 130 29.4375 C133.02275544 27.7427566 133.99832634 27.0025105 136 24 C138.32481174 22.98034573 140.65794699 21.97940398 143 21 C143.33 20.34 143.66 19.68 144 19 C144.66 19 145.32 19 146 19 C146 18.34 146 17.68 146 17 C148.97 16.01 151.94 15.02 155 14 C155 13.34 155 12.68 155 12 C157.37265061 11.32382476 159.74755355 10.65891774 162.125 10 C162.79015625 9.80921875 163.4553125 9.6184375 164.140625 9.421875 C168.1986205 8.30791545 171.79685974 7.79049768 176 8 C175.66104345 11.0401795 175.35542568 12.62426428 173.22265625 14.87890625 C172.50980469 15.43449219 171.79695313 15.99007812 171.0625 16.5625 C168.12490884 18.87098816 166.5385721 20.60261003 165 24 C163.68870078 25.35500919 162.35308313 26.68671343 161 28 C158.21387471 31.1958496 156.37749713 33.98230004 155 38 C154.34 38 153.68 38 153 38 C151.31656589 46.83802906 151.3071892 56.17320081 153 65 C154.65 65 156.3 65 158 65 C158.4021875 63.7934375 158.4021875 63.7934375 158.8125 62.5625 C159.204375 61.716875 159.59625 60.87125 160 60 C161.485 59.505 161.485 59.505 163 59 C163.144375 58.360625 163.28875 57.72125 163.4375 57.0625 C163.623125 56.381875 163.80875 55.70125 164 55 C165.31647119 54.30062468 166.65022151 53.63270867 168 53 C168.33 52.01 168.66 51.02 169 50 C170.5234375 48.83203125 170.5234375 48.83203125 172.375 47.8125 C172.98085938 47.46832031 173.58671875 47.12414062 174.2109375 46.76953125 C176 46 176 46 179 46 C179 45.34 179 44.68 179 44 C194.56036446 39.40774487 194.56036446 39.40774487 203 40 C203 39.34 203 38.68 203 38 C204.98 38 206.96 38 209 38 C209 37.34 209 36.68 209 36 C213.12498468 35.97061977 217.24994191 35.95307465 221.375 35.9375 C222.53128906 35.92912109 223.68757813 35.92074219 224.87890625 35.91210938 C238.52494642 35.87356124 238.52494642 35.87356124 245 37 C246 38 246 38 246.0625 41.0625 C246.041875 42.031875 246.02125 43.00125 246 44 C242.60500696 44.50581854 239.20888518 45.00362244 235.8125 45.5 C234.85279297 45.64308594 233.89308594 45.78617187 232.90429688 45.93359375 C231.50727539 46.13662109 231.50727539 46.13662109 230.08203125 46.34375 C229.22843018 46.46943359 228.3748291 46.59511719 227.49536133 46.72460938 C224.97530325 47.00272556 222.53314218 47.047608 220 47 C220 47.66 220 48.32 220 49 C217.5636811 49.67126129 215.12611117 50.33716354 212.6875 51 C211.99720703 51.19078125 211.30691406 51.3815625 210.59570312 51.578125 C207.64212051 52.37716184 205.07440781 53 202 53 C202 53.66 202 54.32 202 55 C200.73308493 55.67408308 199.46129251 56.33900497 198.1875 57 C197.47980469 57.37125 196.77210938 57.7425 196.04296875 58.125 C194 59 194 59 191 59 C190.67 60.98 190.34 62.96 190 65 C190.88969482 65.06731323 190.88969482 65.06731323 191.79736328 65.13598633 C203.41336562 66.03860389 214.68429574 67.10348867 226 70 C226 70.66 226 71.32 226 72 C227.010625 72.103125 228.02125 72.20625 229.0625 72.3125 C235.77243773 73.1375918 242.38411778 74.63030563 249 76 C249 76.66 249 77.32 249 78 C250.03125 78.0825 251.0625 78.165 252.125 78.25 C258.58536416 79.03130758 264.78983656 81.12473997 271 83 C271 83.66 271 84.32 271 85 C271.88751953 85.18175781 271.88751953 85.18175781 272.79296875 85.3671875 C277.03803585 86.26744643 281.02439661 87.20456621 285 89 C285 89.66 285 90.32 285 91 C285.66 91.103125 286.32 91.20625 287 91.3125 C290.83841009 92.19213564 294.33096691 93.56969896 298 95 C298 95.66 298 96.32 298 97 C298.86625 97.268125 299.7325 97.53625 300.625 97.8125 C303.91791964 98.97111987 306.91127875 100.38209839 310 102 C310 102.66 310 103.32 310 104 C310.556875 104.103125 311.11375 104.20625 311.6875 104.3125 C314.4769101 105.14178408 316.6139064 106.34299056 319 108 C319 108.66 319 109.32 319 110 C319.721875 110.268125 320.44375 110.53625 321.1875 110.8125 C325.50562279 112.6357074 328.36848463 114.05272694 331 118 C331.86625 118.515625 332.7325 119.03125 333.625 119.5625 C334.40875 120.036875 335.1925 120.51125 336 121 C336 121.66 336 122.32 336 123 C336.598125 123.28875 337.19625 123.5775 337.8125 123.875 C340 125 340 125 343 127 C343 127.99 343 128.98 343 130 C342.34 130 341.68 130 341 130 C341 130.66 341 131.32 341 132 C338.91891315 132.67364661 336.8350329 133.33866798 334.75 134 C333.58984375 134.37125 332.4296875 134.7425 331.234375 135.125 C328 136 328 136 324 136 C324 136.66 324 137.32 324 138 C322.23141309 138.67260351 320.46003984 139.33788395 318.6875 140 C317.70136719 140.37125 316.71523438 140.7425 315.69921875 141.125 C313 142 313 142 310 142 C310 142.66 310 143.32 310 144 C308.23244474 144.84026396 306.46082737 145.67198722 304.6875 146.5 C303.70136719 146.9640625 302.71523438 147.428125 301.69921875 147.90625 C299 149 299 149 296 149 C295.67 149.99 295.34 150.98 295 152 C293.00892752 153.01765927 291.00781177 154.01577854 289 155 C287.64631404 156.31266518 286.31200404 157.64567325 285 159 C284.195625 159.474375 283.39125 159.94875 282.5625 160.4375 C279.82544738 161.9684026 279.82544738 161.9684026 277.375 164.625 C275 167 275 167 272 168 C271.566875 168.86625 271.566875 168.86625 271.125 169.75 C269.60012853 172.79974294 267.51784178 174.72780132 265 177 C264.01 177.33 263.02 177.66 262 178 C261.30341637 179.65438613 260.63903117 181.32254318 260 183 C259 184 258 185 257 186 C256.484375 187.03125 255.96875 188.0625 255.4375 189.125 C254 192 254 192 252 193 C250.94647157 195.30965848 249.94280904 197.6429774 249 200 C248.34 200 247.68 200 247 200 C246.87625 200.721875 246.7525 201.44375 246.625 202.1875 C246.0095069 204.95721894 245.11555626 207.3970354 244 210 C243.34 210 242.68 210 242 210 C241.86722656 210.60328125 241.73445313 211.2065625 241.59765625 211.828125 C241.42105469 212.62734375 241.24445313 213.4265625 241.0625 214.25 C240.80146484 215.43335938 240.80146484 215.43335938 240.53515625 216.640625 C240.052444 218.76878703 239.53836822 220.88532842 239 223 C238.34 223 237.68 223 237 223 C236.87625 224.093125 236.7525 225.18625 236.625 226.3125 C235.97229869 231.58140765 234.98735937 236.78520874 234 242 C233.34 242 232.68 242 232 242 C232 256.19 232 270.38 232 285 C232.66 285 233.32 285 234 285 C234.50478485 287.41575607 235.00397642 289.83244361 235.5 292.25 C235.64308594 292.93191406 235.78617188 293.61382813 235.93359375 294.31640625 C236.61251049 297.64633121 237 300.58332551 237 304 C237.66 304 238.32 304 239 304 C239.50512244 305.60256108 240.00391627 307.20711792 240.5 308.8125 C240.91765625 310.15248047 240.91765625 310.15248047 241.34375 311.51953125 C242 314 242 314 242 317 C242.66 317 243.32 317 244 317 C247 323.5 247 323.5 247 328 C247.99 328.33 248.98 328.66 250 329 C250.69658363 330.65438613 251.36096883 332.32254318 252 334 C252.7425 334.7115625 252.7425 334.7115625 253.5 335.4375 C255 337 255 337 256 340.125 C256.33 341.07375 256.66 342.0225 257 343 C257.99 343.33 258.98 343.66 260 344 C260.68531646 345.32384424 261.3501875 346.65837191 262 348 C263.60682263 349.56252106 263.60682263 349.56252106 265.4375 350.9375 C267.72693644 352.80470431 268.97204236 353.95016247 270.4375 356.5625 C272.44923311 359.70080365 274.82375534 360.88435396 277.99609375 362.7421875 C281.85296349 365.1630687 284.55802338 367.67407013 286 372 C287.32148827 372.37756808 288.65835921 372.7018576 290 373 C292.75 374.4375 292.75 374.4375 295 376 C295 376.66 295 377.32 295 378 C295.56203125 378.12246094 296.1240625 378.24492188 296.703125 378.37109375 C299.18986519 379.0519869 301.40514776 379.99352325 303.75 381.0625 C304.54921875 381.42472656 305.3484375 381.78695313 306.171875 382.16015625 C306.77515625 382.43730469 307.3784375 382.71445312 308 383 C308 383.66 308 384.32 308 385 C309.15628906 385.30744141 309.15628906 385.30744141 310.3359375 385.62109375 C311.33882812 385.89050781 312.34171875 386.15992188 313.375 386.4375 C314.37273437 386.70433594 315.37046875 386.97117187 316.3984375 387.24609375 C319 388 319 388 321 389 C321 389.66 321 390.32 321 391 C321.9075 391.103125 322.815 391.20625 323.75 391.3125 C329.26282152 392.08543168 334.62115462 393.59567091 340 395 C340 395.66 340 396.32 340 397 C342.64 397.33 345.28 397.66 348 398 C348 399.32 348 400.64 348 402 C347.01 402.66 346.02 403.32 345 404 C344.68804688 404.62648438 344.37609375 405.25296875 344.0546875 405.8984375 C342.78341917 408.43155735 341.27118581 409.78656914 339.125 411.625 C338.10792969 412.51058594 338.10792969 412.51058594 337.0703125 413.4140625 C335 415 335 415 332.80078125 416.09765625 C330.40712129 417.29708239 330.15869454 418.61445243 329 421 C325.89978043 424.35158872 322.55676384 427.15458893 319 430 C317.700625 431.3303125 317.700625 431.3303125 316.375 432.6875 C314 435 314 435 311 436 C310.525625 436.639375 310.05125 437.27875 309.5625 437.9375 C307.83781581 440.21408312 306.54202363 440.80842642 304 442 C303.566875 442.45375 303.13375 442.9075 302.6875 443.375 C300.98624733 445.01324331 299.43687312 445.93287908 297.375 447.0625 C293.96685641 448.60541916 293.96685641 448.60541916 293 451 C291.2578125 452.0703125 291.2578125 452.0703125 289.125 453.125 C288.07699219 453.65480469 288.07699219 453.65480469 287.0078125 454.1953125 C285 455 285 455 282 455 C282 455.66 282 456.32 282 457 C280.37750059 457.83819158 278.75191503 458.6704116 277.125 459.5 C276.22007812 459.9640625 275.31515625 460.428125 274.3828125 460.90625 C272 462 272 462 270 462 C270 462.66 270 463.32 270 464 C268.39850114 464.67305018 266.79368971 465.33822227 265.1875 466 C264.29417969 466.37125 263.40085937 466.7425 262.48046875 467.125 C260 468 260 468 257 468 C257 468.66 257 469.32 257 470 C255.2097939 470.67057887 253.41778511 471.3363469 251.625 472 C250.62726563 472.37125 249.62953125 472.7425 248.6015625 473.125 C246 474 246 474 244 474 C244 474.66 244 475.32 244 476 C241.23058394 476.83830973 238.45964931 477.67082034 235.6875 478.5 C234.90181641 478.73847656 234.11613281 478.97695313 233.30664062 479.22265625 C232.54931641 479.44824219 231.79199219 479.67382812 231.01171875 479.90625 C230.31522217 480.11572266 229.61872559 480.32519531 228.90112305 480.54101562 C227 481 227 481 224 481 C224 481.66 224 482.32 224 483 C221.27238489 483.67363372 218.543201 484.33909444 215.8125 485 C214.65911133 485.28617188 214.65911133 485.28617188 213.48242188 485.578125 C209.57921747 486.51623421 206.04770205 487.25957208 202 487 C202 487.66 202 488.32 202 489 C186.59223896 491.81796748 171.71018783 494.2783301 156 494 C156 494.66 156 495.32 156 496 C141.15 496 126.3 496 111 496 C111 495.34 111 494.68 111 494 C110.40316406 494.02320313 109.80632812 494.04640625 109.19140625 494.0703125 C94.62833866 494.37325893 80.25928105 491.6769614 66 489 C66 488.34 66 487.68 66 487 C65.40574219 486.96261719 64.81148437 486.92523437 64.19921875 486.88671875 C57.52865413 486.3576382 51.39727101 484.93377584 45 483 C45 482.34 45 481.68 45 481 C44.15179688 480.87753906 43.30359375 480.75507812 42.4296875 480.62890625 C38.87964842 479.97793097 35.56474576 479.02558284 32.125 477.9375 C30.97257813 477.57527344 29.82015625 477.21304687 28.6328125 476.83984375 C27.76398438 476.56269531 26.89515625 476.28554688 26 476 C26 475.34 26 474.68 26 474 C25.40832031 473.87882812 24.81664062 473.75765625 24.20703125 473.6328125 C13.21952276 471.30267204 13.21952276 471.30267204 10.625 468.53125 C8.76913481 466.78245395 7.28645453 466.21610617 4.875 465.4375 C2.7421875 464.74609375 2.7421875 464.74609375 1 464 C0.67 463.34 0.34 462.68 0 462 C-1.655611 461.06606559 -3.34950522 460.19897217 -5.0625 459.375 C-5.98160156 458.92898438 -6.90070313 458.48296875 -7.84765625 458.0234375 C-8.55792969 457.68570312 -9.26820313 457.34796875 -10 457 C-10 456.34 -10 455.68 -10 455 C-10.556875 454.896875 -11.11375 454.79375 -11.6875 454.6875 C-14.4769101 453.85821592 -16.6139064 452.65700944 -19 451 C-19 450.34 -19 449.68 -19 449 C-19.721875 448.731875 -20.44375 448.46375 -21.1875 448.1875 C-25.50562279 446.3642926 -28.36848463 444.94727306 -31 441 C-31.928125 440.54625 -32.85625 440.0925 -33.8125 439.625 C-37.31527873 437.83926967 -39.33562708 435.86932469 -42 433 C-42.86625 432.13375 -43.7325 431.2675 -44.625 430.375 C-45.40875 429.59125 -46.1925 428.8075 -47 428 C-47.8971875 427.1646875 -47.8971875 427.1646875 -48.8125 426.3125 C-50 425 -50 425 -50 423 C-50.8353125 422.6596875 -50.8353125 422.6596875 -51.6875 422.3125 C-56.87694143 419.36714135 -60.12630731 414.57866541 -63.5859375 409.859375 C-65.6567918 407.13637321 -68.05333122 404.87093527 -70.5625 402.5625 C-72.84085139 400.0860311 -75 397.44794699 -75 394 C-75.99 393.67 -76.98 393.34 -78 393 C-78.70211894 391.34795544 -79.36971413 389.68076231 -80 388 C-80.66 387.67 -81.32 387.34 -82 387 C-85 381.69230769 -85 381.69230769 -85 378 C-85.66 378 -86.32 378 -87 378 C-87.99 375.03 -88.98 372.06 -90 369 C-90.66 369 -91.32 369 -92 369 C-95 362.375 -95 362.375 -95 359 C-95.66 359 -96.32 359 -97 359 C-97.50757862 357.58603098 -98.00574925 356.16868271 -98.5 354.75 C-98.7784375 353.96109375 -99.056875 353.1721875 -99.34375 352.359375 C-100 350 -100 350 -100 346 C-100.66 346 -101.32 346 -102 346 C-102.50692692 344.4188708 -103.00526443 342.83498617 -103.5 341.25 C-103.91765625 339.92742187 -103.91765625 339.92742187 -104.34375 338.578125 C-105 336 -105 336 -105 332 C-105.66 332 -106.32 332 -107 332 C-107.50780894 329.79344925 -108.00591365 327.58466395 -108.5 325.375 C-108.7784375 324.14523437 -109.056875 322.91546875 -109.34375 321.6484375 C-109.94091621 318.32847772 -110.12409534 315.36091549 -110 312 C-110.66 312 -111.32 312 -112 312 C-117.53520748 282.55054659 -117.33536537 248.42220903 -112 219 C-111.34 219 -110.68 219 -110 219 C-110.061875 217.80375 -110.12375 216.6075 -110.1875 215.375 C-110.2193315 208.74343695 -108.53318555 202.41565142 -107 196 C-106.34 196 -105.68 196 -105 196 C-104.86722656 195.24074219 -104.73445313 194.48148438 -104.59765625 193.69921875 C-104.42105469 192.70535156 -104.24445313 191.71148437 -104.0625 190.6875 C-103.88847656 189.70136719 -103.71445312 188.71523438 -103.53515625 187.69921875 C-103 185 -103 185 -102 182 C-101.34 182 -100.68 182 -100 182 C-99.87625 181.13375 -99.7525 180.2675 -99.625 179.375 C-99.01941879 176.10486147 -98.11693965 173.12743101 -97 170 C-96.34 170 -95.68 170 -95 170 C-94.01 167.03 -93.02 164.06 -92 161 C-91.34 161 -90.68 161 -90 161 C-89.82984375 160.39671875 -89.6596875 159.7934375 -89.484375 159.171875 C-88.03550105 154.39367367 -86.86029574 151.34558964 -83 148 C-82.67 147.01 -82.34 146.02 -82 145 C-81.02149805 143.97895449 -80.02019573 142.9793879 -79 142 C-78.34 141.01 -77.68 140.02 -77 139 C-76.34 139 -75.68 139 -75 139 C-74.773125 138.278125 -74.54625 137.55625 -74.3125 136.8125 C-72.72668125 133.41431697 -70.73876676 131.54769001 -68 129 C-66.700625 127.63875 -66.700625 127.63875 -65.375 126.25 C-63 124 -63 124 -60 123 C-59.690625 122.360625 -59.38125 121.72125 -59.0625 121.0625 C-57.72412624 118.46448035 -56.59213934 118.25903911 -54 117 C-52.7625 115.7625 -52.7625 115.7625 -51.5 114.5 C-49.26366232 112.26366232 -47.78265726 111.29857339 -45 110 C-44.525625 109.525625 -44.05125 109.05125 -43.5625 108.5625 C-41.56878231 106.56878231 -39.49134277 105.30795495 -37 104 C-36.01 104 -35.02 104 -34 104 C-33.505 102.515 -33.505 102.515 -33 101 C-31.0390625 99.83203125 -31.0390625 99.83203125 -28.625 98.8125 C-27.83351563 98.46832031 -27.04203125 98.12414062 -26.2265625 97.76953125 C-24 97 -24 97 -21 97 C-21 96.34 -21 95.68 -21 95 C-19.3767313 94.3291288 -17.75132422 93.66342971 -16.125 93 C-15.22007812 92.62875 -14.31515625 92.2575 -13.3828125 91.875 C-11 91 -11 91 -9 91 C-9 90.34 -9 89.68 -9 89 C-6.94037148 88.32451422 -4.87715678 87.65995688 -2.8125 87 C-1.66394531 86.62875 -0.51539063 86.2575 0.66796875 85.875 C3.64320812 85.09369447 5.95283896 84.81636694 9 85 C9 84.34 9 83.68 9 83 C12.39358344 82.15731913 15.79019085 81.32752099 19.1875 80.5 C20.62706055 80.14228516 20.62706055 80.14228516 22.09570312 79.77734375 C23.02705078 79.55175781 23.95839844 79.32617188 24.91796875 79.09375 C25.77156982 78.88427734 26.6251709 78.67480469 27.50463867 78.45898438 C30.05946307 77.98906266 32.40844759 77.91882373 35 78 C35 77.34 35 76.68 35 76 C39.455 75.01 39.455 75.01 44 74 C44 72.02 44 70.04 44 68 C43.34 68 42.68 68 42 68 C41.49595192 65.89679937 40.99689492 63.79240209 40.5 61.6875 C40.08234375 59.92986328 40.08234375 59.92986328 39.65625 58.13671875 C39 55 39 55 39 52 C38.34 52 37.68 52 37 52 C36.49487756 50.39743892 35.99608373 48.79288208 35.5 47.1875 C35.2215625 46.29417969 34.943125 45.40085937 34.65625 44.48046875 C34 42 34 42 34 39 C33.34 39 32.68 39 32 39 C29 33.25 29 33.25 29 31 C28.01 30.67 27.02 30.34 26 30 C25.33333333 28.66666667 24.66666667 27.33333333 24 26 C22.67151309 24.99357052 21.33849671 23.99307821 20 23 C19.67 22.01 19.34 21.02 19 20 C17.30846256 18.28547658 17.30846256 18.28547658 15.25 16.625 C12.81141014 14.56458717 10.54885467 12.53836292 8.3125 10.25 C6.09789544 7.89342457 6.09789544 7.89342457 3.25 6.5 C1 5 1 5 0.1875 2.3125 C0.125625 1.549375 0.06375 0.78625 0 0 Z " fill="#FE3030" transform="translate(412,228)"/>
<path d="M0 0 C2.16603132 -0.00135345 4.33206235 -0.00329957 6.49809265 -0.00579834 C10.99298045 -0.00871455 15.48778772 -0.00456461 19.98266602 0.00488281 C25.69180573 0.01630987 31.40075796 0.00967473 37.10989094 -0.00226212 C41.56704581 -0.00954691 46.02415742 -0.00716325 50.48131371 -0.00200653 C52.58487153 -0.00069006 54.68843352 -0.00224583 56.79198647 -0.00696564 C93.92843851 -0.07208759 130.21936647 6.42829566 157.67578125 33.390625 C158.62415431 34.34592969 159.56968737 35.30406617 160.51171875 36.265625 C161.28257812 37.049375 162.0534375 37.833125 162.84765625 38.640625 C180.18658514 57.24177477 188.63946289 82.21559171 188.54296875 107.39453125 C187.54725974 132.85978922 176.96319204 155.70178656 158.51171875 173.265625 C148.99836446 181.7064635 137.69641172 187.37291807 126.51171875 193.265625 C127.16108398 193.68440918 127.81044922 194.10319336 128.47949219 194.53466797 C143.3112523 204.29793196 156.5600572 218.64350858 166.51171875 233.265625 C167.07101074 234.08305176 167.07101074 234.08305176 167.64160156 234.91699219 C174.07862642 244.44509049 179.41358844 254.56971657 184.79293823 264.71817017 C194.69350009 283.38636898 204.93687641 302.35073799 218.34765625 318.78515625 C227.81194885 330.38815911 227.81194885 330.38815911 227.51171875 338.265625 C226.33099559 342.25056566 225.06315088 343.80609822 221.88671875 346.453125 C208.23300954 353.78567254 192.51337792 353.63892287 177.39013672 353.63623047 C174.64748152 353.64060782 171.90643552 353.67707542 169.1640625 353.71484375 C156.25243322 353.79760129 141.49390202 353.65254975 131.08984375 344.92578125 C127.02156058 340.64602791 124.48196764 336.39548438 122.33203125 330.921875 C121.73417544 329.44710017 121.13610309 327.97241312 120.5378418 326.49780273 C120.22825531 325.72620819 119.91866882 324.95461365 119.59970093 324.15963745 C112.62247008 306.81396076 104.92311058 289.95883991 96.51171875 273.265625 C96.05458496 272.35022949 95.59745117 271.43483398 95.12646484 270.49169922 C83.67153096 247.64684243 68.12115762 216.66429258 44.51171875 204.265625 C42.1847401 203.5771054 39.85179918 202.90820767 37.51171875 202.265625 C37.52672075 209.96027255 37.56887449 217.65438972 37.64380932 225.34867954 C37.67780879 228.92320881 37.70314637 232.49732302 37.70727539 236.07202148 C37.33586152 257.75732896 37.33586152 257.75732896 43.51171875 278.265625 C43.80996552 278.88821198 44.10821228 279.51079895 44.41549683 280.1522522 C46.69333273 284.88633718 49.1402441 289.51903338 51.63671875 294.140625 C64.10723615 317.36815358 64.10723615 317.36815358 62.51171875 332.265625 C60.46532471 339.00600762 54.94068534 342.75324957 49.19921875 346.328125 C19.29803219 360.21081876 -28.66229002 358.42063538 -59.48828125 348.265625 C-67.82795801 345.01066847 -73.42847922 341.80240963 -77.80078125 333.890625 C-81.0836705 321.35595694 -74.01680693 308.58632437 -68.55078125 297.640625 C-66.52310044 293.5189493 -64.50248648 289.39390226 -62.48828125 285.265625 C-62.04210449 284.36489258 -61.59592773 283.46416016 -61.13623047 282.53613281 C-55.14677254 270.01667696 -52.88841404 258.11872855 -52.98657227 244.33447266 C-52.98277799 242.79188039 -52.97726891 241.24929155 -52.97019958 239.70671082 C-52.95636956 235.55975543 -52.96732707 231.41322078 -52.9839108 227.26628923 C-52.99788987 222.89760645 -52.99128654 218.52894496 -52.98777771 214.1602478 C-52.98508508 206.82551397 -52.99846728 199.49094466 -53.02172852 192.15625 C-53.04831233 183.7162965 -53.05008807 175.27661815 -53.03834015 166.83663714 C-53.02750103 158.66954306 -53.03379854 150.50254702 -53.04789543 142.33546066 C-53.05360433 138.88213109 -53.05361318 135.42887447 -53.04883003 131.97554398 C-53.04400134 127.89593568 -53.05440116 123.81662243 -53.07578468 119.73707008 C-53.08127431 118.25378603 -53.08189155 116.77047316 -53.07683182 115.28718758 C-53.03798218 102.2473659 -54.29529114 89.08260731 -59.42578125 76.953125 C-59.71155029 76.24365723 -59.99731934 75.53418945 -60.29174805 74.80322266 C-63.76354982 66.32488556 -67.57987668 57.98077987 -71.40014648 49.6550293 C-75.88773056 39.77018638 -80.31946905 28.85978898 -76.71875 17.9296875 C-72.91529813 10.91413317 -66.39068561 7.62922376 -59.08984375 5.078125 C-51.43596682 2.93188322 -43.81705358 1.84757657 -35.90551758 1.17285156 C-34.40634277 1.0448284 -34.40634277 1.0448284 -32.8768816 0.9142189 C-21.91725633 0.0468633 -10.98781943 -0.0247928 0 0 Z M40.51171875 53.265625 C35.38086504 60.27779173 36.35923287 70.68398252 36.37890625 79.0390625 C36.37754166 79.94953842 36.37617706 80.86001434 36.37477112 81.79808044 C36.37275718 84.74563306 36.37904247 87.69308274 36.38671875 90.640625 C36.38793732 91.64709076 36.38915588 92.65355652 36.39041138 93.69052124 C36.41042577 107.82390085 36.57116083 121.94971699 36.94921875 136.078125 C36.96877625 136.85428162 36.98833374 137.63043823 37.00848389 138.43011475 C37.0647435 140.59035675 37.12833119 142.75022309 37.1953125 144.91015625 C37.23197021 146.12034424 37.26862793 147.33053223 37.30639648 148.57739258 C37.21193501 151.18290879 37.21193501 151.18290879 38.51171875 152.265625 C42.90658978 152.5345776 47.30759522 152.5371055 51.7097168 152.56079102 C53.90935346 152.57781644 56.10741134 152.62164934 58.30664062 152.66601562 C67.73469862 152.77043056 75.92355248 152.15559205 83.38671875 145.828125 C84.43859375 144.5596875 84.43859375 144.5596875 85.51171875 143.265625 C86.19234375 142.5025 86.87296875 141.739375 87.57421875 140.953125 C98.89339434 125.25233305 99.49316353 104.30853776 97.19824219 85.72753906 C95.31277136 74.53526848 90.8751587 62.2308059 82.51171875 54.265625 C75.41730894 49.71149856 69.23983173 49.68882473 60.94921875 49.828125 C59.75619141 49.82103516 58.56316406 49.81394531 57.33398438 49.80664062 C51.02015008 49.85226589 46.01291565 50.03144736 40.51171875 53.265625 Z " fill="#00DAC2" transform="translate(1873.48828125,338.734375)"/>
<path d="M0 0 C1.20338013 0.00559937 2.40676025 0.01119873 3.64660645 0.01696777 C150.0940407 0.70001128 150.0940407 0.70001128 193.5 42.75 C203.09648033 52.8598136 208.03720852 64.68674906 207.8125 78.5625 C207.79509766 79.94937012 207.79509766 79.94937012 207.77734375 81.36425781 C207.23630073 104.1119343 196.20724831 123.151926 180.29956055 138.93896484 C167.76301359 150.81486813 151.41935334 160.13650172 133.77734375 160.34375 C128.0104901 159.99582519 124.05345691 158.82062725 119.4375 155.3125 C112.96393184 146.73939623 113.19812089 135.65294914 113 125.3125 C112.35028666 104.43659162 110.13657489 77.01157489 94.4375 61.3125 C84.50912081 53.63429025 76.0854482 51.04179492 63.4375 52.3125 C58.28872988 53.53451822 55.31185998 56.04294101 52.1875 60.25 C44.49436051 72.95311316 44.29132098 87.16778758 44.12109375 101.53125 C44.10048832 102.99955787 44.079491 104.46786029 44.05812073 105.93615723 C44.00327025 109.77636259 43.95369981 113.61661815 43.90527344 117.45690918 C43.85478576 121.38538002 43.79924291 125.31377915 43.74414062 129.2421875 C43.63701285 136.93223071 43.53546969 144.62233408 43.4375 152.3125 C45.02269458 152.01424809 46.60689804 151.71072573 48.19067383 151.4050293 C49.07298172 151.23658005 49.95528961 151.0681308 50.86433411 150.89457703 C54.50963169 150.0699726 57.75007599 148.70028588 61.125 147.125 C61.79708496 146.82182861 62.46916992 146.51865723 63.16162109 146.20629883 C66.65202601 144.62400908 70.12037566 142.99475809 73.58984375 141.3671875 C74.25733643 141.05418701 74.9248291 140.74118652 75.61254883 140.41870117 C77.45585092 139.55024671 79.29448585 138.67190611 81.1328125 137.79296875 C87.37307766 134.99738897 92.61542745 133.50395807 99.4375 134.3125 C104.15336252 136.30364195 107.1565034 139.55693398 109.31640625 144.203125 C112.08323651 151.20708179 112.60218826 157.9480094 112.640625 165.41015625 C112.64632507 166.28087265 112.65202515 167.15158905 112.65789795 168.0486908 C112.66731524 169.88848672 112.67386888 171.72829927 112.67773438 173.56811523 C112.687385 176.34194563 112.7184167 179.11501673 112.75 181.88867188 C112.90682614 208.2029459 112.90682614 208.2029459 105.4375 216.3125 C100.20401574 220.14187873 94.65868172 220.22693876 88.4375 219.3125 C79.48209144 216.67635677 71.08428952 212.75851606 62.6875 208.72412109 C56.90681039 205.97798341 50.91741768 203.3125 44.4375 203.3125 C44.36734255 211.2503146 44.31436076 219.18799516 44.28206348 227.12604523 C44.26654609 230.81379816 44.24557018 234.50133578 44.21118164 238.18896484 C42.77603338 268.92467711 42.77603338 268.92467711 54.984375 296.08984375 C61.00569109 301.44384903 67.13277711 301.75841723 74.86328125 301.62109375 C83.75673829 300.85324336 90.51577898 296.88944276 96.4375 290.3125 C110.97668278 272.40862312 112.64029087 247.06038209 113.05981445 224.97631836 C113.27842374 215.42316972 114.12718212 206.86782654 120.4375 199.3125 C125.94670745 194.41542671 132.24910152 194.62803364 139.30859375 194.93359375 C159.09144724 196.39204771 176.04760768 209.50086055 189.00048828 223.6328125 C195.67610411 231.43577494 200.77990684 240.75972728 204.4375 250.3125 C204.75589844 251.08851563 205.07429688 251.86453125 205.40234375 252.6640625 C209.47332389 264.48303711 209.5189359 281.15044139 204.75390625 292.72265625 C193.81706097 314.23935779 175.26760098 325.78998327 153.4375 334.3125 C152.73850586 334.58545898 152.03951172 334.85841797 151.31933594 335.13964844 C98.79071754 355.11879855 0.3368929 369.37067091 -53.81640625 348.44140625 C-60.56637949 345.35460634 -65.92013765 341.45706906 -69 334.5625 C-75.35592327 315.98999693 -63.93828046 295.10068459 -56.85302734 278.36376953 C-55.20340893 274.46347992 -53.58860852 270.55046717 -52 266.625 C-51.56558594 265.56925781 -51.13117188 264.51351563 -50.68359375 263.42578125 C-47.56088685 254.75401331 -47.25376178 246.89935416 -47.24023438 237.73681641 C-47.23096258 236.26731883 -47.22091121 234.797826 -47.21014404 233.32833862 C-47.18402943 229.3525256 -47.17103095 225.37677994 -47.16212273 221.40089464 C-47.15623606 218.90815758 -47.14802158 216.41543839 -47.13911438 213.92271042 C-47.11179173 206.09840382 -47.09244845 198.27413871 -47.0847106 190.44978774 C-47.07577314 181.46532154 -47.04077793 172.48146752 -46.98270941 163.49718726 C-46.93922137 156.52269243 -46.91928842 149.54836814 -46.91662836 142.57373941 C-46.91454913 138.42255232 -46.90310302 134.2719416 -46.86698914 130.1208992 C-46.56769323 105.60602066 -46.56769323 105.60602066 -53.5625 82.3125 C-54.50333583 80.03078545 -55.44247346 77.74836887 -56.37890625 75.46484375 C-57.29058006 73.39160229 -58.2059348 71.31997547 -59.125 69.25 C-64.73890961 56.18724734 -69.88440152 44.1209619 -70.125 29.75 C-70.14006592 29.02361328 -70.15513184 28.29722656 -70.1706543 27.54882812 C-70.04651141 21.25892201 -68.04783485 16.02574766 -63.7734375 11.359375 C-45.44590071 -1.58688503 -21.49991039 -0.17764835 0 0 Z " fill="#00DAC2" transform="translate(1574.5625,338.6875)"/>
<path d="M0 0 C1.73675995 -0.00744736 1.73675995 -0.00744736 3.50860596 -0.01504517 C7.2996075 -0.02952681 11.09056726 -0.03644416 14.8815918 -0.04199219 C16.86782959 -0.04629481 18.85406738 -0.05059802 20.84030503 -0.05496669 C26.36771276 -0.06672533 31.89511057 -0.07429684 37.42252952 -0.07776189 C44.52093651 -0.08223938 51.61915065 -0.09979347 58.71749908 -0.12876248 C64.24234974 -0.15051117 69.76714664 -0.16047304 75.29203957 -0.16180301 C78.57492446 -0.16284109 81.85758777 -0.17002985 85.14043617 -0.18662262 C115.55970829 -0.32944193 139.32334981 5.33321567 161.76831055 27.16113281 C165.05337603 30.64866767 167.95218294 34.28766792 170.76831055 38.16113281 C171.1540625 38.6791748 171.53981445 39.1972168 171.93725586 39.73095703 C194.24929703 69.96799111 203.94078574 108.3150614 207.76831055 145.16113281 C207.86257324 146.03552002 207.95683594 146.90990723 208.05395508 147.81079102 C208.94608459 157.06324336 209.01168133 166.31120748 209.01831055 175.59863281 C209.01898529 176.45362366 209.01966003 177.3086145 209.02035522 178.18951416 C208.95830856 228.05763366 199.69528333 284.45571315 165.76831055 323.16113281 C164.98456055 324.19238281 164.20081055 325.22363281 163.39331055 326.28613281 C148.6860721 342.39406064 128.40862437 352.21625178 106.76831055 354.16113281 C103.07327252 354.30285398 99.38177744 354.30805739 95.68432617 354.30639648 C94.60004837 354.3097551 93.51577057 354.31311371 92.39863586 354.3165741 C88.8239323 354.32604748 85.24927588 354.32802625 81.67456055 354.32910156 C79.16516094 354.33231964 76.65576153 354.33568412 74.1463623 354.33918762 C68.88085632 354.34517204 63.61536209 354.34707159 58.34985352 354.34643555 C51.66898111 354.34577406 44.98823287 354.35991411 38.30738068 354.37720776 C33.11651142 354.38844766 27.92566715 354.39035102 22.73478699 354.38982582 C20.27613457 354.39099078 17.81748117 354.39532691 15.35884094 354.40315819 C-44.15836109 354.57479781 -44.15836109 354.57479781 -57.23168945 342.16113281 C-61.78813503 337.06712905 -62.43469678 330.79858985 -62.23168945 324.16113281 C-61.02457517 315.01247718 -57.06326326 306.78850318 -53.27905273 298.47558594 C-42.2600129 275.29729852 -42.2600129 275.29729852 -38.08451843 250.30064392 C-38.08084174 249.62288534 -38.07716506 248.94512676 -38.07337695 248.24683005 C-38.06239029 245.98249805 -38.05850481 243.71821202 -38.0546875 241.45385742 C-38.04841894 239.82728939 -38.04177179 238.20072278 -38.03477478 236.57415771 C-38.01377454 231.23727406 -38.00337455 225.90039026 -37.9934082 220.56347656 C-37.98935881 218.7221888 -37.98524183 216.88090119 -37.98105812 215.03961372 C-37.96201346 206.38557459 -37.94778223 197.73154394 -37.93944615 189.07748789 C-37.92968323 179.10827834 -37.90338537 169.13929139 -37.86294526 159.17016023 C-37.83271715 151.45188717 -37.81797085 143.73367766 -37.81466514 136.01534659 C-37.81232186 131.41172589 -37.80345611 126.80834317 -37.77820396 122.2047863 C-37.7548014 117.86840869 -37.75073856 113.53242371 -37.76096535 109.19599915 C-37.76145791 107.61265311 -37.75522087 106.02928693 -37.7414093 104.44600105 C-37.63284922 91.2530315 -40.68292949 80.73690999 -46.48168945 68.91113281 C-46.8679248 68.10756348 -47.25416016 67.30399414 -47.65209961 66.47607422 C-49.90127952 61.81712424 -52.21865768 57.19522095 -54.56665039 52.58544922 C-60.1955793 41.49408085 -63.61133405 32.90716753 -62.23168945 20.16113281 C-60.66918945 16.66113281 -60.66918945 16.66113281 -58.23168945 14.16113281 C-57.8037207 13.66484375 -57.37575195 13.16855469 -56.93481445 12.65722656 C-43.87443997 -0.77341627 -17.23719441 0.01809731 0 0 Z M56.58081055 56.47363281 C50.32378932 66.87002437 52.4775669 83.65494192 52.49365234 95.34399414 C52.48929713 97.44965799 52.48411131 99.55532026 52.47816467 101.66098022 C52.46485685 107.3403445 52.46418632 113.01964191 52.46672797 118.69901872 C52.46780235 123.45082589 52.46290292 128.20261978 52.45812255 132.95442408 C52.44705785 144.16322981 52.44657415 155.37200201 52.45263672 166.58081055 C52.45868743 178.13030399 52.44633067 189.67967596 52.42506665 201.22914869 C52.40744576 211.16665223 52.40144969 221.1041171 52.40470439 231.04163569 C52.40651511 236.96790834 52.40390122 242.89409412 52.38998985 248.82035255 C52.37740668 254.38795284 52.37936035 259.95536326 52.39240074 265.52296066 C52.39476421 267.56230293 52.39204009 269.60165859 52.38377762 271.64098549 C52.37329009 274.43114892 52.38142665 277.22067744 52.39408875 280.01081848 C52.38671446 280.81160712 52.37934018 281.61239575 52.37174243 282.43745071 C52.42453333 287.99169331 53.31013835 293.12907416 55.76831055 298.16113281 C61.48987245 303.13640403 67.53898745 303.53299871 74.86206055 303.43457031 C83.3466816 302.63628607 90.20624378 298.47424186 95.76831055 292.16113281 C113.06663166 270.07297675 117.91838416 240.35130421 120.76831055 213.16113281 C120.86402344 212.25387451 120.95973633 211.34661621 121.05834961 210.41186523 C122.05196711 199.49720845 122.01193828 188.54943089 122.01831055 177.59863281 C122.01898529 176.55578125 122.01966003 175.51292969 122.02035522 174.43847656 C121.98222868 137.26687269 119.84601934 89.04034096 92.97924805 60.28222656 C84.6902969 52.33010559 78.44601614 50.83057118 67.29174805 50.76269531 C62.41765083 51.31386817 59.90507987 52.95940524 56.58081055 56.47363281 Z " fill="#00DAC2" transform="translate(1135.231689453125,338.8388671875)"/>
<path d="M0 0 C29.04044809 29.30318419 45.92299439 68.63521393 53.375 108.8125 C53.53871094 109.69099609 53.70242188 110.56949219 53.87109375 111.47460938 C63.37769465 165.09655247 51.74433624 224.78465318 20.95654297 269.890625 C1.29081762 297.8736832 -24.13996506 319.3883613 -57.625 328.8125 C-59.31496094 329.29396484 -59.31496094 329.29396484 -61.0390625 329.78515625 C-80.71350144 334.39300415 -104.34080508 333.82708156 -123.625 327.8125 C-124.3154541 327.59819336 -125.0059082 327.38388672 -125.71728516 327.16308594 C-164.50046301 314.67466635 -192.76630271 284.48231555 -211.125 249.04296875 C-223.0721105 225.30139008 -230.77506154 199.25727781 -233.625 172.8125 C-233.73585938 171.84570312 -233.84671875 170.87890625 -233.9609375 169.8828125 C-239.33956931 113.91596799 -223.37092891 54.43849725 -187.56860352 10.77587891 C-164.8423501 -16.38956666 -135.31720519 -35.02283781 -99.625 -39.0625 C-60.54223964 -40.89972378 -27.66904427 -27.20610514 0 0 Z M-110.625 20.8125 C-146.31717433 63.72737402 -144.25410173 141.6318551 -139.80029297 194.19628906 C-136.98028382 221.8194742 -131.97660854 254.8897754 -110.625 274.8125 C-101.66912256 281.69385216 -92.74795114 282.74235517 -81.625 281.8125 C-78.22131658 280.97782286 -75.56420961 279.70279321 -72.625 277.8125 C-71.86703125 277.32652344 -71.1090625 276.84054687 -70.328125 276.33984375 C-50.3452508 262.15736759 -44.65921845 233.69610752 -40.65625 211.08984375 C-39.29709411 203.02106919 -38.24362859 194.97135914 -37.625 186.8125 C-37.56860352 186.0704834 -37.51220703 185.3284668 -37.45410156 184.56396484 C-33.83711865 134.10812329 -33.79526338 63.45042499 -66.5625 21.8125 C-72.68443569 15.25920841 -80.0200102 11.09829283 -89.0625 10.70703125 C-97.6655094 11.06111853 -104.65487039 14.75843184 -110.625 20.8125 Z " fill="#00DAC2" transform="translate(1012.625,369.1875)"/>
<path d="M0 0 C1.08271683 -0.00423477 2.16543365 -0.00846954 3.28096008 -0.01283264 C6.78370069 -0.02269115 10.28631049 -0.02275385 13.7890625 -0.01953125 C14.99213043 -0.018927 16.19519836 -0.01832275 17.4347229 -0.0177002 C159.93352548 0.17621594 159.93352548 0.17621594 204.4140625 39.16796875 C205.5278125 40.11736328 205.5278125 40.11736328 206.6640625 41.0859375 C216.17962997 49.82656292 221.90973614 61.44061155 222.7265625 74.296875 C223.67550002 98.45929513 213.85849706 117.82011066 198.234375 135.65625 C185.88081396 148.75645484 169.37052346 157.97919303 151.4140625 160.16796875 C144.32062432 160.31156062 138.58876181 159.07055098 133.2265625 154.16796875 C128.44412247 146.25220594 128.01405796 137.320416 127.9140625 128.29296875 C127.3043976 105.79733883 125.21008634 78.57427913 109.0390625 61.16796875 C100.77586412 53.66953591 92.80890326 51.77394048 81.8984375 51.8984375 C76.24744143 52.33556612 72.78254624 53.8658911 68.7421875 57.79296875 C61.14686981 66.81710858 59.3556148 78.86139705 59.20874023 90.29663086 C59.19884064 90.97064941 59.18894104 91.64466797 59.17874146 92.33911133 C59.1474481 94.54114409 59.12249802 96.74319834 59.09765625 98.9453125 C59.07705884 100.48231022 59.05606169 102.01930262 59.03468323 103.55628967 C58.97975009 107.58228224 58.93021522 111.60832347 58.88183594 115.63439941 C58.83140959 119.75045044 58.77583435 123.86643166 58.72070312 127.98242188 C58.61347384 136.04421164 58.51195215 144.10606019 58.4140625 152.16796875 C59.99029262 151.87512184 61.56534595 151.57593743 63.13989258 151.27416992 C64.45574089 151.02530281 64.45574089 151.02530281 65.798172 150.77140808 C69.80981388 149.84599378 73.39029075 148.2291371 77.1015625 146.48046875 C77.8661377 146.13105225 78.63071289 145.78163574 79.41845703 145.42163086 C81.75632964 144.34948084 84.08629866 143.26187434 86.4140625 142.16796875 C87.14544434 141.82443359 87.87682617 141.48089844 88.63037109 141.12695312 C89.68925537 140.62905273 89.68925537 140.62905273 90.76953125 140.12109375 C91.44862549 139.80229248 92.12771973 139.48349121 92.82739258 139.1550293 C94.67978826 138.28197112 96.52755004 137.39910052 98.375 136.515625 C103.69700858 134.15560834 108.61636501 133.45207915 114.4140625 134.16796875 C119.3408906 136.58490329 121.6508939 139.50427423 124.4140625 144.16796875 C127.57698786 154.07717612 127.86538137 164.28194641 127.75024414 174.59399414 C127.72646842 176.86445335 127.72973832 179.13374277 127.73632812 181.40429688 C127.68883477 206.7523288 127.68883477 206.7523288 119.3515625 216.60546875 C114.77754323 220.29419396 108.97384205 219.75035735 103.4140625 219.16796875 C94.84196199 216.95514667 86.82866887 213.1425781 78.97802734 209.11132812 C72.41325391 205.85090533 65.4708752 204.04874648 58.4140625 202.16796875 C58.43053041 208.99627423 58.48595767 215.82352172 58.56665039 222.65136719 C58.58964005 224.96705257 58.60418069 227.2828397 58.60961914 229.59863281 C58.64822427 243.3420595 59.09389008 255.38152539 64.4140625 268.16796875 C64.81729233 269.17328644 64.81729233 269.17328644 65.22866821 270.19891357 C67.52358705 275.92046473 69.94370913 281.58655307 72.40551758 287.23803711 C85.66824481 317.8085008 85.66824481 317.8085008 81.75390625 330.26953125 C77.92720152 339.11567984 70.04093144 343.67249798 61.4140625 347.16796875 C31.0054801 357.4705248 -11.43958074 359.8685172 -41.5859375 347.16796875 C-48.70871285 343.14020888 -53.30805827 338.10193794 -55.5859375 330.16796875 C-57.53988916 313.49121851 -50.62433469 297.99637576 -44.0859375 283.10546875 C-43.07702249 280.80234079 -42.072421 278.49776709 -41.0802002 276.18739319 C-40.47109513 274.76927822 -39.85328143 273.35484475 -39.22351074 271.94578552 C-34.00363022 259.80106737 -31.98714188 248.20123763 -32.05249023 235.04125977 C-32.0454079 233.59703704 -32.03665332 232.15282173 -32.02638245 230.70861816 C-32.00413795 226.83446401 -32.00676868 222.96072313 -32.01570392 219.08652997 C-32.02086332 215.83147809 -32.01348161 212.57650057 -32.00623184 209.32145637 C-31.98931216 201.63277473 -31.99271819 193.94429194 -32.00952148 186.25561523 C-32.026438 178.36821894 -32.01059686 170.48137634 -31.9782986 162.59404045 C-31.95146637 155.7790658 -31.94436312 148.96426205 -31.95281368 142.14923996 C-31.95770304 138.09782256 -31.95574702 134.04673781 -31.93502617 129.99536324 C-31.91645236 126.18233528 -31.92288669 122.37009365 -31.94722557 118.55710602 C-31.95448945 116.52066241 -31.93754837 114.4841754 -31.91940308 112.44779968 C-32.0703402 97.48970829 -37.52556587 84.69955618 -43.5859375 71.23046875 C-59.58397322 34.80660889 -59.58397322 34.80660889 -54.0234375 18.98046875 C-50.26512871 10.57954323 -43.97123482 7.43502442 -35.6328125 4.19921875 C-24.16459928 0.31766966 -12.00556579 0.01446866 0 0 Z " fill="#00DAC2" transform="translate(65.5859375,337.83203125)"/>
<path d="M0 0 C4.59283091 4.97648027 6.69196991 10.09474398 6.43359375 16.98046875 C4.72411171 30.54385917 -2.8336432 42.70900852 -9.05615234 54.61914062 C-9.79890875 56.04374548 -10.53780942 57.4703686 -11.27246094 58.89916992 C-11.92612116 60.17002071 -12.58857865 61.43641411 -13.26269531 62.6965332 C-18.64615516 73.1671024 -19.30215981 83.65155294 -19.25146484 95.21777344 C-19.25553833 96.79110069 -19.26088455 98.36442508 -19.26739502 99.93774414 C-19.2809866 104.18183856 -19.27580276 108.42571238 -19.26625776 112.6698103 C-19.25861324 117.13374066 -19.26572049 121.59765329 -19.27041626 126.06158447 C-19.2758622 133.55964513 -19.26871515 141.05761692 -19.25439453 148.55566406 C-19.23809412 157.18926571 -19.24334223 165.82265448 -19.25987375 174.45625091 C-19.2735504 181.90040063 -19.27537755 189.34448678 -19.26755774 196.78864503 C-19.26291193 201.22062042 -19.26216971 205.65249627 -19.27216721 210.08446503 C-19.28092424 214.25758157 -19.27465813 218.43042785 -19.25748444 222.60351562 C-19.25356466 224.12269902 -19.25457472 225.64190572 -19.26127243 227.16107941 C-19.31535371 240.69013804 -17.65648004 253.37053481 -12.30078125 265.8984375 C-11.79285034 267.13182861 -11.79285034 267.13182861 -11.2746582 268.39013672 C-8.14423252 275.89836078 -4.7583409 283.29912331 -1.27709961 290.65063477 C3.27982148 300.40290388 8.02483109 311.68712797 4.41015625 322.51171875 C0.23987678 330.42846881 -7.37230741 333.53330312 -15.4453125 336.18359375 C-30.88352448 340.48038282 -47.19492555 340.66852233 -63.10668945 340.59667969 C-65.92746387 340.58593109 -68.74760365 340.59666779 -71.56835938 340.609375 C-116.74835066 340.64430063 -116.74835066 340.64430063 -130.86328125 327.3359375 C-134.79976025 322.69651582 -134.91338251 317.18867565 -134.86328125 311.3359375 C-133.3889873 301.5651617 -129.17672127 292.85737643 -124.98828125 284.0234375 C-116.30823207 265.65514255 -110.5574863 248.84076901 -110.57275391 228.28222656 C-110.56676104 226.66654146 -110.55995376 225.05085921 -110.55239868 223.43518066 C-110.53480807 219.06719598 -110.53004623 214.69928977 -110.52876711 210.33127308 C-110.52734095 207.59618385 -110.52306255 204.86111429 -110.51777267 202.12602997 C-110.49929495 192.5667546 -110.49109918 183.00753483 -110.49267578 173.44824219 C-110.49387638 164.56581326 -110.47278425 155.68362763 -110.44118845 146.80126023 C-110.41495654 139.15167046 -110.40431138 131.50215982 -110.4055866 123.85252547 C-110.40609423 119.29421781 -110.40052211 114.73612655 -110.3792305 110.17786407 C-110.3597312 105.88655336 -110.35980265 101.59566291 -110.37426376 97.30433655 C-110.37633859 95.73915231 -110.37173108 94.17394095 -110.35954285 92.6088028 C-110.26466144 79.56888133 -112.77907937 68.49423272 -118.8671875 56.9453125 C-119.23174545 56.23038635 -119.59630341 55.51546021 -119.97190857 54.77886963 C-121.11344947 52.54271951 -122.2682967 50.31387038 -123.42578125 48.0859375 C-136.59851128 22.60525629 -136.59851128 22.60525629 -134.86328125 8.3359375 C-132.92146918 2.41669394 -128.71474548 -1.17961814 -123.5 -4.3515625 C-114.195517 -8.98312737 -104.10233778 -10.57235614 -93.86328125 -11.6640625 C-92.86941406 -11.77621094 -91.87554688 -11.88835937 -90.8515625 -12.00390625 C-65.72657887 -14.30519082 -20.63586728 -18.42951669 0 0 Z " fill="#00DAC2" transform="translate(1484.86328125,351.6640625)"/>
<path d="M0 0 C1.32 0 2.64 0 4 0 C4 0.66 4 1.32 4 2 C4.66 2.103125 5.32 2.20625 6 2.3125 C9.83841009 3.19213564 13.33096691 4.56969896 17 6 C17 6.66 17 7.32 17 8 C17.62648438 8.20496094 18.25296875 8.40992188 18.8984375 8.62109375 C19.71570313 8.89050781 20.53296875 9.15992188 21.375 9.4375 C22.18710937 9.70433594 22.99921875 9.97117188 23.8359375 10.24609375 C26 11 26 11 28 12 C28 12.66 28 13.32 28 14 C28.515625 14.0825 29.03125 14.165 29.5625 14.25 C33.04455732 15.32140225 35.87200885 17.13523605 39 19 C39 19.66 39 20.32 39 21 C39.556875 21.103125 40.11375 21.20625 40.6875 21.3125 C43.4769101 22.14178408 45.6139064 23.34299056 48 25 C48 25.66 48 26.32 48 27 C48.53625 27.0825 49.0725 27.165 49.625 27.25 C54.7389418 28.86492899 58.29079527 32.29079527 62 36 C62.639375 36.309375 63.27875 36.61875 63.9375 36.9375 C67.81309759 38.93401997 70.52214133 42.49824839 73.5 45.625 C75.8911595 47.89660152 78.17636892 49.33478167 81 51 C82.35308313 52.31328657 83.68870078 53.64499081 85 55 C86.485 55.99 86.485 55.99 88 57 C88 57.66 88 58.32 88 59 C88.69480469 59.13277344 89.38960938 59.26554687 90.10546875 59.40234375 C93.19870986 60.04102916 96.25040398 60.78856364 99.3125 61.5625 C100.38113281 61.83191406 101.44976563 62.10132813 102.55078125 62.37890625 C103.35902344 62.58386719 104.16726563 62.78882813 105 63 C105 63.66 105 64.32 105 65 C107.64 65 110.28 65 113 65 C113.99 59.39 114.98 53.78 116 48 C116.66 48 117.32 48 118 48 C118.268125 46.865625 118.53625 45.73125 118.8125 44.5625 C119.4003125 42.7990625 119.4003125 42.7990625 120 41 C120.99 40.67 121.98 40.34 123 40 C123.61067144 38.14255793 123.61067144 38.14255793 124 36 C125.35565898 32.55294752 126.78835473 31.22633918 130 29.4375 C133.02275544 27.7427566 133.99832634 27.0025105 136 24 C138.32481174 22.98034573 140.65794699 21.97940398 143 21 C143.33 20.34 143.66 19.68 144 19 C144.66 19 145.32 19 146 19 C146 18.34 146 17.68 146 17 C148.97 16.01 151.94 15.02 155 14 C155 13.34 155 12.68 155 12 C157.37265061 11.32382476 159.74755355 10.65891774 162.125 10 C162.79015625 9.80921875 163.4553125 9.6184375 164.140625 9.421875 C168.1986205 8.30791545 171.79685974 7.79049768 176 8 C175.66104345 11.0401795 175.35542568 12.62426428 173.22265625 14.87890625 C172.50980469 15.43449219 171.79695312 15.99007812 171.0625 16.5625 C168.12490884 18.87098816 166.5385721 20.60261003 165 24 C163.68870078 25.35500919 162.35308313 26.68671343 161 28 C158.21387471 31.1958496 156.37749713 33.98230004 155 38 C154.34 38 153.68 38 153 38 C151.31656589 46.83802906 151.3071892 56.17320081 153 65 C154.65 65 156.3 65 158 65 C158.4021875 63.7934375 158.4021875 63.7934375 158.8125 62.5625 C159.204375 61.716875 159.59625 60.87125 160 60 C160.99 59.67 161.98 59.34 163 59 C163.144375 58.360625 163.28875 57.72125 163.4375 57.0625 C163.623125 56.381875 163.80875 55.70125 164 55 C165.31647119 54.30062468 166.65022151 53.63270867 168 53 C168.33 52.01 168.66 51.02 169 50 C170.5234375 48.83203125 170.5234375 48.83203125 172.375 47.8125 C172.98085938 47.46832031 173.58671875 47.12414062 174.2109375 46.76953125 C176 46 176 46 179 46 C179 45.34 179 44.68 179 44 C194.56036446 39.40774487 194.56036446 39.40774487 203 40 C203 39.34 203 38.68 203 38 C204.98 38 206.96 38 209 38 C209 37.34 209 36.68 209 36 C213.12498468 35.97061977 217.24994191 35.95307465 221.375 35.9375 C222.53128906 35.92912109 223.68757812 35.92074219 224.87890625 35.91210938 C238.52494642 35.87356124 238.52494642 35.87356124 245 37 C246 38 246 38 246.0625 41.0625 C246.041875 42.031875 246.02125 43.00125 246 44 C242.60500696 44.50581854 239.20888518 45.00362244 235.8125 45.5 C234.85279297 45.64308594 233.89308594 45.78617187 232.90429688 45.93359375 C231.97294922 46.06894531 231.04160156 46.20429688 230.08203125 46.34375 C229.22843018 46.46943359 228.3748291 46.59511719 227.49536133 46.72460938 C224.97530325 47.00272556 222.53314218 47.047608 220 47 C220 47.66 220 48.32 220 49 C217.5636811 49.67126129 215.12611117 50.33716354 212.6875 51 C211.99720703 51.19078125 211.30691406 51.3815625 210.59570312 51.578125 C207.64212051 52.37716184 205.07440781 53 202 53 C202 53.66 202 54.32 202 55 C200.73308493 55.67408308 199.46129251 56.33900497 198.1875 57 C197.47980469 57.37125 196.77210938 57.7425 196.04296875 58.125 C194 59 194 59 191 59 C190.67 60.98 190.34 62.96 190 65 C190.59312988 65.04487549 191.18625977 65.08975098 191.79736328 65.13598633 C203.41336562 66.03860389 214.68429574 67.10348867 226 70 C226 70.66 226 71.32 226 72 C227.11375 72.12375 228.2275 72.2475 229.375 72.375 C234.30460991 72.98457542 239.14244255 73.97473685 244 75 C244 76.32 244 77.64 244 79 C242.87021729 78.96334229 241.74043457 78.92668457 240.57641602 78.88891602 C216.40644116 78.1751253 194.21665799 79.04527623 170.80102539 85.35742188 C168 86 168 86 164 86 C164 86.66 164 87.32 164 88 C164.556875 88.0825 165.11375 88.165 165.6875 88.25 C168.79888018 89.25909627 170.6312518 90.75592276 173 93 C174.0625 95.25 174.0625 95.25 175 98 C175.9728379 99.92939399 176.97987267 101.8374185 178 103.7421875 C180.43329143 109.23610331 181.49828085 115.12145612 182.5625 121 C182.68818359 121.67289062 182.81386719 122.34578125 182.94335938 123.0390625 C184.24908266 130.121415 185.12609634 136.81250841 185 144 C181.35698683 142.56909249 180.16276961 141.03012109 178.4375 137.5625 C176.75904713 134.21734757 176.75904713 134.21734757 174.34765625 131.40234375 C173 130 173 130 173 127 C172.21625 126.79375 171.4325 126.5875 170.625 126.375 C167.49399392 125.187377 165.28869348 123.95753983 162.515625 122.15625 C156.95432593 118.78130577 151.36060141 116.88150744 145.125 115.125 C143.62646484 114.66480469 143.62646484 114.66480469 142.09765625 114.1953125 C134.94533255 112.12806023 128.42528614 111.62898304 121 112 C122.03125 112.7425 123.0625 113.485 124.125 114.25 C130.93908511 120.08274628 134.54990465 129.2994279 136 138 C136.12996907 140.69221651 136.09636734 143.30171446 136 146 C132.60173253 144.86724418 132.20511973 144.21980905 130.25 141.375 C127.19004688 137.14395371 123.8182832 133.55150358 120 130 C119.11441406 129.17628906 119.11441406 129.17628906 118.2109375 128.3359375 C115.50250228 125.91385666 113.14672951 124.07336476 109.875 122.4375 C107 121 107 121 104.8125 118.625 C99.08182184 113.27636705 92.02266879 110.37062791 84.16796875 110.62890625 C81.88639712 110.9549329 81.88639712 110.9549329 79.37109375 111.94140625 C74.92068865 113.33892627 70.49371138 113.80903189 65.875 114.375 C58.78345497 115.3074713 52.28709826 116.57202565 45.5625 119.09375 C42.22025493 120.2757635 38.86864298 120.87372082 35.38671875 121.49609375 C32.14876915 122.17971977 29.10488326 123.25980366 26.0078125 124.4140625 C24 125 24 125 20 125 C20 125.66 20 126.32 20 127 C19.42556152 127.14099121 18.85112305 127.28198242 18.25927734 127.42724609 C15.63055469 128.07396589 13.00277762 128.72445144 10.375 129.375 C9.47136719 129.59671875 8.56773437 129.8184375 7.63671875 130.046875 C3.01908854 131.19285622 -1.511714 132.40449634 -6 134 C-5.71349017 130.56188206 -5.26566773 129.25828807 -2.75 126.8125 C0 125 0 125 2.5 124.0625 C5.24643515 123.08482374 5.24643515 123.08482374 7.5625 120.375 C10 118 10 118 14 118 C14 117.34 14 116.68 14 116 C16.1875 114.5625 16.1875 114.5625 19 113 C20.0828125 112.319375 20.0828125 112.319375 21.1875 111.625 C33.49589683 104.51348183 33.49589683 104.51348183 40 104 C40 103.01 40 102.02 40 101 C41.98 100.505 41.98 100.505 44 100 C44 99.34 44 98.68 44 98 C47.96 97.01 47.96 97.01 52 96 C52 95.34 52 94.68 52 94 C52.75925781 93.73445313 53.51851563 93.46890625 54.30078125 93.1953125 C55.29464844 92.84210938 56.28851563 92.48890625 57.3125 92.125 C58.29863281 91.77695312 59.28476562 91.42890625 60.30078125 91.0703125 C63.15594377 90.04694076 63.15594377 90.04694076 66 88 C67.32 88 68.64 88 70 88 C70 87.34 70 86.68 70 86 C65.05 85.34 60.1 84.68 55 84 C55 83.34 55 82.68 55 82 C54.41734375 81.88914062 53.8346875 81.77828125 53.234375 81.6640625 C49.36841137 80.51508729 46.5090431 78.12420794 44 75 C43.5625 71.125 43.5625 71.125 44 68 C43.34 68 42.68 68 42 68 C41.49595192 65.89679937 40.99689492 63.79240209 40.5 61.6875 C40.2215625 60.51574219 39.943125 59.34398437 39.65625 58.13671875 C39 55 39 55 39 52 C38.34 52 37.68 52 37 52 C36.49487756 50.39743892 35.99608373 48.79288208 35.5 47.1875 C35.2215625 46.29417969 34.943125 45.40085937 34.65625 44.48046875 C34 42 34 42 34 39 C33.34 39 32.68 39 32 39 C29 33.25 29 33.25 29 31 C28.01 30.67 27.02 30.34 26 30 C25.33333333 28.66666667 24.66666667 27.33333333 24 26 C22.67151309 24.99357052 21.33849671 23.99307821 20 23 C19.67 22.01 19.34 21.02 19 20 C17.30846256 18.28547658 17.30846256 18.28547658 15.25 16.625 C12.81141014 14.56458717 10.54885467 12.53836292 8.3125 10.25 C6.09789544 7.89342457 6.09789544 7.89342457 3.25 6.5 C1 5 1 5 0.1875 2.3125 C0.125625 1.549375 0.06375 0.78625 0 0 Z " fill="#04D7BF" transform="translate(412,228)"/>
<path d="M0 0 C0.66 0.33 1.32 0.66 2 1 C-0.34220077 3.62326486 -2.62644857 5.44960971 -5.6875 7.125 C-9.04061719 8.61616373 -9.04061719 8.61616373 -10 11 C-11.7421875 12.0703125 -11.7421875 12.0703125 -13.875 13.125 C-14.92300781 13.65480469 -14.92300781 13.65480469 -15.9921875 14.1953125 C-18 15 -18 15 -21 15 C-21 15.66 -21 16.32 -21 17 C-22.62249941 17.83819158 -24.24808497 18.6704116 -25.875 19.5 C-26.77992188 19.9640625 -27.68484375 20.428125 -28.6171875 20.90625 C-31 22 -31 22 -33 22 C-33 22.66 -33 23.32 -33 24 C-34.60149886 24.67305018 -36.20631029 25.33822227 -37.8125 26 C-38.70582031 26.37125 -39.59914063 26.7425 -40.51953125 27.125 C-43 28 -43 28 -46 28 C-46 28.66 -46 29.32 -46 30 C-47.7902061 30.67057887 -49.58221489 31.3363469 -51.375 32 C-52.37273437 32.37125 -53.37046875 32.7425 -54.3984375 33.125 C-57 34 -57 34 -59 34 C-59 34.66 -59 35.32 -59 36 C-61.76941606 36.83830973 -64.54035069 37.67082034 -67.3125 38.5 C-68.09818359 38.73847656 -68.88386719 38.97695313 -69.69335938 39.22265625 C-70.45068359 39.44824219 -71.20800781 39.67382812 -71.98828125 39.90625 C-72.68477783 40.11572266 -73.38127441 40.32519531 -74.09887695 40.54101562 C-76 41 -76 41 -79 41 C-79 41.66 -79 42.32 -79 43 C-81.72761511 43.67363372 -84.456799 44.33909444 -87.1875 45 C-87.95642578 45.19078125 -88.72535156 45.3815625 -89.51757812 45.578125 C-93.42078253 46.51623421 -96.95229795 47.25957208 -101 47 C-101 47.66 -101 48.32 -101 49 C-116.40776104 51.81796748 -131.28981217 54.2783301 -147 54 C-147 54.66 -147 55.32 -147 56 C-161.85 56 -176.7 56 -192 56 C-192 55.34 -192 54.68 -192 54 C-192.59683594 54.02320313 -193.19367188 54.04640625 -193.80859375 54.0703125 C-208.37166134 54.37325893 -222.74071895 51.6769614 -237 49 C-237 48.34 -237 47.68 -237 47 C-237.59425781 46.96261719 -238.18851562 46.92523437 -238.80078125 46.88671875 C-245.47134587 46.3576382 -251.60272899 44.93377584 -258 43 C-258 42.34 -258 41.68 -258 41 C-259.27230469 40.81630859 -259.27230469 40.81630859 -260.5703125 40.62890625 C-264.12035158 39.97793097 -267.43525424 39.02558284 -270.875 37.9375 C-272.02742188 37.57527344 -273.17984375 37.21304688 -274.3671875 36.83984375 C-275.23601562 36.56269531 -276.10484375 36.28554688 -277 36 C-277 35.34 -277 34.68 -277 34 C-277.66 33.67 -278.32 33.34 -279 33 C-273.53135543 34.01591421 -268.23609987 35.07091057 -263 37 C-263 37.66 -263 38.32 -263 39 C-261.7625 39.185625 -261.7625 39.185625 -260.5 39.375 C-256.60227933 40.07102155 -252.83260331 41.00880949 -249 42 C-249 42.66 -249 43.32 -249 44 C-247.11474609 44.185625 -247.11474609 44.185625 -245.19140625 44.375 C-239.72017604 44.98303341 -234.34356497 45.97451963 -228.9375 47 C-222.63530639 48.19055814 -216.37455593 49.27920216 -210 50 C-210 50.66 -210 51.32 -210 52 C-209.40574219 51.98839844 -208.81148438 51.97679687 -208.19921875 51.96484375 C-206.95591797 51.95130859 -206.95591797 51.95130859 -205.6875 51.9375 C-204.88699219 51.92589844 -204.08648437 51.91429687 -203.26171875 51.90234375 C-200.57303488 51.98284327 -197.99817181 52.20514393 -195.328125 52.4921875 C-186.92331279 53.28688348 -178.49707797 53.19468499 -170.0625 53.1875 C-169.19582703 53.1882251 -168.32915405 53.1889502 -167.43621826 53.18969727 C-156.16845978 53.18865441 -145.06672203 52.94109516 -133.8828125 51.4375 C-129.53431376 50.94752831 -125.37285933 50.93154036 -121 51 C-121 50.34 -121 49.68 -121 49 C-117.27206058 48.32634616 -113.54247005 47.66231022 -109.8125 47 C-108.75740234 46.80921875 -107.70230469 46.6184375 -106.61523438 46.421875 C-105.59365234 46.24140625 -104.57207031 46.0609375 -103.51953125 45.875 C-102.58214111 45.70742188 -101.64475098 45.53984375 -100.67895508 45.3671875 C-98.08032281 45.01100934 -95.61893788 44.93354004 -93 45 C-93 44.34 -93 43.68 -93 43 C-89.73061914 42.16089611 -86.45927466 41.32971667 -83.1875 40.5 C-82.25873047 40.26152344 -81.32996094 40.02304687 -80.37304688 39.77734375 C-79.0340332 39.43896484 -79.0340332 39.43896484 -77.66796875 39.09375 C-76.43469849 38.77954102 -76.43469849 38.77954102 -75.17651367 38.45898438 C-73 38 -73 38 -70 38 C-70 37.34 -70 36.68 -70 36 C-68.08594633 35.32586789 -66.16863974 34.6609668 -64.25 34 C-63.18265625 33.62875 -62.1153125 33.2575 -61.015625 32.875 C-58 32 -58 32 -54 32 C-54 31.34 -54 30.68 -54 30 C-52.04350603 29.16235732 -50.08474444 28.33000941 -48.125 27.5 C-47.03445313 27.0359375 -45.94390625 26.571875 -44.8203125 26.09375 C-42 25 -42 25 -40 25 C-40 24.34 -40 23.68 -40 23 C-39.43410156 22.80664062 -38.86820313 22.61328125 -38.28515625 22.4140625 C-37.55167969 22.15367187 -36.81820312 21.89328125 -36.0625 21.625 C-35.33160156 21.36976563 -34.60070312 21.11453125 -33.84765625 20.8515625 C-31.81317884 20.14728587 -31.81317884 20.14728587 -31 18 C-29.07321537 17.07686885 -27.10754902 16.23384763 -25.125 15.4375 C-23.52011719 14.78587891 -23.52011719 14.78587891 -21.8828125 14.12109375 C-19.94004232 13.36557201 -17.97753689 12.65917896 -16 12 C-16 11.34 -16 10.68 -16 10 C-15.45730469 9.74605469 -14.91460938 9.49210938 -14.35546875 9.23046875 C-13.64003906 8.88628906 -12.92460938 8.54210937 -12.1875 8.1875 C-11.47980469 7.85105469 -10.77210938 7.51460937 -10.04296875 7.16796875 C-7.97275899 5.98442627 -6.63245702 4.7190958 -5 3 C-2.4375 1.25 -2.4375 1.25 0 0 Z " fill="#FA1C1C" transform="translate(715,668)"/>
<path d="M0 0 C0.33 0 0.66 0 1 0 C0.45136137 6.7857936 -0.54267938 13.35009036 -2 20 C-2.66 20 -3.32 20 -4 20 C-4.06058594 20.78761719 -4.12117188 21.57523437 -4.18359375 22.38671875 C-4.7890625 30.2578125 -5.39453125 38.12890625 -6 46 C-6.66 46 -7.32 46 -8 46 C-8 63.82 -8 81.64 -8 100 C-7.34 100 -6.68 100 -6 100 C-4.78155555 109.32169156 -3.67510776 118.61955539 -3 128 C-2.34 128 -1.68 128 -1 128 C-0.49453964 130.08201528 0.00416835 132.16567067 0.5 134.25 C0.7784375 135.41015625 1.056875 136.5703125 1.34375 137.765625 C2 141 2 141 2 145 C2.66 145 3.32 145 4 145 C4.50692692 146.5811292 5.00526443 148.16501383 5.5 149.75 C5.91765625 151.07257813 5.91765625 151.07257813 6.34375 152.421875 C7 155 7 155 7 159 C7.66 159 8.32 159 9 159 C9.50367757 160.45706726 10.00282556 161.91570096 10.5 163.375 C10.7784375 164.18710937 11.056875 164.99921875 11.34375 165.8359375 C12 168 12 168 12 170 C12.66 170 13.32 170 14 170 C14.99 172.97 15.98 175.94 17 179 C17.66 179 18.32 179 19 179 C19.680625 180.7015625 19.680625 180.7015625 20.375 182.4375 C21.57095806 186.04721692 21.57095806 186.04721692 24 187 C24.9296875 188.6015625 24.9296875 188.6015625 25.875 190.625 C27.23154243 193.4711796 28.67636348 196.18018691 30.3125 198.875 C30.869375 199.90625 31.42625 200.9375 32 202 C31.67 202.66 31.34 203.32 31 204 C30.67 203.01 30.34 202.02 30 201 C29.01 200.67 28.02 200.34 27 200 C26.29788106 198.34795544 25.63028587 196.68076231 25 195 C24.34 194.67 23.68 194.34 23 194 C20 188.69230769 20 188.69230769 20 185 C19.34 185 18.68 185 18 185 C16.515 180.545 16.515 180.545 15 176 C14.34 176 13.68 176 13 176 C10 169.375 10 169.375 10 166 C9.34 166 8.68 166 8 166 C7.49242138 164.58603098 6.99425075 163.16868271 6.5 161.75 C6.08234375 160.56664062 6.08234375 160.56664062 5.65625 159.359375 C5 157 5 157 5 153 C4.34 153 3.68 153 3 153 C2.49307308 151.4188708 1.99473557 149.83498617 1.5 148.25 C1.08234375 146.92742187 1.08234375 146.92742187 0.65625 145.578125 C0 143 0 143 0 139 C-0.66 139 -1.32 139 -2 139 C-2.50780894 136.79344925 -3.00591365 134.58466395 -3.5 132.375 C-3.7784375 131.14523437 -4.056875 129.91546875 -4.34375 128.6484375 C-4.94091621 125.32847772 -5.12409534 122.36091549 -5 119 C-5.66 119 -6.32 119 -7 119 C-12.53520748 89.55054659 -12.33536537 55.42220903 -7 26 C-6.34 26 -5.68 26 -5 26 C-5.0928125 24.205625 -5.0928125 24.205625 -5.1875 22.375 C-5.2193315 15.74343695 -3.53318555 9.41565142 -2 3 C-1.34 3 -0.68 3 0 3 C0 2.01 0 1.02 0 0 Z " fill="#FB1D1D" transform="translate(307,421)"/>
<path d="M0 0 C0 3.12900213 -0.42451317 4.37418862 -2 7 C-2.99 7.495 -2.99 7.495 -4 8 C-4.495 8.99 -4.99 9.98 -5.5 11 C-7 14 -7 14 -9 15 C-10.05352843 17.30965848 -11.05719096 19.6429774 -12 22 C-12.66 22 -13.32 22 -14 22 C-14.12375 22.721875 -14.2475 23.44375 -14.375 24.1875 C-14.9904931 26.95721894 -15.88444374 29.3970354 -17 32 C-17.66 32 -18.32 32 -19 32 C-19.13277344 32.60328125 -19.26554688 33.2065625 -19.40234375 33.828125 C-19.57894531 34.62734375 -19.75554688 35.4265625 -19.9375 36.25 C-20.11152344 37.03890625 -20.28554688 37.8278125 -20.46484375 38.640625 C-20.947556 40.76878703 -21.46163178 42.88532842 -22 45 C-22.66 45 -23.32 45 -24 45 C-24.185625 46.6396875 -24.185625 46.6396875 -24.375 48.3125 C-25.02770131 53.58140765 -26.01264063 58.78520874 -27 64 C-27.66 64 -28.32 64 -29 64 C-29 78.19 -29 92.38 -29 107 C-28.34 107 -27.68 107 -27 107 C-26.49521515 109.41575607 -25.99602358 111.83244361 -25.5 114.25 C-25.35691406 114.93191406 -25.21382812 115.61382813 -25.06640625 116.31640625 C-24.38748951 119.64633121 -24 122.58332551 -24 126 C-23.34 126 -22.68 126 -22 126 C-21.49487756 127.60256108 -20.99608373 129.20711792 -20.5 130.8125 C-20.2215625 131.70582031 -19.943125 132.59914063 -19.65625 133.51953125 C-19 136 -19 136 -19 139 C-18.34 139 -17.68 139 -17 139 C-14 145.5 -14 145.5 -14 150 C-13.01 150.33 -12.02 150.66 -11 151 C-10.30341637 152.65438613 -9.63903117 154.32254318 -9 156 C-8.195625 156.804375 -8.195625 156.804375 -7.375 157.625 C-6.92125 158.07875 -6.4675 158.5325 -6 159 C-6 159.99 -6 160.98 -6 162 C-6.66 162 -7.32 162 -8 162 C-11 157.61538462 -11 157.61538462 -11 155 C-11.66 155 -12.32 155 -13 155 C-16 148.375 -16 148.375 -16 145 C-16.66 145 -17.32 145 -18 145 C-18.79441072 143.12616097 -19.58539974 141.25087114 -20.375 139.375 C-20.81585937 138.33085938 -21.25671875 137.28671875 -21.7109375 136.2109375 C-24.04973506 130.38520539 -25.35759706 125.2098951 -26 119 C-26.66 119 -27.32 119 -28 119 C-29.7494778 112.09491821 -30.44789563 105.54781558 -30.6875 98.4375 C-30.72584961 97.35557373 -30.76419922 96.27364746 -30.80371094 95.15893555 C-31.27705502 78.98673659 -31.3914949 62.68785598 -27 47 C-26.34 47 -25.68 47 -25 47 C-24.34 43.37 -23.68 39.74 -23 36 C-22.34 36 -21.68 36 -21 36 C-20.34 33.36 -19.68 30.72 -19 28 C-18.34 28 -17.68 28 -17 28 C-16.79503906 27.38511719 -16.59007812 26.77023437 -16.37890625 26.13671875 C-15.25260417 22.7578125 -14.12630208 19.37890625 -13 16 C-12.34 16 -11.68 16 -11 16 C-10.690625 15.21625 -10.38125 14.4325 -10.0625 13.625 C-9 11 -9 11 -8 9 C-7.34 9 -6.68 9 -6 9 C-5.7525 8.071875 -5.505 7.14375 -5.25 6.1875 C-3.93545755 2.83541675 -3.02036616 1.8122197 0 0 Z " fill="#FA1C1C" transform="translate(673,406)"/>
<path d="M0 0 C0 0.99 0 1.98 0 3 C-4.57984917 4.6978257 -9.04595795 5.55412487 -13.875 6.125 C-14.90753906 6.25455078 -14.90753906 6.25455078 -15.9609375 6.38671875 C-17.63995275 6.59659566 -19.31989048 6.79907087 -21 7 C-21 7.66 -21 8.32 -21 9 C-21.62567871 9.14099121 -22.25135742 9.28198242 -22.89599609 9.42724609 C-25.72410057 10.06896986 -28.54951673 10.72183634 -31.375 11.375 C-32.35984375 11.59671875 -33.3446875 11.8184375 -34.359375 12.046875 C-35.77089844 12.37558594 -35.77089844 12.37558594 -37.2109375 12.7109375 C-38.08024902 12.90993652 -38.94956055 13.10893555 -39.84521484 13.31396484 C-42.18268443 13.87650772 -42.18268443 13.87650772 -44 16 C-46.14440538 16.77311457 -48.31582595 17.47264713 -50.5 18.125 C-51.6653125 18.47820312 -52.830625 18.83140625 -54.03125 19.1953125 C-57 20 -57 20 -59 20 C-59 20.66 -59 21.32 -59 22 C-59.71027344 22.26554687 -60.42054688 22.53109375 -61.15234375 22.8046875 C-62.07144531 23.15789062 -62.99054688 23.51109375 -63.9375 23.875 C-64.85402344 24.22304688 -65.77054687 24.57109375 -66.71484375 24.9296875 C-69.14941056 25.7819086 -69.14941056 25.7819086 -70 28 C-72.1796875 29.2890625 -72.1796875 29.2890625 -74.875 30.625 C-75.75929688 31.07101562 -76.64359375 31.51703125 -77.5546875 31.9765625 C-80 33 -80 33 -83 33 C-83.33 33.99 -83.66 34.98 -84 36 C-86.92079805 38.07530387 -88.37546731 39 -92 39 C-92.3403125 39.928125 -92.3403125 39.928125 -92.6875 40.875 C-94.37929835 43.61410209 -95.99244161 44.05024472 -99 45 C-96.60250592 39.92295372 -93.77933498 38.56035803 -89 36 C-87.9805881 35.01979625 -86.97753644 34.02196992 -86 33 C-81.55555556 30 -81.55555556 30 -78 30 C-77.67 29.01 -77.34 28.02 -77 27 C-75.0390625 25.83203125 -75.0390625 25.83203125 -72.625 24.8125 C-71.83351563 24.46832031 -71.04203125 24.12414062 -70.2265625 23.76953125 C-68 23 -68 23 -65 23 C-65 22.34 -65 21.68 -65 21 C-63.3767313 20.3291288 -61.75132422 19.66342971 -60.125 19 C-59.22007812 18.62875 -58.31515625 18.2575 -57.3828125 17.875 C-55 17 -55 17 -53 17 C-53 16.34 -53 15.68 -53 15 C-50.94037148 14.32451422 -48.87715678 13.65995688 -46.8125 13 C-45.66394531 12.62875 -44.51539063 12.2575 -43.33203125 11.875 C-40.35679188 11.09369447 -38.04716104 10.81636694 -35 11 C-35 10.34 -35 9.68 -35 9 C-31.60641656 8.15731913 -28.20980915 7.32752099 -24.8125 6.5 C-23.85279297 6.26152344 -22.89308594 6.02304687 -21.90429688 5.77734375 C-20.97294922 5.55175781 -20.04160156 5.32617188 -19.08203125 5.09375 C-18.22843018 4.88427734 -17.3748291 4.67480469 -16.49536133 4.45898438 C-13.94053693 3.98906266 -11.59155241 3.91882373 -9 4 C-9 3.34 -9 2.68 -9 2 C-2.25 0 -2.25 0 0 0 Z " fill="#FA1C1C" transform="translate(456,302)"/>
<path d="M0 0 C0.99 0 1.98 0 3 0 C2.875 1.6875 2.875 1.6875 2 4 C0.60470503 5.19596712 -0.79845904 6.38468094 -2.25 7.51171875 C-4.93041539 9.79126845 -7.1105049 12.46168784 -9.39453125 15.12890625 C-11.17261726 17.2011768 -12.95750816 19.1844517 -15 21 C-15.66 21 -16.32 21 -17 21 C-17.33 21.99 -17.66 22.98 -18 24 C-18.66 24 -19.32 24 -20 24 C-20.268125 24.928125 -20.53625 25.85625 -20.8125 26.8125 C-21.98039329 29.94737145 -22.69990003 30.79190403 -25 33 C-26.04622875 34.97620986 -27.05439935 36.9737129 -28 39 C-28.66 39 -29.32 39 -30 39 C-30.12375 39.556875 -30.2475 40.11375 -30.375 40.6875 C-31.05976855 43.22114364 -31.99133763 45.57921032 -33 48 C-33.66 48 -34.32 48 -35 48 C-35.99 51.3 -36.98 54.6 -38 58 C-38.66 58 -39.32 58 -40 58 C-40.99 62.95 -40.99 62.95 -42 68 C-42.66 68 -43.32 68 -44 68 C-44.495 68.99 -44.495 68.99 -45 70 C-44.67 67.69 -44.34 65.38 -44 63 C-43.34 63 -42.68 63 -42 63 C-41.87625 62.13375 -41.7525 61.2675 -41.625 60.375 C-41.01941879 57.10486147 -40.11693965 54.12743101 -39 51 C-38.34 51 -37.68 51 -37 51 C-36.01 48.03 -35.02 45.06 -34 42 C-33.34 42 -32.68 42 -32 42 C-31.82984375 41.39671875 -31.6596875 40.7934375 -31.484375 40.171875 C-30.03550105 35.39367367 -28.86029574 32.34558964 -25 29 C-24.67 28.01 -24.34 27.02 -24 26 C-23.02149805 24.97895449 -22.02019573 23.9793879 -21 23 C-20.34 22.01 -19.68 21.02 -19 20 C-18.34 20 -17.68 20 -17 20 C-16.773125 19.278125 -16.54625 18.55625 -16.3125 17.8125 C-14.72668125 14.41431697 -12.73876676 12.54769001 -10 10 C-9.13375 9.0925 -8.2675 8.185 -7.375 7.25 C-5 5 -5 5 -2 4 C-0.79117904 1.99983534 -0.79117904 1.99983534 0 0 Z M-46 70 C-45 74 -45 74 -45 74 Z " fill="#FA1B1B" transform="translate(354,347)"/>
<path d="M0 0 C1.9375 0.3125 1.9375 0.3125 4 1 C4.495 2.485 4.495 2.485 5 4 C6.88316159 5.10836423 6.88316159 5.10836423 9 6 C9.99 6.66 10.98 7.32 12 8 C12 8.99 12 9.98 12 11 C11.34 11 10.68 11 10 11 C10 11.66 10 12.32 10 13 C7.91891315 13.67364661 5.8350329 14.33866798 3.75 15 C2.58984375 15.37125 1.4296875 15.7425 0.234375 16.125 C-3 17 -3 17 -7 17 C-7 17.66 -7 18.32 -7 19 C-8.76858691 19.67260351 -10.53996016 20.33788395 -12.3125 21 C-13.29863281 21.37125 -14.28476562 21.7425 -15.30078125 22.125 C-18 23 -18 23 -21 23 C-21 23.66 -21 24.32 -21 25 C-22.76755526 25.84026396 -24.53917263 26.67198722 -26.3125 27.5 C-27.29863281 27.9640625 -28.28476562 28.428125 -29.30078125 28.90625 C-32 30 -32 30 -35 30 C-35.33 30.99 -35.66 31.98 -36 33 C-39.0625 34.1875 -39.0625 34.1875 -42 35 C-40.98973214 32.36115827 -40.37432414 31.21017098 -37.87109375 29.8046875 C-37.06800781 29.49789063 -36.26492188 29.19109375 -35.4375 28.875 C-32.00802421 27.74678102 -32.00802421 27.74678102 -30 25 C-28.35 25 -26.7 25 -25 25 C-25 24.34 -25 23.68 -25 23 C-21.7 22.01 -18.4 21.02 -15 20 C-15 19.34 -15 18.68 -15 18 C-12.89748139 17.32815382 -10.79292237 16.66269032 -8.6875 16 C-7.51574219 15.62875 -6.34398437 15.2575 -5.13671875 14.875 C-2 14 -2 14 1 14 C1 13.34 1 12.68 1 12 C3.64 11.67 6.28 11.34 9 11 C7.62011743 7.78724312 6.09467624 5.9893602 3.375 3.8125 C2.23489161 2.89343303 1.10537887 1.96055651 0 1 C0 0.67 0 0.34 0 0 Z " fill="#FA1C1C" transform="translate(743,347)"/>
<path d="M0 0 C1.32 0.33 2.64 0.66 4 1 C4 1.66 4 2.32 4 3 C4.84304688 3.18369141 4.84304688 3.18369141 5.703125 3.37109375 C8.18986519 4.0519869 10.40514776 4.99352325 12.75 6.0625 C13.54921875 6.42472656 14.3484375 6.78695312 15.171875 7.16015625 C15.77515625 7.43730469 16.3784375 7.71445312 17 8 C17 8.66 17 9.32 17 10 C17.77085937 10.20496094 18.54171875 10.40992188 19.3359375 10.62109375 C20.33882812 10.89050781 21.34171875 11.15992188 22.375 11.4375 C23.37273438 11.70433594 24.37046875 11.97117187 25.3984375 12.24609375 C28 13 28 13 30 14 C30 14.66 30 15.32 30 16 C30.9075 16.103125 31.815 16.20625 32.75 16.3125 C38.26282152 17.08543168 43.62115462 18.59567091 49 20 C49 20.66 49 21.32 49 22 C51.64 22.33 54.28 22.66 57 23 C57 24.32 57 25.64 57 27 C55.02 27.99 55.02 27.99 53 29 C53.66 27.35 54.32 25.7 55 24 C54.2265625 23.87882813 53.453125 23.75765625 52.65625 23.6328125 C46.68117941 22.67147688 40.84407421 21.57340459 35 20 C35 19.34 35 18.68 35 18 C34.443125 17.90203125 33.88625 17.8040625 33.3125 17.703125 C28.4645893 16.75319655 24.41122369 15.41811593 20.0625 13.0859375 C16.46737476 11.19304959 12.72387974 9.62057729 9 8 C9 7.34 9 6.68 9 6 C7.6078125 5.566875 7.6078125 5.566875 6.1875 5.125 C3 4 3 4 0 2 C0 1.34 0 0.68 0 0 Z " fill="#FA1C1C" transform="translate(703,603)"/>
<path d="M0 0 C1.32 0 2.64 0 4 0 C4 0.66 4 1.32 4 2 C5.03125 2.0825 6.0625 2.165 7.125 2.25 C13.58536416 3.03130758 19.78983656 5.12473997 26 7 C26 7.66 26 8.32 26 9 C26.59167969 9.12117188 27.18335938 9.24234375 27.79296875 9.3671875 C32.03803585 10.26744643 36.02439661 11.20456621 40 13 C40 13.66 40 14.32 40 15 C40.66 15.103125 41.32 15.20625 42 15.3125 C45.83841009 16.19213564 49.33096691 17.56969896 53 19 C53 19.66 53 20.32 53 21 C54.98 21.66 56.96 22.32 59 23 C55.29218328 24.23593891 54.32489747 23.5678132 50.8125 22.0625 C49.91144531 21.68222656 49.01039063 21.30195313 48.08203125 20.91015625 C47.39496094 20.60980469 46.70789063 20.30945313 46 20 C46 19.34 46 18.68 46 18 C45.31292969 17.79503906 44.62585938 17.59007812 43.91796875 17.37890625 C43.01691406 17.10949219 42.11585938 16.84007812 41.1875 16.5625 C40.29417969 16.29566406 39.40085937 16.02882813 38.48046875 15.75390625 C36.64526945 15.19612127 34.81966274 14.60655425 33 14 C33 13.34 33 12.68 33 12 C32.39414062 11.90203125 31.78828125 11.8040625 31.1640625 11.703125 C25.68675435 10.72563616 20.85206129 9.25541994 15.73828125 7.0859375 C10.60695947 5.05097679 5.29155436 3.5592668 0 2 C0 1.34 0 0.68 0 0 Z " fill="#FA1C1C" transform="translate(657,304)"/>
<path d="M0 0 C2.31 0 4.62 0 7 0 C4.82813579 2.17186421 3.50023469 2.6793248 0.625 3.625 C-0.53128906 4.01558594 -0.53128906 4.01558594 -1.7109375 4.4140625 C-4 5 -4 5 -8 5 C-8 5.66 -8 6.32 -8 7 C-8.57443848 7.14099121 -9.14887695 7.28198242 -9.74072266 7.42724609 C-12.36944531 8.07396589 -14.99722238 8.72445144 -17.625 9.375 C-18.52863281 9.59671875 -19.43226563 9.8184375 -20.36328125 10.046875 C-24.98091146 11.19285622 -29.511714 12.40449634 -34 14 C-33.69381595 10.32579134 -33.24228216 9.21864487 -30.4375 6.6875 C-29.633125 6.130625 -28.82875 5.57375 -28 5 C-27.34 5.33 -26.68 5.66 -26 6 C-26.99 7.485 -26.99 7.485 -28 9 C-24.7 8.67 -21.4 8.34 -18 8 C-18 7.34 -18 6.68 -18 6 C-16.35 6 -14.7 6 -13 6 C-13 5.34 -13 4.68 -13 4 C-8.71 3.34 -4.42 2.68 0 2 C0 1.34 0 0.68 0 0 Z " fill="#7E867A" transform="translate(440,348)"/>
<path d="M0 0 C0.66 0 1.32 0 2 0 C1.44846785 3.73724772 0.03850239 5.2235991 -2.8125 7.625 C-3.49957031 8.21539063 -4.18664062 8.80578125 -4.89453125 9.4140625 C-7 11 -7 11 -9.203125 12.09765625 C-11.59249742 13.29753675 -11.8427911 14.61751109 -13 17 C-16.10021957 20.35158872 -19.44323616 23.15458893 -23 26 C-24.68528688 27.64783606 -26.35697047 29.31002677 -28 31 C-28.99 30.67 -29.98 30.34 -31 30 C-26.9971636 25.86373572 -22.73766143 22.05541585 -18.44140625 18.2265625 C-16.38657264 16.35255425 -14.42951863 14.43813111 -12.5 12.4375 C-10 10 -10 10 -8 10 C-7.773125 9.443125 -7.54625 8.88625 -7.3125 8.3125 C-5.63848923 5.36305245 -3.45043651 3.3247731 -1 1 C-0.67 0.67 -0.34 0.34 0 0 Z " fill="#FA1C1C" transform="translate(754,632)"/>
<path d="M0 0 C4.00707194 2.17526763 6.86264648 4.7057788 10 8 C12.42278499 10.48335462 14.7899935 12.8319948 17.5 15 C20.2067769 17.16542152 22.58226174 19.51863704 25 22 C25.598125 22.598125 26.19625 23.19625 26.8125 23.8125 C27.204375 24.204375 27.59625 24.59625 28 25 C27.01 25.33 26.02 25.66 25 26 C20 21 20 21 17.5625 18.5 C15.6459447 16.63018995 13.76763118 14.97758153 11.6875 13.3125 C10.3571875 12.1678125 10.3571875 12.1678125 9 11 C9 10.34 9 9.68 9 9 C8.443125 8.773125 7.88625 8.54625 7.3125 8.3125 C4.33840412 6.62449964 2.27991135 4.53323483 0 2 C0 1.34 0 0.68 0 0 Z " fill="#FA1C1C" transform="translate(353,642)"/>
<path d="M0 0 C1.93054015 2.89581023 2.35848055 4.08582821 2.8515625 7.38671875 C2.98046875 8.24330078 3.109375 9.09988281 3.2421875 9.98242188 C3.36851562 10.87509766 3.49484375 11.76777344 3.625 12.6875 C3.7590625 13.56083984 3.893125 14.43417969 4.03125 15.33398438 C4.80431253 20.6152636 5.13666319 25.6639236 5 31 C1.38742976 29.5733799 0.16707038 28.06130814 -1.5625 24.625 C-3.15293997 21.50669474 -4.83144283 18.75312476 -7 16 C-2.77511272 17.50888831 -1.34495342 20.32623964 1 24 C1.66 24.33 2.32 24.66 3 25 C2.90912109 24.42032471 2.81824219 23.84064941 2.72460938 23.2434082 C2.31250055 20.60036412 1.90619983 17.95645838 1.5 15.3125 C1.35691406 14.40048828 1.21382812 13.48847656 1.06640625 12.54882812 C0.93105469 11.66259766 0.79570313 10.77636719 0.65625 9.86328125 C0.53056641 9.05157471 0.40488281 8.23986816 0.27539062 7.40356445 C-0.00977723 4.91466595 -0.04674739 2.50293311 0 0 Z " fill="#55A896" transform="translate(592,341)"/>
<path d="M0 0 C-2.03454262 2.18524948 -3.85582936 3.91497629 -6.4375 5.4375 C-9.17455262 6.9684026 -9.17455262 6.9684026 -11.625 9.625 C-14 12 -14 12 -17 13 C-17.28875 13.5775 -17.5775 14.155 -17.875 14.75 C-19.39987147 17.79974294 -21.48215822 19.72780132 -24 22 C-24.99 22.33 -25.98 22.66 -27 23 C-25.46781315 19.36938333 -23.2816856 17.0136227 -20.5 14.25 C-19.7059375 13.45078125 -18.911875 12.6515625 -18.09375 11.828125 C-16 10 -16 10 -14 10 C-13.7525 9.4225 -13.505 8.845 -13.25 8.25 C-10.5614901 3.41068219 -5.73408336 -1.91136112 0 0 Z " fill="#FA1B1B" transform="translate(701,383)"/>
<path d="M0 0 C3.63934097 1.71263105 5.57853623 3.63116219 7.8125 6.875 C10.47188063 10.62417837 13.14297713 12.59535768 17.1015625 14.84765625 C20.94948026 17.1833265 23.58019062 19.74057186 25 24 C20.72658086 23.52517565 18.89680572 20.96922587 16 18 C15.34 17.67 14.68 17.34 14 17 C9.23015459 14.6150773 6.624979 10.45105134 4 6 C3.278125 5.278125 2.55625 4.55625 1.8125 3.8125 C1.214375 3.214375 0.61625 2.61625 0 2 C0 1.34 0 0.68 0 0 Z " fill="#FA1C1C" transform="translate(673,576)"/>
<path d="M0 0 C0.99 0 1.98 0 3 0 C2.75107354 3.36050723 1.86673436 4.11509305 -0.75 6.375 C-1.28496094 6.78878906 -1.81992187 7.20257813 -2.37109375 7.62890625 C-4.07695891 9.06477837 -5.41378395 10.57939702 -6.8125 12.3125 C-7.534375 13.199375 -8.25625 14.08625 -9 15 C-9.33 15 -9.66 15 -10 15 C-9.63265306 8.63265306 -9.63265306 8.63265306 -6.5625 5.5625 C-4 4 -4 4 -2 4 C-1.34 2.68 -0.68 1.36 0 0 Z M-12 15 C-11.01 15.495 -11.01 15.495 -10 16 C-10.99 16.495 -10.99 16.495 -12 17 C-12 16.34 -12 15.68 -12 15 Z M-15 18 C-14.34 18.33 -13.68 18.66 -13 19 C-13.99 19.66 -14.98 20.32 -16 21 C-15.67 20.01 -15.34 19.02 -15 18 Z " fill="#F62D2D" transform="translate(354,347)"/>
<path d="M0 0 C0 0.99 0 1.98 0 3 C-10.23 2.67 -20.46 2.34 -31 2 C-31 1.67 -31 1.34 -31 1 C-20.6510926 0.34956362 -10.3734499 -0.16494885 0 0 Z " fill="#50A997" transform="translate(656,304)"/>
<path d="M0 0 C0.66 0 1.32 0 2 0 C2 5.28 2 10.56 2 16 C0.68 15.67 -0.64 15.34 -2 15 C-2.33 12.36 -2.66 9.72 -3 7 C-2.01 7.33 -1.02 7.66 0 8 C0 5.36 0 2.72 0 0 Z " fill="#EE3231" transform="translate(597,364)"/>
<path d="M0 0 C8.40577035 -0.84057704 13.75957026 1.88361355 21 6 C21 6.66 21 7.32 21 8 C22.32 8.66 23.64 9.32 25 10 C25 10.99 25 11.98 25 13 C24.5875 12.525625 24.175 12.05125 23.75 11.5625 C21.817815 9.83733482 20.51807725 9.43415125 18 9 C18 8.34 18 7.68 18 7 C17.34 7 16.68 7 16 7 C16 6.34 16 5.68 16 5 C14.68 5.33 13.36 5.66 12 6 C11.34 5.01 10.68 4.02 10 3 C7.58392583 2.20201782 7.58392583 2.20201782 4.875 1.8125 C3.50988281 1.57466797 3.50988281 1.57466797 2.1171875 1.33203125 C1.41851562 1.22246094 0.71984375 1.11289062 0 1 C0 0.67 0 0.34 0 0 Z " fill="#90786E" transform="translate(494,338)"/>
<path d="M0 0 C-0.08566397 2.912575 -0.57910955 4.56798024 -2.625 6.66796875 C-4.38391375 8.16091772 -6.16313019 9.60436262 -8 11 C-8.33 10.34 -8.66 9.68 -9 9 C-8.34 8.21625 -7.68 7.4325 -7 6.625 C-4.79798559 4.28487188 -4.79798559 4.28487188 -5 2 C-5.99 1.67 -6.98 1.34 -8 1 C-5.29120665 -0.35439668 -2.99066732 -0.06501451 0 0 Z " fill="#0BCFB6" transform="translate(588,236)"/>
<path d="M0 0 C1.32 0.33 2.64 0.66 4 1 C4 1.66 4 2.32 4 3 C4.721875 3.268125 5.44375 3.53625 6.1875 3.8125 C13.28571429 6.80952381 13.28571429 6.80952381 15.3125 10.1875 C15.539375 10.785625 15.76625 11.38375 16 12 C7.45 8.675 7.45 8.675 5 5 C4.13375 4.484375 3.2675 3.96875 2.375 3.4375 C1.59125 2.963125 0.8075 2.48875 0 2 C0 1.34 0 0.68 0 0 Z " fill="#FA1C1C" transform="translate(727,335)"/>
<path d="M0 0 C4.38209309 1.36940409 7.55994959 3.78206194 11.1328125 6.5625 C12.70665485 7.77416106 14.34735828 8.89823885 16 10 C16 10.66 16 11.32 16 12 C14.68 11.67 13.36 11.34 12 11 C12 10.34 12 9.68 12 9 C11.278125 8.731875 10.55625 8.46375 9.8125 8.1875 C2.71428571 5.19047619 2.71428571 5.19047619 0.6875 1.8125 C0.460625 1.214375 0.23375 0.61625 0 0 Z " fill="#FA1C1C" transform="translate(381,668)"/>
<path d="M0 0 C4.27131965 6.40697948 5.42104151 13.42125279 5 21 C2 20 2 20 0.8125 17.9375 C0.4103125 16.9784375 0.4103125 16.9784375 0 16 C0.66 16 1.32 16 2 16 C2 12.7 2 9.4 2 6 C1.34 6 0.68 6 0 6 C0 4.02 0 2.04 0 0 Z " fill="#5CA190" transform="translate(543,353)"/>
<path d="M0 0 C0.75023437 0.20496094 1.50046875 0.40992188 2.2734375 0.62109375 C8.85787383 2.35427661 15.20377699 3.56395914 22 4 C21.67 5.32 21.34 6.64 21 8 C20.34 8 19.68 8 19 8 C19 7.34 19 6.68 19 6 C11.575 5.01 11.575 5.01 4 4 C4 3.34 4 2.68 4 2 C2.68 1.67 1.36 1.34 0 1 C0 0.67 0 0.34 0 0 Z " fill="#768D80" transform="translate(463,308)"/>
<path d="M0 0 C2.31 0 4.62 0 7 0 C1.96964845 5.03035155 -6.23963435 5.46346304 -13 6 C-13 5.34 -13 4.68 -13 4 C-8.71 3.34 -4.42 2.68 0 2 C0 1.34 0 0.68 0 0 Z " fill="#6C9385" transform="translate(440,348)"/>
<path d="M0 0 C0.598125 0.226875 1.19625 0.45375 1.8125 0.6875 C0.8225 0.6875 -0.1675 0.6875 -1.1875 0.6875 C-1.5175 2.6675 -1.8475 4.6475 -2.1875 6.6875 C1.7725 7.0175 5.7325 7.3475 9.8125 7.6875 C9.8125 8.0175 9.8125 8.3475 9.8125 8.6875 C7.70840361 8.71451408 5.60420822 8.73390223 3.5 8.75 C2.32824219 8.76160156 1.15648437 8.77320313 -0.05078125 8.78515625 C-3.1875 8.6875 -3.1875 8.6875 -6.1875 7.6875 C-5.82037028 4.97074005 -5.46005401 3.07686287 -3.875 0.8125 C-2.1875 -0.3125 -2.1875 -0.3125 0 0 Z " fill="#08D0B7" transform="translate(604.1875,286.3125)"/>
<path d="M0 0 C3.4087928 1.3984791 4.87393835 2.85006933 6.75 6 C7.17796875 6.70125 7.6059375 7.4025 8.046875 8.125 C9 10 9 10 9 12 C9.66 12 10.32 12 11 12 C11 10.35 11 8.7 11 7 C11.33 7 11.66 7 12 7 C12 9.64 12 12.28 12 15 C8.38742976 13.5733799 7.16707038 12.06130814 5.4375 8.625 C3.84706003 5.50669474 2.16855717 2.75312476 0 0 Z " fill="#8C7B70" transform="translate(585,357)"/>
<path d="M0 0 C0.33 0.66 0.66 1.32 1 2 C2.93330603 3.09166275 2.93330603 3.09166275 5 4 C5.66 4.33 6.32 4.66 7 5 C7 5.66 7 6.32 7 7 C4.03 6.67 1.06 6.34 -2 6 C-2 5.34 -2 4.68 -2 4 C-3.65 4 -5.3 4 -7 4 C-7 3.67 -7 3.34 -7 3 C-4.69 3 -2.38 3 0 3 C0 2.01 0 1.02 0 0 Z " fill="#AC6058" transform="translate(656,304)"/>
<path d="M0 0 C0.99 0 1.98 0 3 0 C3.69969682 2.24623699 4.38435043 4.49716414 5.0625 6.75 C5.63677734 8.62945312 5.63677734 8.62945312 6.22265625 10.546875 C6.92656828 13.6738008 7.16653785 15.09466046 6 18 C4.0307132 14.48341642 3.05189886 10.87887704 2 7 C1.62702487 5.68692316 1.252104 4.37439703 0.875 3.0625 C0.58625 2.051875 0.2975 1.04125 0 0 Z " fill="#AF6159" transform="translate(587,326)"/>
<path d="M0 0 C2.08836672 4.17673343 2.3695619 6.65211418 2.625 11.25 C2.69976563 12.51328125 2.77453125 13.7765625 2.8515625 15.078125 C2.90054688 16.04234375 2.94953125 17.0065625 3 18 C1 18 1 18 -0.625 16.5 C-1.07875 16.005 -1.5325 15.51 -2 15 C-1.67 14.01 -1.34 13.02 -1 12 C-0.34 12.33 0.32 12.66 1 13 C0.67 8.71 0.34 4.42 0 0 Z " fill="#AA625A" transform="translate(547,361)"/>
<path d="M0 0 C-1.76013671 1.76013671 -4.29898774 1.66588357 -6.6875 2.0625 C-8.24017578 2.32740234 -8.24017578 2.32740234 -9.82421875 2.59765625 C-12.92221769 2.99014566 -15.88124863 3.07013684 -19 3 C-19 2.34 -19 1.68 -19 1 C-16.58440932 0.63645961 -14.16805703 0.28389449 -11.75 -0.0625 C-11.06808594 -0.16626953 -10.38617188 -0.27003906 -9.68359375 -0.37695312 C-6.2150075 -0.86524925 -3.33088887 -1.22762141 0 0 Z " fill="#6C9385" transform="translate(489,340)"/>
<path d="M0 0 C0.99 0.33 1.98 0.66 3 1 C2.45730469 1.45890625 1.91460937 1.9178125 1.35546875 2.390625 C0.64003906 3.00421875 -0.07539063 3.6178125 -0.8125 4.25 C-1.52019531 4.85328125 -2.22789062 5.4565625 -2.95703125 6.078125 C-5.05997556 7.93917218 -5.05997556 7.93917218 -6.63671875 10.234375 C-7.31154297 11.10835938 -7.31154297 11.10835938 -8 12 C-8.66 12 -9.32 12 -10 12 C-9.65978036 8.82461668 -8.97533396 7.97723135 -6.5625 5.75 C-4 4 -4 4 -2 4 C-1.34 2.68 -0.68 1.36 0 0 Z " fill="#FB1A1A" transform="translate(354,347)"/>
<path d="M0 0 C4.38889325 0.66498383 7.9811485 2.18757677 12 4 C12 4.66 12 5.32 12 6 C12.99 6.33 13.98 6.66 15 7 C13 8 13 8 11.08984375 7.51171875 C10.02443359 7.10373047 10.02443359 7.10373047 8.9375 6.6875 C8.22464844 6.42324219 7.51179688 6.15898438 6.77734375 5.88671875 C5 5 5 5 4 3 C1.98330173 1.86649466 1.98330173 1.86649466 0 1 C0 0.67 0 0.34 0 0 Z " fill="#FA1C1C" transform="translate(408,687)"/>
<path d="M0 0 C4.95 0.33 9.9 0.66 15 1 C15 1.33 15 1.66 15 2 C11.37 2.33 7.74 2.66 4 3 C5.65 4.65 7.3 6.3 9 8 C5.56247993 6.4722133 2.81046312 4.49818944 0 2 C0 1.34 0 0.68 0 0 Z " fill="#43B6A2" transform="translate(529,337)"/>
<path d="M0 0 C2.31 0.33 4.62 0.66 7 1 C7 1.66 7 2.32 7 3 C9.31 3 11.62 3 14 3 C13.67 3.66 13.34 4.32 13 5 C8.71 4.34 4.42 3.68 0 3 C0 2.01 0 1.02 0 0 Z " fill="#08D0B7" transform="translate(510,290)"/>
<path d="M0 0 C0 0.33 0 0.66 0 1 C-5.445 1.495 -5.445 1.495 -11 2 C-11 2.66 -11 3.32 -11 4 C-12.98 4.33 -14.96 4.66 -17 5 C-15.5116195 2.57158971 -14.60479134 1.21345577 -11.875 0.25 C-7.91111674 -0.0946855 -3.97583841 -0.07795762 0 0 Z " fill="#09D0B7" transform="translate(643,273)"/>
<path d="M0 0 C5.75 0.875 5.75 0.875 8 2 C8 2.66 8 3.32 8 4 C9.65 4.33 11.3 4.66 13 5 C9.78177396 6.07033136 7.96857567 5.95795392 4.8125 4.75 C3.77029297 4.37101563 3.77029297 4.37101563 2.70703125 3.984375 C1 3 1 3 0 0 Z " fill="#FA1A1A" transform="translate(423,695)"/>
<path d="M0 0 C0.99 0 1.98 0 3 0 C3.268125 0.969375 3.53625 1.93875 3.8125 2.9375 C4.204375 3.948125 4.59625 4.95875 5 6 C5.99 6.33 6.98 6.66 8 7 C8.6875 9.0625 8.6875 9.0625 9 11 C5.51866169 9.60746468 4.52113967 8.36823784 3 5 C2.34 4.67 1.68 4.34 1 4 C0.375 1.9375 0.375 1.9375 0 0 Z " fill="#FA1C1C" transform="translate(339,625)"/>
<path d="M0 0 C0.66 0.33 1.32 0.66 2 1 C0.515 2.485 0.515 2.485 -1 4 C0.65 4.33 2.3 4.66 4 5 C4 5.33 4 5.66 4 6 C0.7 6.33 -2.6 6.66 -6 7 C-4.11656068 3.23312136 -3.30867531 2.20578354 0 0 Z " fill="#21C7B2" transform="translate(418,350)"/>
<path d="M0 0 C1.32 0 2.64 0 4 0 C4.33 0.99 4.66 1.98 5 3 C6.49985609 4.66710346 6.49985609 4.66710346 8 6 C4.79937313 7.60031344 2.27728194 6.03173691 -1 5 C0.32 4.67 1.64 4.34 3 4 C3 3.34 3 2.68 3 2 C2.01 1.67 1.02 1.34 0 1 C0 0.67 0 0.34 0 0 Z " fill="#EE3332" transform="translate(660,307)"/>
<path d="M0 0 C-1.14453125 1.48828125 -1.14453125 1.48828125 -3 3 C-5.69921875 3.29296875 -5.69921875 3.29296875 -8.6875 3.1875 C-9.68136719 3.16042969 -10.67523437 3.13335937 -11.69921875 3.10546875 C-12.45847656 3.07066406 -13.21773437 3.03585937 -14 3 C-9.41201726 -0.05865516 -5.43293781 -0.12634739 0 0 Z " fill="#CA4C47" transform="translate(609,308)"/>
<path d="M0 0 C1.98 0.66 3.96 1.32 6 2 C6 2.66 6 3.32 6 4 C6.639375 4.12375 7.27875 4.2475 7.9375 4.375 C8.618125 4.58125 9.29875 4.7875 10 5 C10.33 5.66 10.66 6.32 11 7 C6.80639551 6.32902328 3.59665648 4.1441606 0 2 C0 1.34 0 0.68 0 0 Z " fill="#FA1C1C" transform="translate(716,328)"/>
<path d="M0 0 C4.03321763 1.21934486 7.54269479 2.55954927 11 5 C11 5.66 11 6.32 11 7 C9.02 6.34 7.04 5.68 5 5 C5 4.34 5 3.68 5 3 C4.360625 2.87625 3.72125 2.7525 3.0625 2.625 C2.381875 2.41875 1.70125 2.2125 1 2 C0.67 1.34 0.34 0.68 0 0 Z " fill="#FA1C1C" transform="translate(397,680)"/>
<path d="M0 0 C0.33 0 0.66 0 1 0 C1 4.29 1 8.58 1 13 C0.34 13 -0.32 13 -1 13 C-1.66 12.01 -2.32 11.02 -3 10 C-2.67 9.01 -2.34 8.02 -2 7 C-1.34 7.33 -0.68 7.66 0 8 C0 5.36 0 2.72 0 0 Z " fill="#BE514B" transform="translate(597,364)"/>
<path d="M0 0 C1.258125 -0.020625 2.51625 -0.04125 3.8125 -0.0625 C4.52019531 -0.07410156 5.22789062 -0.08570313 5.95703125 -0.09765625 C8 0 8 0 11 1 C11 1.66 11 2.32 11 3 C11.99 3.33 12.98 3.66 14 4 C9.03083364 3.48594831 4.70973649 2.76615118 0 1 C0 0.67 0 0.34 0 0 Z " fill="#41B3A1" transform="translate(555,342)"/>
<path d="M0 0 C0.66 0 1.32 0 2 0 C1.34 1.32 0.68 2.64 0 4 C-0.66 4 -1.32 4 -2 4 C-2.0825 4.61875 -2.165 5.2375 -2.25 5.875 C-3 8 -3 8 -5.0625 9.25 C-5.701875 9.4975 -6.34125 9.745 -7 10 C-6.34 8.68 -5.68 7.36 -5 6 C-4.34 6 -3.68 6 -3 6 C-2.814375 5.071875 -2.814375 5.071875 -2.625 4.125 C-2 2 -2 2 0 0 Z " fill="#08D0B7" transform="translate(578,281)"/>
<path d="M0 0 C-1.41519715 2.0343459 -2.54982123 2.90410393 -4.98046875 3.421875 C-6.98176954 3.66273952 -8.9909944 3.83532741 -11 4 C-10.01 3.67 -9.02 3.34 -8 3 C-8 2.34 -8 1.68 -8 1 C-2.25 -1.125 -2.25 -1.125 0 0 Z " fill="#09D0B7" transform="translate(599,271)"/>
<path d="M0 0 C0.8353125 0.2475 0.8353125 0.2475 1.6875 0.5 C4.18691249 1.04041351 6.45045662 1.07082065 9 1 C5.77484237 2.73662334 2.48670834 3.8905928 -1 5 C-0.67 3.35 -0.34 1.7 0 0 Z " fill="#9F6B62" transform="translate(407,357)"/>
<path d="M0 0 C-0.33 0.66 -0.66 1.32 -1 2 C-3.06640625 2.6328125 -3.06640625 2.6328125 -5.5625 3.125 C-6.38878906 3.29257812 -7.21507812 3.46015625 -8.06640625 3.6328125 C-8.70449219 3.75398438 -9.34257812 3.87515625 -10 4 C-8.68 3.34 -7.36 2.68 -6 2 C-6 1.34 -6 0.68 -6 0 C-3 -1 -3 -1 0 0 Z " fill="#689587" transform="translate(462,326)"/>
<path d="M0 0 C0 0.66 0 1.32 0 2 C-4.43076923 4.09230769 -4.43076923 4.09230769 -7.3125 3.625 C-7.869375 3.41875 -8.42625 3.2125 -9 3 C-8.34 3 -7.68 3 -7 3 C-7 2.34 -7 1.68 -7 1 C-4 0 -4 0 0 0 Z " fill="#679889" transform="translate(471,321)"/>
<path d="M0 0 C1.32 0.33 2.64 0.66 4 1 C3 3 3 3 0.71484375 3.8515625 C-0.65994141 4.23441406 -0.65994141 4.23441406 -2.0625 4.625 C-2.98160156 4.88539063 -3.90070312 5.14578125 -4.84765625 5.4140625 C-5.55792969 5.60742188 -6.26820313 5.80078125 -7 6 C-5 3 -5 3 -2.375 2.3125 C-1.59125 2.209375 -0.8075 2.10625 0 2 C0 1.34 0 0.68 0 0 Z " fill="#08D0B7" transform="translate(567,240)"/>
<path d="M0 0 C3.96 1.98 3.96 1.98 8 4 C8 4.66 8 5.32 8 6 C5.69 5.34 3.38 4.68 1 4 C0.67 2.68 0.34 1.36 0 0 Z " fill="#AC635B" transform="translate(577,351)"/>
<path d="M0 0 C1.09658936 3.28976808 0.79953138 4.71303767 0 8 C-0.99 8.33 -1.98 8.66 -3 9 C-2.67 6.69 -2.34 4.38 -2 2 C-1.34 2 -0.68 2 0 2 C0 1.34 0 0.68 0 0 Z " fill="#09D0B7" transform="translate(530,274)"/>
<path d="M0 0 C2.31 0 4.62 0 7 0 C3.99382731 3.00617269 1.17618402 2.59585316 -3 3 C-2.01 2.67 -1.02 2.34 0 2 C0 1.34 0 0.68 0 0 Z " fill="#48B09E" transform="translate(440,348)"/>
<path d="M0 0 C0 0.99 0 1.98 0 3 C-2.97 3 -5.94 3 -9 3 C-3 0 -3 0 0 0 Z " fill="#5CA291" transform="translate(656,304)"/>
</svg>
