<?xml version="1.0" encoding="UTF-8"?>
<svg version="1.1" xmlns="http://www.w3.org/2000/svg" width="141" height="142">
<path d="M0 0 C2.57645226 1.70115089 2.57645226 1.70115089 5.01107788 4.13565063 C5.94481232 5.05253662 6.87854675 5.96942261 7.84057617 6.91409302 C8.852886 7.94320132 9.86483698 8.97266272 10.87646484 10.00244141 C11.95814422 11.07790748 13.04132417 12.1518661 14.12588501 13.22442627 C17.06327816 16.13846319 19.97825042 19.07401562 22.88902617 22.01461077 C25.93908958 25.08985333 29.00700971 28.14719044 32.07241821 31.2071228 C37.21731074 36.34843091 42.34795868 41.50362549 47.47021484 46.66748047 C53.39120612 52.63624883 59.33317423 58.58347406 65.28708112 64.51939642 C71.01567577 70.23151309 76.7300075 75.95769015 82.43767166 81.69071579 C84.86622026 84.12966342 87.29949825 86.56374357 89.73667526 88.99406815 C92.60633233 91.85706567 95.4632358 94.73221553 98.3107872 97.61719513 C99.35740818 98.6736171 100.40829242 99.72583498 101.46370697 100.77347183 C102.90432653 102.20490236 104.32803489 103.65329283 105.75082397 105.10244751 C106.55198828 105.90809458 107.35315258 106.71374165 108.17859459 107.54380226 C110.32328841 110.4359602 110.7841446 112.43141373 111 116 C110 118.375 110 118.375 108 120 C104.37769468 120.69659718 102.10976935 120.74559261 98.98828125 118.6484375 C97.24944251 117.16001976 95.600937 115.63499949 94 114 C93.67 114.33 93.34 114.66 93 115 C89.625 115.375 89.625 115.375 86 115 C83.17981114 112.08580484 82.97983568 109.75940588 82.97167969 105.91040039 C82.27567881 99.33747363 77.88008516 95.78659171 73.328125 91.37109375 C72.45355652 90.49598648 71.57898804 89.62087921 70.67791748 88.71925354 C68.83126642 86.88028333 66.97483558 85.05108809 65.109375 83.23120117 C63.19753163 81.36326882 61.29713392 79.48983143 59.41210938 77.59545898 C56.68988499 74.86019259 53.95041149 72.14366579 51.203125 69.43359375 C49.93411346 68.16351723 49.93411346 68.16351723 48.63946533 66.86778259 C47.8422406 66.09600174 47.04501587 65.32422089 46.22363281 64.52905273 C45.17891815 63.50387794 45.17891815 63.50387794 44.11309814 62.45799255 C41.5507875 60.69005298 40.04959289 60.69918203 37 61 C37.00666183 61.63227005 37.01332367 62.2645401 37.02018738 62.91596985 C37.08646147 69.48551355 37.13176761 76.05496259 37.16479492 82.62475586 C37.17989881 85.07792008 37.20038321 87.53105724 37.22631836 89.98413086 C37.26263057 93.50641555 37.27971036 97.02834381 37.29296875 100.55078125 C37.30845261 101.65086014 37.32393646 102.75093903 37.33988953 103.88435364 C37.34011612 104.90518539 37.34034271 105.92601715 37.34057617 106.9777832 C37.34723801 107.87713089 37.35389984 108.77647858 37.36076355 109.70307922 C37 112 37 112 35.66621399 113.79045105 C33.08188706 115.66648255 31.0946669 115.38683336 28 115 C26.33378601 113.79045105 26.33378601 113.79045105 25 112 C24.63923645 109.70307922 24.63923645 109.70307922 24.65942383 106.9777832 C24.65976372 105.44653557 24.65976372 105.44653557 24.66011047 103.88435364 C24.67559433 102.78427475 24.69107819 101.68419586 24.70703125 100.55078125 C24.71127609 99.4230278 24.71552094 98.29527435 24.71989441 97.13334656 C24.73670689 93.52615633 24.77436472 89.91952178 24.8125 86.3125 C24.82754347 83.86914868 24.84123246 81.42578863 24.85351562 78.98242188 C24.88661884 72.98809118 24.93684407 66.99408529 25 61 C24.21826416 60.85900879 23.43652832 60.71801758 22.63110352 60.57275391 C17.71329295 59.50221632 13.64096861 56.17545552 10.6328125 52.1875 C7.9818494 47.69827782 6.90904134 44.3918118 7.24609375 39.234375 C7.74253838 30.52445181 7.74253838 30.52445181 4.38671875 22.69140625 C1.64775744 19.66525288 -1.24647703 16.94139495 -4.35961914 14.30371094 C-9.90042938 9.5905091 -9.90042938 9.5905091 -10.5625 5.6640625 C-10 3 -10 3 -8.9375 1.125 C-5.89138375 -0.64371266 -3.45989042 -0.30811194 0 0 Z " fill="#FD9D0C" transform="translate(16,15)"/>
<path d="M0 0 C0 27.39 0 54.78 0 83 C-11.07033923 77.46483039 -26.40425238 64.85379254 -30.7598877 52.91760254 C-31.97181967 47.96229319 -32.09944822 43.07581216 -31.875 38 C-31.84635864 37.32322205 -31.81771729 36.64644409 -31.78820801 35.94915771 C-31.17698729 25.30841954 -28.93506206 14.59005936 -21 7 C-13.54120064 1.84554516 -9.16298249 0 0 0 Z " fill="#FE9D0D" transform="translate(112,12)"/>
<path d="M0 0 C3.5 0.4375 3.5 0.4375 5.19746399 1.71980286 C7.50521332 4.76310791 6.86077816 8.59359326 6.79296875 12.26171875 C6.78872391 13.12311966 6.78447906 13.98452057 6.78010559 14.87202454 C6.76331248 17.62333431 6.72565956 20.37391162 6.6875 23.125 C6.67245396 24.9902238 6.65876541 26.85545907 6.64648438 28.72070312 C6.61340693 33.29325098 6.5616206 37.8652513 6.5 42.4375 C1.03556867 39.98757679 -3.12027636 36.37530724 -6.5 31.4375 C-7.62964184 26.77310357 -7.4971749 22.39599058 -7.25 17.625 C-7.23453125 16.41134766 -7.2190625 15.19769531 -7.203125 13.94726562 C-6.85540151 0.85692519 -6.85540151 0.85692519 0 0 Z " fill="#FE9D0C" transform="translate(64.5,11.5625)"/>
<path d="M0 0 C1.66918945 1.2043457 1.66918945 1.2043457 3 3 C3.34057617 5.36010742 3.34057617 5.36010742 3.29296875 8.10546875 C3.28330078 9.08837891 3.27363281 10.07128906 3.26367188 11.08398438 C3.23853516 12.10814453 3.21339844 13.13230469 3.1875 14.1875 C3.17396484 15.22326172 3.16042969 16.25902344 3.14648438 17.32617188 C3.11111389 19.88463699 3.06175544 22.4420578 3 25 C2.52876709 24.59225342 2.05753418 24.18450684 1.57202148 23.7644043 C0.94884033 23.22726807 0.32565918 22.69013184 -0.31640625 22.13671875 C-0.93201416 21.60522217 -1.54762207 21.07372559 -2.18188477 20.52612305 C-3.7223805 19.23303337 -5.32437455 18.01376363 -6.9375 16.8125 C-9.72111471 13.01666176 -9.51919331 10.12638932 -9.46875 5.5234375 C-8.4415038 -0.00657121 -5.18594399 -0.648243 0 0 Z " fill="#FE9E0D" transform="translate(50,12)"/>
<path d="M0 0 C2.79828356 0.38597015 3.8205884 0.80136573 5.75 2.9375 C7 5 7 5 7 7 C4.13302508 5.71480435 2.02392288 4.42870746 0 2 C0 1.34 0 0.68 0 0 Z " fill="#FE9D0D" transform="translate(29,12)"/>
</svg>
