<?xml version="1.0" encoding="UTF-8"?>
<svg version="1.1" xmlns="http://www.w3.org/2000/svg" width="453" height="550">
<path d="M0 0 C1.78663585 2.67995377 2.48273051 4.25536811 3.3046875 7.26953125 C10.85078189 33.93682829 21.98963616 59.08343956 34 84 C34.45648926 84.95148926 34.91297852 85.90297852 35.38330078 86.88330078 C41.0351626 98.61107227 47.21867976 109.89089049 54 121 C54.49902832 121.8264502 54.99805664 122.65290039 55.51220703 123.50439453 C70.13240309 147.70628977 86.49872531 170.63974229 105.68359375 191.46484375 C107.56729323 193.52643053 109.38636708 195.61720066 111.1875 197.75 C119.48396899 207.2624999 128.56265452 216.18096077 138.48828125 223.9765625 C140.95243566 225.96168223 143.21082938 228.0672108 145.5 230.25 C152.29364348 236.438804 160.02261546 241.35754416 167.65625 246.43505859 C169.78175998 247.85427932 171.89346885 249.29110714 174 250.73828125 C202.08674768 269.95320659 233.11169683 281.58873309 265.39453125 291.703125 C312.23162523 306.44472129 355.55387368 336.51790726 386 375 C386.94746094 376.12921875 386.94746094 376.12921875 387.9140625 377.28125 C422.24222679 418.53155442 441.48490842 471.61089905 450 524 C450.11859375 524.70543945 450.2371875 525.41087891 450.359375 526.13769531 C451.34668648 532.04687203 452.03958099 537.71577136 452.01855469 543.71020508 C452.01587585 544.70079422 452.01319702 545.69138336 452.01043701 546.71199036 C452.0069928 547.46703354 452.00354858 548.22207672 452 549 C428.60330109 549.96739131 405.24153456 550.14121117 381.82776614 550.11607273 C376.61096418 550.11163351 371.39416292 550.11317202 366.17735958 550.11389065 C356.09955472 550.11441739 346.02175894 550.10984856 335.9439564 550.10338932 C324.26077315 550.09612849 312.57759518 550.09539127 300.89440918 550.09460449 C270.1171047 550.08937538 239.33980221 550.07541411 208.5625 550.0625 C139.736875 550.041875 70.91125 550.02125 0 550 C0 368.5 0 187 0 0 Z " fill="#E86C01" transform="translate(0,0)"/>
</svg>
